<?xml version="1.0" encoding="UTF-8" standalone="no"?>
<!-- Created with Inkscape (http://www.inkscape.org/) -->

<svg
   xmlns:dc="http://purl.org/dc/elements/1.1/"
   xmlns:cc="http://creativecommons.org/ns#"
   xmlns:rdf="http://www.w3.org/1999/02/22-rdf-syntax-ns#"
   xmlns:svg="http://www.w3.org/2000/svg"
   xmlns="http://www.w3.org/2000/svg"
   xmlns:sodipodi="http://sodipodi.sourceforge.net/DTD/sodipodi-0.dtd"
   xmlns:inkscape="http://www.inkscape.org/namespaces/inkscape"
   id="svg3336"
   version="1.1"
   inkscape:version="0.91 r13725"
   width="800"
   height="320"
   viewBox="0 0 800 320"
   sodipodi:docname="logo-skyline-true.svg">
  <metadata
     id="metadata3342">
    <rdf:RDF>
      <cc:Work
         rdf:about="">
        <dc:format>image/svg+xml</dc:format>
        <dc:type
           rdf:resource="http://purl.org/dc/dcmitype/StillImage" />
        <dc:title />
      </cc:Work>
    </rdf:RDF>
  </metadata>
  <defs
     id="defs3340">
    <inkscape:path-effect
       effect="spiro"
       id="path-effect8765"
       is_visible="true" />
    <inkscape:path-effect
       effect="spiro"
       id="path-effect8212"
       is_visible="true" />
    <inkscape:path-effect
       effect="spiro"
       id="path-effect8208"
       is_visible="true" />
    <inkscape:path-effect
       effect="spiro"
       id="path-effect8203"
       is_visible="true" />
    <inkscape:path-effect
       effect="spiro"
       id="path-effect8212-4"
       is_visible="true" />
    <inkscape:path-effect
       effect="spiro"
       id="path-effect8212-4-9"
       is_visible="true" />
    <inkscape:path-effect
       effect="spiro"
       id="path-effect8212-4-9-0"
       is_visible="true" />
    <inkscape:path-effect
       effect="spiro"
       id="path-effect8212-4-9-17"
       is_visible="true" />
  </defs>
  <sodipodi:namedview
     pagecolor="#ffffff"
     bordercolor="#666666"
     borderopacity="1"
     objecttolerance="10"
     gridtolerance="10"
     guidetolerance="10"
     inkscape:pageopacity="0"
     inkscape:pageshadow="2"
     inkscape:window-width="1366"
     inkscape:window-height="745"
     id="namedview3338"
     showgrid="false"
     inkscape:zoom="1.0795057"
     inkscape:cx="400.14632"
     inkscape:cy="159.72257"
     inkscape:window-x="-8"
     inkscape:window-y="-8"
     inkscape:window-maximized="1"
     inkscape:current-layer="svg3336"
     inkscape:snap-grids="true"
     inkscape:snap-to-guides="true"
     showguides="true">
    <inkscape:grid
       type="xygrid"
       id="grid8093" />
  </sodipodi:namedview>
  <path
     style="opacity:1;fill:#6f9ef6;fill-opacity:1;fill-rule:evenodd;stroke:#6f9ef6;stroke-width:1.00309491;stroke-linecap:butt;stroke-linejoin:miter;stroke-miterlimit:4;stroke-dasharray:none;stroke-opacity:1"
     d="M 0.51761801,0.50154748 C 0.52604285,66.342339 0.51435227,133.33016 0.50665472,196.79443 c -0.005369,42.96915 -0.006351,84.34531 -0.003666,122.70402 l 798.99546128,0 c 0,-96.40952 -0.015,-215.93358 -0.0175,-318.99690252 l -798.96437822,0 z"
     id="path4381-9-3"
     inkscape:connector-curvature="0" />
  <rect
     style="opacity:1;fill:#515970;fill-opacity:1;stroke:#515970;stroke-width:1;stroke-linejoin:miter;stroke-miterlimit:4;stroke-dasharray:none;stroke-opacity:1"
     id="rect8103"
     width="25.5"
     height="62.5"
     x="0"
     y="257" />
  <rect
     style="opacity:1;fill:#515970;fill-opacity:1;stroke:#515970;stroke-width:1;stroke-linejoin:miter;stroke-miterlimit:4;stroke-dasharray:none;stroke-opacity:1"
     id="rect8103-5"
     width="37.41272"
     height="92.067055"
     x="25.966475"
     y="227.43292" />
  <rect
     style="opacity:1;fill:#515970;fill-opacity:1;stroke:#515970;stroke-width:1;stroke-linejoin:miter;stroke-miterlimit:4;stroke-dasharray:none;stroke-opacity:1"
     id="rect8103-5-1"
     width="43.566372"
     height="67.220703"
     x="63.466816"
     y="252.2793" />
  <rect
     style="opacity:1;fill:#515970;fill-opacity:1;stroke:#515970;stroke-width:1;stroke-linejoin:miter;stroke-miterlimit:4;stroke-dasharray:none;stroke-opacity:1"
     id="rect8103-5-1-0"
     width="31.314262"
     height="93.718605"
     x="107.71787"
     y="225.78137" />
  <rect
     style="opacity:1;fill:#515970;fill-opacity:1;stroke:#515970;stroke-width:1;stroke-linejoin:miter;stroke-miterlimit:4;stroke-dasharray:none;stroke-opacity:1"
     id="rect8103-5-1-0-3"
     width="23.870962"
     height="64.025307"
     x="139.31453"
     y="255.47467" />
  <rect
     style="opacity:1;fill:#515970;fill-opacity:1;stroke:#515970;stroke-width:1;stroke-linejoin:miter;stroke-miterlimit:4;stroke-dasharray:none;stroke-opacity:1"
     id="rect8103-5-1-0-3-3"
     width="14.676993"
     height="7.8313389"
     x="67.286484"
     y="244.27179" />
  <rect
     style="opacity:1;fill:#515970;fill-opacity:1;stroke:#515970;stroke-width:1;stroke-linejoin:miter;stroke-miterlimit:4;stroke-dasharray:none;stroke-opacity:1"
     id="rect8103-5-1-0-3-3-1"
     width="14.676993"
     height="7.8313389"
     x="86.911507"
     y="244.27179" />
  <path
     style="fill:#515970;fill-opacity:1;fill-rule:evenodd;stroke:#515970;stroke-width:1;stroke-linecap:butt;stroke-linejoin:miter;stroke-miterlimit:4;stroke-dasharray:none;stroke-opacity:1"
     d="m 31.819805,227.31086 0,-7.6014 18.384777,0 7.601397,7.6014 -25.986174,0 z"
     id="path8210"
     inkscape:path-effect="#path-effect8212"
     inkscape:original-d="m 31.819805,227.31086 0,-7.6014 18.384777,0 7.601397,7.6014 z"
     inkscape:connector-curvature="0" />
  <path
     style="fill:#515970;fill-rule:evenodd;stroke:#515970;stroke-width:1;stroke-linecap:butt;stroke-linejoin:miter;stroke-miterlimit:4;stroke-dasharray:none;stroke-opacity:1;fill-opacity:1"
     d="m 110.02037,225.18619 0,-7.71082 16.75525,0 6.92765,7.71082 -23.6829,0 z"
     id="path8210-6"
     inkscape:path-effect="#path-effect8212-4"
     inkscape:original-d="m 110.02037,225.18619 0,-7.71082 16.75525,0 6.92765,7.71082 z"
     inkscape:connector-curvature="0" />
  <rect
     style="opacity:1;fill:#515970;fill-opacity:1;stroke:#515970;stroke-width:1;stroke-linejoin:miter;stroke-miterlimit:4;stroke-dasharray:none;stroke-opacity:1"
     id="rect8103-5-1-0-3-3-1-0"
     width="14.676993"
     height="7.8313389"
     x="139.03261"
     y="247.61359" />
  <rect
     style="opacity:1;fill:#515970;fill-opacity:1;stroke:#515970;stroke-width:1;stroke-linejoin:miter;stroke-miterlimit:4;stroke-dasharray:none;stroke-opacity:1"
     id="rect8103-5-1-0-3-8-6-1-1-2-0-8-7-0"
     width="50.006935"
     height="37.798344"
     x="519.64478"
     y="281.70166" />
  <rect
     style="opacity:1;fill:#515970;stroke:#515970;stroke-width:1;stroke-linejoin:miter;stroke-miterlimit:4;stroke-dasharray:none;stroke-opacity:1;fill-opacity:1"
     id="rect8103-5-1-0-3-8-6-1-1-2-0-8-7-4-1"
     width="27.974207"
     height="9.2940645"
     x="530.57349"
     y="272.16895" />
  <rect
     style="opacity:1;fill:#515970;fill-opacity:1;stroke:#515970;stroke-width:1;stroke-linejoin:miter;stroke-miterlimit:4;stroke-dasharray:none;stroke-opacity:1"
     id="rect8103-5-1-0-3-8-6-1-1-2-0-8-7-0-7"
     width="12.573601"
     height="31.30246"
     x="569.56329"
     y="288.19751" />
  <rect
     style="opacity:1;fill:#515970;fill-opacity:1;stroke:#515970;stroke-width:1;stroke-linejoin:miter;stroke-miterlimit:4;stroke-dasharray:none;stroke-opacity:1"
     id="rect8103-5-1-0-3-8-6-1-1-2-0-8-7-0-7-2"
     width="24.466187"
     height="40.89695"
     x="582.44373"
     y="278.60303" />
  <path
     style="opacity:1;fill:#515970;fill-opacity:1;stroke:#515970;stroke-width:1;stroke-linejoin:miter;stroke-miterlimit:4;stroke-dasharray:none;stroke-opacity:1"
     d="m 595.39062,267.72656 0,10.87696 11.51954,0 0,40.89648 17.19922,0 0,-51.77344 -28.71876,0 z"
     id="rect8103-5-1-0-3-8-6-1-1-2-0-8-7-0-7-2-3"
     inkscape:connector-curvature="0" />
  <path
     style="opacity:1;fill:#515970;fill-opacity:1;stroke:#515970;stroke-width:1;stroke-linejoin:miter;stroke-miterlimit:4;stroke-dasharray:none;stroke-opacity:1"
     d="m 624.36719,275.04102 0,44.45898 5.27148,0 0,-44.45898 -5.27148,0 z m 33.99023,0 0,44.45898 30.72461,0 0,-44.45898 -30.72461,0 z"
     id="rect8103-5-1-0-3-8-6-1-1-2-0-8-7-0-7-2-3-1"
     inkscape:connector-curvature="0" />
  <rect
     style="opacity:1;fill:#515970;fill-opacity:1;stroke:#515970;stroke-width:1;stroke-linejoin:miter;stroke-miterlimit:4;stroke-dasharray:none;stroke-opacity:1"
     id="rect8103-5-1-0-3-8-6-1-1-2-0-8-7-0-7-2-3-4"
     width="28.718056"
     height="51.772682"
     x="629.63849"
     y="267.72729" />
  <path
     style="opacity:1;fill:#515970;fill-opacity:1;stroke:#515970;stroke-width:1;stroke-linejoin:miter;stroke-miterlimit:4;stroke-dasharray:none;stroke-opacity:1"
     d="m 671.87109,265.57031 0,9.47071 17.21094,0 0,44.45898 19.84961,0 0,-53.92969 -37.06055,0 z"
     id="rect8103-5-1-0-3-8-6-1-1-2-0-8-7-0-7-2-3-2"
     inkscape:connector-curvature="0" />
  <path
     style="opacity:1;fill:#515970;fill-opacity:1;stroke:#515970;stroke-width:1;stroke-linejoin:miter;stroke-miterlimit:4;stroke-dasharray:none;stroke-opacity:1"
     d="m 689.12109,253.96289 0,11.60742 19.81055,0 0,53.92969 23.76172,0 0,-65.53711 -43.57227,0 z"
     id="rect8103-5-1-0-3-8-6-1-1-2-0-8-7-0-7-2-3-2-0"
     inkscape:connector-curvature="0" />
  <rect
     style="opacity:1;fill:#515970;fill-opacity:1;stroke:#515970;stroke-width:1;stroke-linejoin:miter;stroke-miterlimit:4;stroke-dasharray:none;stroke-opacity:1"
     id="rect8103-5-1-0-3-8-6-1-1-2-0-8-7-0-7-2-3-2-0-8"
     width="41.207729"
     height="86.508102"
     x="732.88763"
     y="232.9919" />
  <path
     style="opacity:1;fill:#515970;fill-opacity:1;stroke:#515970;stroke-width:1;stroke-linejoin:miter;stroke-miterlimit:4;stroke-dasharray:none;stroke-opacity:1"
     d="m 712.24219,210.26172 0,43.70117 20.45117,0 0,65.53711 0.19336,0 0,-86.50781 14.47851,0 0,-22.73047 -35.12304,0 z"
     id="rect8103-5-1-0-3-8-6-1-1-2-0-8-7-0-7-2-3-2-0-8-6"
     inkscape:connector-curvature="0" />
  <rect
     style="opacity:1;fill:#515970;fill-opacity:1;stroke:#515970;stroke-width:1;stroke-linejoin:miter;stroke-miterlimit:4;stroke-dasharray:none;stroke-opacity:1"
     id="rect8103-5-1-0-3-8-6-1-1-2-0-8-7-0-7-2-3-2-0-8-66"
     width="16.111971"
     height="89.873383"
     x="784.18066"
     y="229.6266" />
  <rect
     style="opacity:1;fill:#515970;fill-opacity:1;stroke:#515970;stroke-width:1;stroke-linejoin:miter;stroke-miterlimit:4;stroke-dasharray:none;stroke-opacity:1"
     id="rect8103-5-1-0-3-8-6-1-1-2-0-8-7-0-7-2-3-2-0-8-66-6"
     width="10.463161"
     height="51.697659"
     x="773.8233"
     y="267.80231" />
  <text
     xml:space="preserve"
     style="font-style:normal;font-variant:normal;font-weight:normal;font-stretch:normal;font-size:32.5px;line-height:125%;font-family:'Century Gothic';-inkscape-font-specification:'Century Gothic';letter-spacing:0px;word-spacing:0px;fill:#000000;fill-opacity:1;stroke:none;stroke-width:1;stroke-linecap:butt;stroke-linejoin:miter;stroke-opacity:1;stroke-miterlimit:4;stroke-dasharray:none"
     x="319.5"
     y="119.74998"
     id="text9965"
     sodipodi:linespacing="125%"><tspan
       sodipodi:role="line"
       id="tspan9967"
       x="319.5"
       y="119.74998" /></text>
  <text
     xml:space="preserve"
     style="font-style:normal;font-variant:normal;font-weight:normal;font-stretch:normal;font-size:32.5px;line-height:125%;font-family:'Century Gothic';-inkscape-font-specification:'Century Gothic';letter-spacing:0px;word-spacing:0px;fill:#000000;fill-opacity:1;stroke:none;stroke-width:1;stroke-linecap:butt;stroke-linejoin:miter;stroke-opacity:1;stroke-miterlimit:4;stroke-dasharray:none"
     x="326.5"
     y="114.49998"
     id="text9969"
     sodipodi:linespacing="125%"><tspan
       sodipodi:role="line"
       id="tspan9971"
       x="326.5"
       y="114.49998" /></text>
  <text
     xml:space="preserve"
     style="font-style:normal;font-variant:normal;font-weight:normal;font-stretch:normal;font-size:32.5px;line-height:125%;font-family:'Century Schoolbook';-inkscape-font-specification:'Century Schoolbook';letter-spacing:0px;word-spacing:0px;fill:#000000;fill-opacity:1;stroke:none;stroke-width:1;stroke-linecap:butt;stroke-linejoin:miter;stroke-opacity:1;stroke-miterlimit:4;stroke-dasharray:none"
     x="332.25"
     y="189.25"
     id="text9985"
     sodipodi:linespacing="125%"><tspan
       sodipodi:role="line"
       id="tspan9987"
       x="332.25"
       y="189.25" /></text>
  <rect
     style="opacity:1;fill:#515970;fill-opacity:1;fill-rule:nonzero;stroke:#515970;stroke-width:1;stroke-linecap:butt;stroke-linejoin:miter;stroke-miterlimit:4;stroke-dasharray:none;stroke-opacity:1"
     id="rect5615"
     width="10.03556"
     height="29.369757"
     x="163.43683"
     y="290.13025"
     ry="0" />
  <path
     inkscape:connector-curvature="0"
     id="rect8103-5-1-0-3-8-6"
     d="m 269.0886,242.80876 0,13.33593 c 10.72763,2.77662 21.02033,7.1952 30.18165,12.27539 l 0,-25.61132 -30.18165,0 z"
     style="opacity:1;fill:#515970;fill-opacity:1;stroke:#515970;stroke-width:1;stroke-linejoin:miter;stroke-miterlimit:4;stroke-dasharray:none;stroke-opacity:1" />
  <rect
     y="238.59669"
     x="272.7099"
     height="4.1584754"
     width="26.560478"
     id="rect8103-5-1-0-3-3-1-0-8-6"
     style="opacity:0.98999999;fill:#515970;fill-opacity:1;stroke:#515970;stroke-width:1;stroke-linejoin:miter;stroke-miterlimit:4;stroke-dasharray:none;stroke-opacity:1" />
  <path
     inkscape:connector-curvature="0"
     id="rect8103-5-1-0-3-8-6-1-8"
     d="m 333.36009,249.52555 0,30.06641 27.5293,0 0,-30.06641 -27.5293,0 z"
     style="opacity:0.98000004;fill:#515970;fill-opacity:1;stroke:#515970;stroke-width:1;stroke-linejoin:miter;stroke-miterlimit:4;stroke-dasharray:none;stroke-opacity:1" />
  <path
     inkscape:connector-curvature="0"
     id="rect8103-5-1-0-3-8-6-1-1-8"
     d="m 345.48216,231.00792 0,18.01758 15.4082,0 0,70.4745 3.23828,0 0,-27.68739 7.98438,0 0,-60.80469 z"
     style="opacity:0.98000004;fill:#515970;fill-opacity:1;stroke:#515970;stroke-width:1;stroke-linejoin:miter;stroke-miterlimit:4;stroke-dasharray:none;stroke-opacity:1"
     sodipodi:nodetypes="ccccccccc" />
  <path
     inkscape:connector-curvature="0"
     id="rect8103-5-1-0-3-8-6-1-3-6"
     d="m 328.64201,279.09113 0,40.35751 33.17354,0.0506 0,-40.40809 z"
     style="opacity:0.98000004;fill:#515970;fill-opacity:1;stroke:#515970;stroke-width:1;stroke-linejoin:miter;stroke-miterlimit:4;stroke-dasharray:none;stroke-opacity:1"
     sodipodi:nodetypes="ccccc" />
  <rect
     y="224.795"
     x="351.29721"
     height="6.5645952"
     width="15.00124"
     id="rect8103-5-1-0-3-3-1-0-8-0-8"
     style="opacity:0.98000004;fill:#515970;fill-opacity:1;stroke:#515970;stroke-width:1;stroke-linejoin:miter;stroke-miterlimit:4;stroke-dasharray:none;stroke-opacity:1" />
  <rect
     y="272.96664"
     x="336.80161"
     height="6.5645952"
     width="15.00124"
     id="rect8103-5-1-0-3-3-1-0-8-0-0-6"
     style="opacity:0.98000004;fill:#515970;fill-opacity:1;stroke:#515970;stroke-width:1;stroke-linejoin:miter;stroke-miterlimit:4;stroke-dasharray:none;stroke-opacity:1" />
  <path
     inkscape:connector-curvature="0"
     id="rect8103-5-1-0-3-8-6-1-3-9-14"
     d="m 364.12864,291.81261 0,27.68739 33.35742,0 0,-27.68739 z"
     style="opacity:0.98000004;fill:#515970;fill-opacity:1;stroke:#515970;stroke-width:1;stroke-linejoin:miter;stroke-miterlimit:4;stroke-dasharray:none;stroke-opacity:1"
     sodipodi:nodetypes="ccccc" />
  <path
     inkscape:connector-curvature="0"
     id="rect8103-5-1-0-3-8-6-1-3-9-4-9-7-7"
     d="m 442.48606,292.58019 0,21.74609 16.29492,0 0,-21.74609 -16.29492,0 z"
     style="opacity:0.98000004;fill:#515970;fill-opacity:1;stroke:#515970;stroke-width:1;stroke-linejoin:miter;stroke-miterlimit:4;stroke-dasharray:none;stroke-opacity:1" />
  <path
     inkscape:path-effect="#path-effect8212-4-9-17"
     sodipodi:nodetypes="ccccc"
     inkscape:connector-curvature="0"
     inkscape:original-d="m 425.91076,300.11704 11.81661,0 0,-20.20663 -14.06661,-8.35465 z"
     id="path8210-6-0-7"
     d="m 425.91076,300.11704 11.81661,0 0,-20.20663 -14.06661,-8.35465 2.25,28.56128 z"
     style="opacity:0.98000004;fill:#515970;fill-opacity:1;fill-rule:evenodd;stroke:#515970;stroke-width:1;stroke-linecap:butt;stroke-linejoin:miter;stroke-miterlimit:4;stroke-dasharray:none;stroke-opacity:1" />
  <path
     inkscape:connector-curvature="0"
     id="rect8103-5-1-0-3-8-6-1-1-2-9"
     d="m 438.13059,227.12706 0,73.0293 3.78125,0 0,19.8711 16.83008,0 0,-77.84571 15.70703,0 0,-15.05469 z"
     style="opacity:0.98000004;fill:#515970;fill-opacity:1;stroke:#515970;stroke-width:1;stroke-linejoin:miter;stroke-miterlimit:4;stroke-dasharray:none;stroke-opacity:1"
     sodipodi:nodetypes="ccccccccc" />
  <path
     inkscape:connector-curvature="0"
     id="rect8103-5-1-0-3-8-6-1-1-2-0-6"
     d="m 458.73997,242.18175 0,77.77821 30.98633,0 0,-77.77821 z"
     style="opacity:0.98000004;fill:#515970;fill-opacity:1;stroke:#515970;stroke-width:1;stroke-linejoin:miter;stroke-miterlimit:4;stroke-dasharray:none;stroke-opacity:1"
     sodipodi:nodetypes="ccccc" />
  <path
     sodipodi:nodetypes="cccccccccc"
     inkscape:connector-curvature="0"
     id="rect8103-5-1-0-3-8-6-1-1-2-0-8-2"
     d="m 500.90989,239.8966 0,80.10341 18.14649,-2e-5 0,-38.32996 c 9.7016,-10e-4 19.9927,4.1e-4 29.89042,0.003 l -18.96074,-0.0925 0.0329,-9.36066 6.92091,-3e-5 0.0657,-32.32292 z"
     style="opacity:0.98000004;fill:#515970;fill-opacity:1;stroke:#515970;stroke-width:1;stroke-linejoin:miter;stroke-miterlimit:4;stroke-dasharray:none;stroke-opacity:1" />
  <path
     inkscape:connector-curvature="0"
     id="rect8103-5-1-0-3-8-6-1-1-2-0-8-5-1"
     d="m 489.96848,274.93761 0,45.0624 10.60157,0.04 0,-45.10243 z"
     style="opacity:0.98000004;fill:#515970;fill-opacity:1;stroke:#515970;stroke-width:1;stroke-linejoin:miter;stroke-miterlimit:4;stroke-dasharray:none;stroke-opacity:1"
     sodipodi:nodetypes="ccccc" />
  <path
     sodipodi:nodetypes="ccccccc"
     inkscape:connector-curvature="0"
     id="rect8103-5-1-0-3-8-6-1-1-2-0-8-7-2"
     d="m 511.47707,226.19424 0,14.0293 24.89207,0 0,31.93096 18.00667,0.685 -0.002,-46.18524 z"
     style="opacity:0.98000004;fill:#515970;fill-opacity:1;stroke:#515970;stroke-width:1;stroke-linejoin:miter;stroke-miterlimit:4;stroke-dasharray:none;stroke-opacity:1" />
  <path
     inkscape:connector-curvature="0"
     id="rect8103-5-1-0-3-8-6-1-1-2-0-8-7-4-9"
     d="m 541.53003,221.33314 0,4.38668 12.85069,0 0,-4.38668 -12.85069,0 z"
     style="opacity:1;fill:#515970;fill-opacity:1;stroke:#515970;stroke-width:1;stroke-linejoin:miter;stroke-miterlimit:4;stroke-dasharray:none;stroke-opacity:1" />
  <path
     style="opacity:1;fill:#acaba9;fill-opacity:1;stroke:#acaba9;stroke-width:1;stroke-linecap:butt;stroke-linejoin:miter;stroke-miterlimit:4;stroke-dasharray:none;stroke-opacity:1"
     d="m 323.87394,319.94551 0,-34.17926 c -15.71014,-14.28756 -44.79636,-32.49796 -74.50536,-32.50582 -29.709,-0.008 -58.85855,18.3253 -74.56869,32.61287 l 0,34.18119 z"
     id="path8771-2"
     inkscape:connector-curvature="0"
     sodipodi:nodetypes="cczccc" />
  <path
     inkscape:connector-curvature="0"
     id="rect9028-7"
     d="m 393.06614,91.197377 0,20.919923 c 4.0798,-0.0863 8.30172,-0.13657 12.60547,-0.0801 l 0,-20.839843 -12.60547,0 z m 6.74609,24.164063 c -2.22098,0.008 -4.49265,0.0321 -6.74609,0.0488 l 0,0.10351 c 4.10142,-0.0708 8.30496,-0.1138 12.60547,-0.0742 l 0,-0.0723 c -1.93754,-0.006 -3.87234,-0.0128 -5.85938,-0.006 z m 0.0547,3.32422 c -2.23903,0.007 -4.53095,0.0269 -6.80078,0.041 l 0,0.44336 c 2.04631,-0.0802 4.12978,-0.13419 6.25781,-0.13476 2.15893,4e-5 4.27265,0.0547 6.34766,0.13672 l 0,-0.48047 c -1.92647,-0.004 -3.83615,-0.0118 -5.80469,-0.006 z m -6.80078,27.17578 0,0.24023 c 4.15054,0.0157 8.44882,0.0299 12.60547,0.0215 l 0,-0.25977 c -2.04694,0.0803 -4.13106,0.1342 -6.25977,0.13477 -2.15849,-7e-5 -4.27112,-0.0547 -6.3457,-0.13672 z m 0,6.23828 0,140.21289 4.41992,0 0,21.93164 0.14063,0 0,-18.22461 8.04492,0 0,-143.91992 c -4.113,0.001 -8.41328,-0.003 -12.60547,0 z"
     style="opacity:1;fill:#a9a49f;fill-opacity:1;stroke:#a9a49f;stroke-width:1;stroke-linecap:butt;stroke-linejoin:miter;stroke-miterlimit:4;stroke-dasharray:none;stroke-opacity:1" />
  <path
     sodipodi:nodetypes="ccccccccccc"
     inkscape:connector-curvature="0"
     id="path9039-7"
     d="m 405.64427,152.0548 -0.30665,143.96484 3.375,0 0,17.89844 0.0859,0 0,-13.76172 17.20117,0 -3.42968,-41.55273 -11.92551,-106.54883 -5,0 z"
     style="fill:#a9a49f;fill-opacity:1;fill-rule:evenodd;stroke:#a9a49f;stroke-width:1;stroke-linecap:butt;stroke-linejoin:miter;stroke-miterlimit:4;stroke-dasharray:none;stroke-opacity:1" />
  <path
     sodipodi:nodetypes="ccccc"
     inkscape:connector-curvature="0"
     id="path9039-8-4"
     d="m 389.0765,152.14783 -15.71055,140.16483 20.00781,0 -0.29726,-140.25781 z"
     style="fill:#6c696f;fill-opacity:1;fill-rule:evenodd;stroke:#6c696f;stroke-width:1;stroke-linecap:butt;stroke-linejoin:miter;stroke-miterlimit:4;stroke-dasharray:none;stroke-opacity:1" />
  <path
     sodipodi:nodetypes="ccccccc"
     inkscape:connector-curvature="0"
     id="path9073-1"
     d="m 379.83502,146.04604 c -1.67193,7e-5 -3.02728,1.35541 -3.02735,3.02734 7e-5,1.67193 1.35542,3.02728 3.02735,3.02735 13.84617,0.0105 25.98084,-0.0276 39.0664,0 1.67193,-7e-5 3.02728,-1.35542 3.02735,-3.02735 -8e-5,-1.67193 -1.35543,-3.02727 -3.02735,-3.02734 -14.03871,0.1464 -25.05326,0.0773 -39.0664,0 z"
     style="opacity:1;fill:#ffffff;fill-opacity:1;stroke:#ffffff;stroke-width:1;stroke-linecap:butt;stroke-linejoin:miter;stroke-miterlimit:4;stroke-dasharray:none;stroke-opacity:1" />
  <path
     sodipodi:nodetypes="ccccccc"
     inkscape:connector-curvature="0"
     id="path9073-3-2"
     d="m 381.06266,115.77457 c -1.56684,4e-5 -2.837,0.67727 -2.83708,1.5127 9e-5,0.83542 1.27025,1.51265 2.83708,1.51269 12.51249,-0.0766 25.42502,-0.22798 36.6111,0 1.56684,-3e-5 2.83701,-0.67726 2.83709,-1.51269 -7e-5,-0.83543 -1.27024,-1.51267 -2.83709,-1.5127 -12.61922,-0.64784 -25.81692,-0.27811 -36.6111,0 z"
     style="opacity:1;fill:#a3accb;fill-opacity:1;stroke:#a3accb;stroke-width:1;stroke-linecap:butt;stroke-linejoin:miter;stroke-miterlimit:4;stroke-dasharray:none;stroke-opacity:1" />
  <path
     sodipodi:nodetypes="cccccccccccccc"
     inkscape:connector-curvature="0"
     id="rect9094-4-6-7-2"
     d="m 399.32237,119.036 c -11.12048,0.003 -21.46832,1.1305 -27.45763,2.99203 0.0103,6.78844 0.0911,14.18505 0.0867,20.2619 l 0.004,0 0,0.72784 c 6.00352,1.85673 16.34791,2.97941 27.45573,2.97976 11.12049,-0.003 21.46834,-1.1305 27.45764,-2.99204 l 0,-0.71556 0.004,0 0,-20.1585 -0.0924,0 0,-0.11574 c -6.00389,-1.85685 -16.34916,-2.97954 -27.45766,-2.97976 z"
     style="opacity:1;fill:#0a1125;fill-opacity:1;stroke:#0a1125;stroke-width:1;stroke-linecap:butt;stroke-linejoin:miter;stroke-miterlimit:4;stroke-dasharray:none;stroke-opacity:1" />
  <path
     inkscape:connector-curvature="0"
     d="m 399.36724,126.97362 a 32.232203,9.0360805 0 0 0 -27.37755,4.28858 l 0,3.35901 0,3.71053 0,0.0898 a 32.232203,9.0360805 0 0 1 27.37755,-4.28859 32.232203,9.0360805 0 0 1 27.3795,4.27882 l 0,-0.0898 0,-3.71053 0,-3.359 a 32.232203,9.0360805 0 0 0 -27.3795,-4.27882 z m 0,-3.47676 a 32.232203,9.0360805 0 0 0 -27.37755,4.28858 l 0,3.35901 0,3.71053 0,0.0898 a 32.232203,9.0360805 0 0 1 27.37755,-4.28859 32.232203,9.0360805 0 0 1 27.3795,4.27882 l 0,-0.0898 0,-3.71053 0,-3.359 a 32.232203,9.0360805 0 0 0 -27.3795,-4.27882 z"
     style="opacity:1;fill:#758199;fill-opacity:1;stroke:#758199;stroke-width:1;stroke-linecap:butt;stroke-linejoin:miter;stroke-miterlimit:4;stroke-dasharray:none;stroke-opacity:1"
     id="path9111-5-2-1-5-4-0-7" />
  <path
     sodipodi:nodetypes="ccccccc"
     inkscape:connector-curvature="0"
     d="m 399.36724,126.97362 c -11.15859,0.005 -21.5149,1.62689 -27.37755,4.28858 l 0,3.35901 c 5.86637,-2.18115 18.03913,-3.43014 27.57492,-3.25806 10.38778,0.18747 20.86515,0.94666 27.18213,3.24829 l 0,-3.359 c -5.87144,-2.65812 -16.22711,-4.27649 -27.3795,-4.27882 z"
     style="opacity:1;fill:#000000;fill-opacity:1;stroke:#000000;stroke-width:1;stroke-linecap:butt;stroke-linejoin:miter;stroke-miterlimit:4;stroke-dasharray:none;stroke-opacity:1"
     id="path9111-5-2-1-5-4-0-86" />
  <rect
     y="73.668129"
     x="394.73312"
     height="17.755434"
     width="9.270153"
     id="rect9576-1"
     style="opacity:1;fill:#ffffff;fill-opacity:1;stroke:#ffffff;stroke-width:1;stroke-linecap:butt;stroke-linejoin:miter;stroke-miterlimit:4;stroke-dasharray:none;stroke-opacity:1" />
  <rect
     y="91.19677"
     x="393.08148"
     height="5.8559337"
     width="12.573449"
     id="rect9576-4-7"
     style="opacity:1;fill:#a9a49f;fill-opacity:1;stroke:#a9a49f;stroke-width:1;stroke-linecap:butt;stroke-linejoin:miter;stroke-miterlimit:4;stroke-dasharray:none;stroke-opacity:1" />
  <rect
     y="61.776497"
     x="396.32074"
     height="12.282132"
     width="6.0949478"
     id="rect9576-6-7"
     style="opacity:1;fill:#ffffff;fill-opacity:1;stroke:#ffffff;stroke-width:1;stroke-linecap:butt;stroke-linejoin:miter;stroke-miterlimit:4;stroke-dasharray:none;stroke-opacity:1" />
  <rect
     y="48.938255"
     x="397.94437"
     height="12.923937"
     width="2.847667"
     id="rect9576-6-1-3"
     style="opacity:1;fill:#ffffff;fill-opacity:1;stroke:#ffffff;stroke-width:1;stroke-linecap:butt;stroke-linejoin:miter;stroke-miterlimit:4;stroke-dasharray:none;stroke-opacity:1" />
  <rect
     y="36.164986"
     x="397.9444"
     height="12.925056"
     width="2.8479135"
     id="rect9576-6-1-8-8"
     style="opacity:1;fill:#ffffff;fill-opacity:1;stroke:#ffffff;stroke-width:1;stroke-linecap:butt;stroke-linejoin:miter;stroke-miterlimit:4;stroke-dasharray:none;stroke-opacity:1" />
  <rect
     y="28.06522"
     x="398.79099"
     height="7.1648431"
     width="1.1544377"
     id="rect9576-6-1-8-0-3"
     style="opacity:1;fill:#000000;fill-opacity:1;stroke:#000000;stroke-width:1;stroke-linecap:butt;stroke-linejoin:miter;stroke-miterlimit:4;stroke-dasharray:none;stroke-opacity:1" />
  <path
     sodipodi:nodetypes="ccccccc"
     inkscape:connector-curvature="0"
     id="path9073-3-1-5"
     d="m 383.0805,111.7236 c -1.39412,4e-5 -2.52427,0.69504 -2.52435,1.5524 9e-5,0.85734 1.13024,1.55235 2.52435,1.55239 11.13322,-0.0786 22.62239,-0.23397 32.57542,0 1.39412,-3e-5 2.52428,-0.69504 2.52436,-1.55239 -7e-5,-0.85736 -1.13023,-1.55237 -2.52436,-1.5524 -11.22819,-0.66484 -22.97109,-0.28541 -32.57542,0 z"
     style="opacity:1;fill:#6f82ae;fill-opacity:1;stroke:#6f82ae;stroke-width:1;stroke-linecap:butt;stroke-linejoin:miter;stroke-miterlimit:4;stroke-dasharray:none;stroke-opacity:1" />
  <path
     inkscape:connector-curvature="0"
     id="rect5615-4-3"
     d="m 325.05433,288.14232 0,31.34888 2.89949,-0.0506 0,-31.2983 z"
     style="opacity:0.98000004;fill:#515970;fill-opacity:1;fill-rule:nonzero;stroke:#515970;stroke-width:1;stroke-linecap:butt;stroke-linejoin:miter;stroke-miterlimit:4;stroke-dasharray:none;stroke-opacity:1"
     sodipodi:nodetypes="ccccc" />
  <path
     sodipodi:nodetypes="ccccc"
     inkscape:connector-curvature="0"
     id="rect8103-5-1-0-3-8-6-1-1-2-0-8-7-4-1-1"
     d="m 530.12247,272.22856 -0.0329,9.40791 18.72545,0.1315 0.0986,-9.53941 z"
     style="opacity:0.98000004;fill:#515970;fill-opacity:1;stroke:#515970;stroke-width:1;stroke-linejoin:miter;stroke-miterlimit:4;stroke-dasharray:none;stroke-opacity:1" />
  <path
     sodipodi:nodetypes="ccccc"
     inkscape:connector-curvature="0"
     id="rect8103-5-1-0-3-8-6-1-1-2-0-8-7-4-1-2"
     d="m 519.10951,281.68573 0,38.35428 29.77099,0 0,-38.35433 z"
     style="opacity:0.98000004;fill:#515970;fill-opacity:1;stroke:#515970;stroke-width:1;stroke-linejoin:miter;stroke-miterlimit:4;stroke-dasharray:none;stroke-opacity:1" />
  <path
     inkscape:connector-curvature="0"
     id="rect8103-5-1-0-3-8-6-8"
     d="m 201.99441,254.67945 0,15.46875 c -8.71783,3.22068 -17.08219,8.34594 -24.52715,14.2386 l 0,-29.70735 24.52715,0 z"
     style="opacity:1;fill:#515970;fill-opacity:1;stroke:#515970;stroke-width:1;stroke-linejoin:miter;stroke-miterlimit:4;stroke-dasharray:none;stroke-opacity:1" />
  <path
     style="opacity:1;fill:#ffffff;fill-opacity:1;stroke:#ffffff;stroke-width:1;stroke-linecap:butt;stroke-linejoin:miter;stroke-miterlimit:4;stroke-dasharray:none;stroke-opacity:1"
     d="m 174.71528,285.75916 0.0781,1.86521 3.67651,0.0547 c 15.00552,-13.66522 42.51862,-31.77677 70.6139,-31.77569 28.09528,0.001 56.00536,18.00349 71.01088,31.66871 l 3.67846,-0.0547 0.0782,-1.86717 c -17.16971,-15.19222 -46.04775,-32.45474 -74.71046,-32.4122 -28.66271,0.0425 -57.25583,17.32891 -74.42559,32.52114 z"
     id="path5268"
     inkscape:connector-curvature="0"
     sodipodi:nodetypes="ccczccczc" />
  <path
     inkscape:connector-curvature="0"
     id="rect8103-5-1-0-3-8-6-1-3-9-6"
     d="m 408.67169,300.15701 0,19.87789 32.8201,0 0,-19.87789 z"
     style="opacity:0.98000004;fill:#515970;fill-opacity:1;stroke:#515970;stroke-width:1;stroke-linejoin:miter;stroke-miterlimit:4;stroke-dasharray:none;stroke-opacity:1"
     sodipodi:nodetypes="ccccc" />
  <path
     inkscape:connector-curvature="0"
     id="rect8103-5-1-0-3-8-6-1-3-9-6-1"
     d="m 397.18744,295.90771 0,24.05739 11.44834,0 0,-24.05739 z"
     style="opacity:0.98000004;fill:#515970;fill-opacity:1;stroke:#515970;stroke-width:1;stroke-linejoin:miter;stroke-miterlimit:4;stroke-dasharray:none;stroke-opacity:1"
     sodipodi:nodetypes="ccccc" />
  <rect
     transform="matrix(0,1,-1,0,0,0)"
     y="-400.82339"
     x="50.16317"
     height="2.8692136"
     width="0.7470696"
     id="rect9576-6-1-8-0-9"
     style="opacity:1;fill:#000000;fill-opacity:1;stroke:#000000;stroke-width:1;stroke-linecap:butt;stroke-linejoin:miter;stroke-miterlimit:4;stroke-dasharray:none;stroke-opacity:1" />
  <rect
     transform="matrix(0,1,-1,0,0,0)"
     y="-400.80289"
     x="60.04567"
     height="2.8692136"
     width="0.7470696"
     id="rect9576-6-1-8-0-9-3"
     style="opacity:1;fill:#000000;fill-opacity:1;stroke:#000000;stroke-width:1;stroke-linecap:butt;stroke-linejoin:miter;stroke-miterlimit:4;stroke-dasharray:none;stroke-opacity:1" />
  <rect
     transform="matrix(0,1,-1,0,0,0)"
     y="-402.34845"
     x="71.024109"
     height="5.9670725"
     width="1.5536726"
     id="rect9576-6-1-8-0-9-9"
     style="opacity:1;fill:#000000;fill-opacity:1;stroke:#000000;stroke-width:1;stroke-linecap:butt;stroke-linejoin:miter;stroke-miterlimit:4;stroke-dasharray:none;stroke-opacity:1" />
  <path
     sodipodi:nodetypes="ccccccc"
     inkscape:connector-curvature="0"
     id="path9073-3-1-0"
     d="m 390.4154,104.53984 c -0.7663,1e-4 -1.38749,1.53054 -1.38754,3.41849 6e-5,1.88796 0.62124,3.4184 1.38754,3.41847 6.11956,-0.17293 12.43475,-0.5152 17.90559,0 0.76632,-5e-5 1.3875,-1.53049 1.38755,-3.41847 -4e-5,-1.88795 -0.62123,-3.41842 -1.38755,-3.41849 -6.17175,-1.46403 -12.62641,-0.6285 -17.90559,0 z"
     style="opacity:1;fill:#6f82ae;fill-opacity:1;stroke:#6f82ae;stroke-width:1;stroke-linecap:butt;stroke-linejoin:miter;stroke-miterlimit:4;stroke-dasharray:none;stroke-opacity:1" />
  <path
     style="opacity:1;fill:#ffffff;fill-opacity:1;stroke:#ffffff;stroke-width:1;stroke-linecap:butt;stroke-linejoin:miter;stroke-miterlimit:4;stroke-dasharray:none;stroke-opacity:1"
     d="m 309.984,320 3.8e-4,-28.30273 c -12.81271,-11.67393 -36.24918,-26.99762 -60.5965,-27.03207 -24.34733,-0.0345 -47.88377,15.38934 -60.69647,27.06327 L 188.691,320 Z"
     id="path8771-2-7"
     inkscape:connector-curvature="0"
     sodipodi:nodetypes="cczccc" />
  <path
     style="opacity:1;fill:#acaba9;fill-opacity:1;stroke:#acaba9;stroke-width:1;stroke-linejoin:miter;stroke-miterlimit:4;stroke-dasharray:none;stroke-opacity:1"
     d="m 176.21512,292.41001 0,27.63384 146.25726,-0.0877 0,-27.6571 z"
     id="rect8103-5-1-0-3-8-6-1-3-9-1"
     inkscape:connector-curvature="0"
     sodipodi:nodetypes="ccccc" />
</svg>
