<?xml version="1.0" encoding="UTF-8" standalone="no"?>
<!-- Created with Inkscape (http://www.inkscape.org/) -->

<svg
   xmlns:dc="http://purl.org/dc/elements/1.1/"
   xmlns:cc="http://creativecommons.org/ns#"
   xmlns:rdf="http://www.w3.org/1999/02/22-rdf-syntax-ns#"
   xmlns:svg="http://www.w3.org/2000/svg"
   xmlns="http://www.w3.org/2000/svg"
   xmlns:sodipodi="http://sodipodi.sourceforge.net/DTD/sodipodi-0.dtd"
   xmlns:inkscape="http://www.inkscape.org/namespaces/inkscape"
   id="svg3336"
   version="1.1"
   inkscape:version="0.91 r13725"
   width="800"
   height="320"
   viewBox="0 0 800 320"
   sodipodi:docname="logo-skyline-outline-star.svg">
  <metadata
     id="metadata3342">
    <rdf:RDF>
      <cc:Work
         rdf:about="">
        <dc:format>image/svg+xml</dc:format>
        <dc:type
           rdf:resource="http://purl.org/dc/dcmitype/StillImage" />
        <dc:title></dc:title>
      </cc:Work>
    </rdf:RDF>
  </metadata>
  <defs
     id="defs3340">
    <inkscape:path-effect
       effect="spiro"
       id="path-effect8765"
       is_visible="true" />
    <inkscape:path-effect
       effect="spiro"
       id="path-effect8212"
       is_visible="true" />
    <inkscape:path-effect
       effect="spiro"
       id="path-effect8208"
       is_visible="true" />
    <inkscape:path-effect
       effect="spiro"
       id="path-effect8203"
       is_visible="true" />
    <inkscape:path-effect
       effect="spiro"
       id="path-effect8212-4"
       is_visible="true" />
    <inkscape:path-effect
       effect="spiro"
       id="path-effect8212-4-9"
       is_visible="true" />
    <inkscape:path-effect
       effect="spiro"
       id="path-effect8212-4-9-0"
       is_visible="true" />
    <inkscape:path-effect
       effect="spiro"
       id="path-effect8212-4-9-17"
       is_visible="true" />
  </defs>
  <sodipodi:namedview
     pagecolor="#ffffff"
     bordercolor="#666666"
     borderopacity="1"
     objecttolerance="10"
     gridtolerance="10"
     guidetolerance="10"
     inkscape:pageopacity="0"
     inkscape:pageshadow="2"
     inkscape:window-width="1366"
     inkscape:window-height="745"
     id="namedview3338"
     showgrid="false"
     inkscape:zoom="1.0804367"
     inkscape:cx="401.4777"
     inkscape:cy="190.84955"
     inkscape:window-x="-8"
     inkscape:window-y="-8"
     inkscape:window-maximized="1"
     inkscape:current-layer="svg3336"
     inkscape:snap-grids="true"
     inkscape:snap-to-guides="true"
     showguides="true">
    <inkscape:grid
       type="xygrid"
       id="grid8093" />
  </sodipodi:namedview>
  <path
     style="opacity:1;fill:none;fill-opacity:1;fill-rule:evenodd;stroke:#515970;stroke-width:1.00309491;stroke-linecap:butt;stroke-linejoin:miter;stroke-miterlimit:4;stroke-dasharray:none;stroke-opacity:1"
     d="M 0.51761801,0.50154748 C 0.52604285,66.342339 0.51435227,133.33016 0.50665472,196.79443 c -0.005369,42.96915 -0.006351,84.34531 -0.003666,122.70402 l 798.99546128,0 c 0,-96.40952 -0.015,-215.93358 -0.0175,-318.99690252 l -798.96437822,0 z"
     id="path4381-9-3"
     inkscape:connector-curvature="0" />
  <rect
     style="opacity:1;fill:none;fill-opacity:1;stroke:#515970;stroke-width:1;stroke-linejoin:miter;stroke-miterlimit:4;stroke-dasharray:none;stroke-opacity:1"
     id="rect8103"
     width="25.5"
     height="62.5"
     x="0"
     y="257" />
  <rect
     style="opacity:1;fill:none;fill-opacity:1;stroke:#515970;stroke-width:1;stroke-linejoin:miter;stroke-miterlimit:4;stroke-dasharray:none;stroke-opacity:1"
     id="rect8103-5"
     width="37.41272"
     height="92.067055"
     x="25.966475"
     y="227.43292" />
  <rect
     style="opacity:1;fill:none;fill-opacity:1;stroke:#515970;stroke-width:1;stroke-linejoin:miter;stroke-miterlimit:4;stroke-dasharray:none;stroke-opacity:1"
     id="rect8103-5-1"
     width="43.566372"
     height="67.220703"
     x="63.466816"
     y="252.2793" />
  <rect
     style="opacity:1;fill:none;fill-opacity:1;stroke:#515970;stroke-width:1;stroke-linejoin:miter;stroke-miterlimit:4;stroke-dasharray:none;stroke-opacity:1"
     id="rect8103-5-1-0"
     width="31.314262"
     height="93.718605"
     x="107.71787"
     y="225.78137" />
  <rect
     style="opacity:1;fill:none;fill-opacity:1;stroke:#515970;stroke-width:1;stroke-linejoin:miter;stroke-miterlimit:4;stroke-dasharray:none;stroke-opacity:1"
     id="rect8103-5-1-0-3"
     width="23.870962"
     height="64.025307"
     x="139.31453"
     y="255.47467" />
  <rect
     style="opacity:1;fill:none;fill-opacity:1;stroke:#515970;stroke-width:1;stroke-linejoin:miter;stroke-miterlimit:4;stroke-dasharray:none;stroke-opacity:1"
     id="rect8103-5-1-0-3-3"
     width="14.676993"
     height="7.8313389"
     x="67.286484"
     y="244.27179" />
  <rect
     style="opacity:1;fill:none;fill-opacity:1;stroke:#515970;stroke-width:1;stroke-linejoin:miter;stroke-miterlimit:4;stroke-dasharray:none;stroke-opacity:1"
     id="rect8103-5-1-0-3-3-1"
     width="14.676993"
     height="7.8313389"
     x="86.911507"
     y="244.27179" />
  <path
     style="fill:none;fill-opacity:1;fill-rule:evenodd;stroke:#515970;stroke-width:1;stroke-linecap:butt;stroke-linejoin:miter;stroke-miterlimit:4;stroke-dasharray:none;stroke-opacity:1"
     d="m 31.819805,227.31086 0,-7.6014 18.384777,0 7.601397,7.6014 -25.986174,0 z"
     id="path8210"
     inkscape:path-effect="#path-effect8212"
     inkscape:original-d="m 31.819805,227.31086 0,-7.6014 18.384777,0 7.601397,7.6014 z"
     inkscape:connector-curvature="0" />
  <path
     style="fill:none;fill-opacity:1;fill-rule:evenodd;stroke:#515970;stroke-width:1;stroke-linecap:butt;stroke-linejoin:miter;stroke-miterlimit:4;stroke-dasharray:none;stroke-opacity:1"
     d="m 110.02037,225.78908 0,-7.71082 16.75525,0 6.92765,7.71082 -23.6829,0 z"
     id="path8210-6"
     inkscape:path-effect="#path-effect8212-4"
     inkscape:original-d="m 110.02037,225.78908 0,-7.71082 16.75525,0 6.92765,7.71082 z"
     inkscape:connector-curvature="0" />
  <rect
     style="opacity:1;fill:none;fill-opacity:1;stroke:#515970;stroke-width:1;stroke-linejoin:miter;stroke-miterlimit:4;stroke-dasharray:none;stroke-opacity:1"
     id="rect8103-5-1-0-3-3-1-0"
     width="14.676993"
     height="7.8313389"
     x="139.03261"
     y="247.61359" />
  <rect
     style="opacity:1;fill:none;fill-opacity:1;stroke:#515970;stroke-width:1;stroke-linejoin:miter;stroke-miterlimit:4;stroke-dasharray:none;stroke-opacity:1"
     id="rect8103-5-1-0-3-8-6-1-1-2-0-8-7-0"
     width="50.579647"
     height="37.798344"
     x="519.07214"
     y="281.70166" />
  <rect
     style="opacity:1;fill:none;fill-opacity:1;stroke:#515970;stroke-width:1;stroke-linejoin:miter;stroke-miterlimit:4;stroke-dasharray:none;stroke-opacity:1"
     id="rect8103-5-1-0-3-8-6-1-1-2-0-8-7-4-1"
     width="28.546894"
     height="9.2940578"
     x="530.00085"
     y="272.16895" />
  <rect
     style="opacity:1;fill:none;fill-opacity:1;stroke:#515970;stroke-width:1;stroke-linejoin:miter;stroke-miterlimit:4;stroke-dasharray:none;stroke-opacity:1"
     id="rect8103-5-1-0-3-8-6-1-1-2-0-8-7-0-7"
     width="12.504579"
     height="31.30246"
     x="569.63232"
     y="288.19751" />
  <rect
     style="opacity:1;fill:none;fill-opacity:1;stroke:#515970;stroke-width:1;stroke-linejoin:miter;stroke-miterlimit:4;stroke-dasharray:none;stroke-opacity:1"
     id="rect8103-5-1-0-3-8-6-1-1-2-0-8-7-0-7-2"
     width="24.466187"
     height="40.89695"
     x="582.44373"
     y="278.60303" />
  <path
     style="opacity:1;fill:none;fill-opacity:1;stroke:#515970;stroke-width:1;stroke-linejoin:miter;stroke-miterlimit:4;stroke-dasharray:none;stroke-opacity:1"
     d="m 595.39062,267.72656 0,10.87696 11.51954,0 0,40.89648 17.19922,0 0,-51.77344 -28.71876,0 z"
     id="rect8103-5-1-0-3-8-6-1-1-2-0-8-7-0-7-2-3"
     inkscape:connector-curvature="0" />
  <path
     style="opacity:1;fill:none;fill-opacity:1;stroke:#515970;stroke-width:1;stroke-linejoin:miter;stroke-miterlimit:4;stroke-dasharray:none;stroke-opacity:1"
     d="m 624.36719,275.04102 0,44.45898 5.27148,0 0,-44.45898 -5.27148,0 z m 33.99023,0 0,44.45898 30.72461,0 0,-44.45898 -30.72461,0 z"
     id="rect8103-5-1-0-3-8-6-1-1-2-0-8-7-0-7-2-3-1"
     inkscape:connector-curvature="0" />
  <rect
     style="opacity:1;fill:none;fill-opacity:1;stroke:#515970;stroke-width:1;stroke-linejoin:miter;stroke-miterlimit:4;stroke-dasharray:none;stroke-opacity:1"
     id="rect8103-5-1-0-3-8-6-1-1-2-0-8-7-0-7-2-3-4"
     width="28.718056"
     height="51.772682"
     x="629.63849"
     y="267.72729" />
  <path
     style="opacity:1;fill:none;fill-opacity:1;stroke:#515970;stroke-width:1;stroke-linejoin:miter;stroke-miterlimit:4;stroke-dasharray:none;stroke-opacity:1"
     d="m 671.87109,265.57031 0,9.47071 17.21094,0 0,44.45898 19.84961,0 0,-53.92969 -37.06055,0 z"
     id="rect8103-5-1-0-3-8-6-1-1-2-0-8-7-0-7-2-3-2"
     inkscape:connector-curvature="0" />
  <path
     style="opacity:1;fill:none;fill-opacity:1;stroke:#515970;stroke-width:1;stroke-linejoin:miter;stroke-miterlimit:4;stroke-dasharray:none;stroke-opacity:1"
     d="m 689.12109,253.96289 0,11.60742 19.81055,0 0,53.92969 23.76172,0 0,-65.53711 -43.57227,0 z"
     id="rect8103-5-1-0-3-8-6-1-1-2-0-8-7-0-7-2-3-2-0"
     inkscape:connector-curvature="0" />
  <rect
     style="opacity:1;fill:none;fill-opacity:1;stroke:#515970;stroke-width:1;stroke-linejoin:miter;stroke-miterlimit:4;stroke-dasharray:none;stroke-opacity:1"
     id="rect8103-5-1-0-3-8-6-1-1-2-0-8-7-0-7-2-3-2-0-8"
     width="41.207729"
     height="86.508102"
     x="732.88763"
     y="232.9919" />
  <path
     style="opacity:1;fill:none;fill-opacity:1;stroke:#515970;stroke-width:1;stroke-linejoin:miter;stroke-miterlimit:4;stroke-dasharray:none;stroke-opacity:1"
     d="m 712.24219,210.26172 0,43.70117 20.45117,0 0,65.53711 0.19336,0 0,-86.50781 14.47851,0 0,-22.73047 -35.12304,0 z"
     id="rect8103-5-1-0-3-8-6-1-1-2-0-8-7-0-7-2-3-2-0-8-6"
     inkscape:connector-curvature="0" />
  <rect
     style="opacity:1;fill:none;fill-opacity:1;stroke:#515970;stroke-width:1;stroke-linejoin:miter;stroke-miterlimit:4;stroke-dasharray:none;stroke-opacity:1"
     id="rect8103-5-1-0-3-8-6-1-1-2-0-8-7-0-7-2-3-2-0-8-66"
     width="15.421544"
     height="89.735298"
     x="784.18066"
     y="229.6266" />
  <rect
     style="opacity:1;fill:none;fill-opacity:1;stroke:#515970;stroke-width:1;stroke-linejoin:miter;stroke-miterlimit:4;stroke-dasharray:none;stroke-opacity:1"
     id="rect8103-5-1-0-3-8-6-1-1-2-0-8-7-0-7-2-3-2-0-8-66-6"
     width="10.186979"
     height="51.283401"
     x="773.96136"
     y="267.80231" />
  <text
     xml:space="preserve"
     style="font-style:normal;font-variant:normal;font-weight:normal;font-stretch:normal;font-size:32.5px;line-height:125%;font-family:'Century Gothic';-inkscape-font-specification:'Century Gothic';letter-spacing:0px;word-spacing:0px;fill:none;fill-opacity:1;stroke:#515970;stroke-width:1;stroke-linecap:butt;stroke-linejoin:miter;stroke-opacity:1;stroke-miterlimit:4;stroke-dasharray:none;"
     x="319.5"
     y="119.74998"
     id="text9965"
     sodipodi:linespacing="125%"><tspan
       sodipodi:role="line"
       id="tspan9967"
       x="319.5"
       y="119.74998" /></text>
  <text
     xml:space="preserve"
     style="font-style:normal;font-variant:normal;font-weight:normal;font-stretch:normal;font-size:32.5px;line-height:125%;font-family:'Century Gothic';-inkscape-font-specification:'Century Gothic';letter-spacing:0px;word-spacing:0px;fill:none;fill-opacity:1;stroke:#515970;stroke-width:1;stroke-linecap:butt;stroke-linejoin:miter;stroke-opacity:1;stroke-miterlimit:4;stroke-dasharray:none;"
     x="326.5"
     y="114.49998"
     id="text9969"
     sodipodi:linespacing="125%"><tspan
       sodipodi:role="line"
       id="tspan9971"
       x="326.5"
       y="114.49998" /></text>
  <text
     xml:space="preserve"
     style="font-style:normal;font-variant:normal;font-weight:normal;font-stretch:normal;font-size:32.5px;line-height:125%;font-family:'Century Schoolbook';-inkscape-font-specification:'Century Schoolbook';letter-spacing:0px;word-spacing:0px;fill:none;fill-opacity:1;stroke:#515970;stroke-width:1;stroke-linecap:butt;stroke-linejoin:miter;stroke-opacity:1;stroke-miterlimit:4;stroke-dasharray:none;"
     x="332.25"
     y="189.25"
     id="text9985"
     sodipodi:linespacing="125%"><tspan
       sodipodi:role="line"
       id="tspan9987"
       x="332.25"
       y="189.25" /></text>
  <rect
     style="opacity:1;fill:none;fill-opacity:1;fill-rule:nonzero;stroke:#515970;stroke-width:1;stroke-linecap:butt;stroke-linejoin:miter;stroke-miterlimit:4;stroke-dasharray:none;stroke-opacity:1"
     id="rect5615"
     width="10.03556"
     height="29.369757"
     x="163.43683"
     y="290.13025"
     ry="0" />
  <path
     inkscape:connector-curvature="0"
     id="rect8103-5-1-0-3-8-6"
     d="m 269.0886,242.80876 0,12.95227 c 10.72763,2.77662 21.02033,7.1952 30.18165,12.27539 l 0,-25.22766 z"
     style="opacity:1;fill:none;fill-opacity:1;stroke:#515970;stroke-width:1;stroke-linejoin:miter;stroke-miterlimit:4;stroke-dasharray:none;stroke-opacity:1"
     sodipodi:nodetypes="ccccc" />
  <rect
     y="238.59669"
     x="272.7099"
     height="4.1584754"
     width="26.560478"
     id="rect8103-5-1-0-3-3-1-0-8-6"
     style="opacity:0.98999999;fill:none;fill-opacity:1;stroke:#515970;stroke-width:1;stroke-linejoin:miter;stroke-miterlimit:4;stroke-dasharray:none;stroke-opacity:1" />
  <path
     inkscape:connector-curvature="0"
     id="rect8103-5-1-0-3-8-6-1-8"
     d="m 333.36009,249.52555 0,29.57313 27.5293,0 0,-29.57313 z"
     style="opacity:0.98000004;fill:none;fill-opacity:1;stroke:#515970;stroke-width:1;stroke-linejoin:miter;stroke-miterlimit:4;stroke-dasharray:none;stroke-opacity:1"
     sodipodi:nodetypes="ccccc" />
  <path
     inkscape:connector-curvature="0"
     id="rect8103-5-1-0-3-8-6-1-1-8"
     d="m 345.48216,231.00792 0,18.55395 15.4082,0 0,29.4456 0.96547,-0.001 -0.0536,40.49369 2.32645,0 0,-27.68739 7.98438,0 0,-60.80469 z"
     style="opacity:0.98000004;fill:none;fill-opacity:1;stroke:#515970;stroke-width:1;stroke-linejoin:miter;stroke-miterlimit:4;stroke-dasharray:none;stroke-opacity:1"
     sodipodi:nodetypes="ccccccccccc" />
  <path
     inkscape:connector-curvature="0"
     id="rect8103-5-1-0-3-8-6-1-3-6"
     d="m 328.64201,279.09113 0,40.35751 33.17354,0.0506 0,-40.40809 z"
     style="opacity:0.98000004;fill:none;fill-opacity:1;stroke:#515970;stroke-width:1;stroke-linejoin:miter;stroke-miterlimit:4;stroke-dasharray:none;stroke-opacity:1"
     sodipodi:nodetypes="ccccc" />
  <rect
     y="224.795"
     x="351.29721"
     height="6.1261282"
     width="15.00124"
     id="rect8103-5-1-0-3-3-1-0-8-0-8"
     style="opacity:0.98000004;fill:none;fill-opacity:1;stroke:#515970;stroke-width:1;stroke-linejoin:miter;stroke-miterlimit:4;stroke-dasharray:none;stroke-opacity:1" />
  <rect
     y="272.96664"
     x="336.80161"
     height="6.0713201"
     width="15.00124"
     id="rect8103-5-1-0-3-3-1-0-8-0-0-6"
     style="opacity:0.98000004;fill:none;fill-opacity:1;stroke:#515970;stroke-width:1;stroke-linejoin:miter;stroke-miterlimit:4;stroke-dasharray:none;stroke-opacity:1" />
  <path
     inkscape:connector-curvature="0"
     id="rect8103-5-1-0-3-8-6-1-3-9-14"
     d="m 364.12864,291.81261 0,27.68739 33.35742,0 0,-27.68739 z"
     style="opacity:0.98000004;fill:none;fill-opacity:1;stroke:#515970;stroke-width:1;stroke-linejoin:miter;stroke-miterlimit:4;stroke-dasharray:none;stroke-opacity:1"
     sodipodi:nodetypes="ccccc" />
  <path
     inkscape:connector-curvature="0"
     id="rect8103-5-1-0-3-8-6-1-3-9-4-9-7-7"
     d="m 441.912,292.58019 0,27.26635 16.86898,-0.23025 0,-27.03605 z"
     style="opacity:0.98000004;fill:none;fill-opacity:1;stroke:#515970;stroke-width:1;stroke-linejoin:miter;stroke-miterlimit:4;stroke-dasharray:none;stroke-opacity:1"
     sodipodi:nodetypes="ccccc" />
  <path
     inkscape:path-effect="#path-effect8212-4-9-17"
     sodipodi:nodetypes="ccccc"
     inkscape:connector-curvature="0"
     inkscape:original-d="m 425.91076,300.11704 12.16199,0 0,-20.20663 -14.41199,-8.35465 z"
     id="path8210-6-0-7"
     d="m 425.91076,300.11704 12.16199,0 0,-20.20663 -14.41199,-8.35465 2.25,28.56128 z"
     style="opacity:0.98000004;fill:none;fill-opacity:1;fill-rule:evenodd;stroke:#515970;stroke-width:1;stroke-linecap:butt;stroke-linejoin:miter;stroke-miterlimit:4;stroke-dasharray:none;stroke-opacity:1" />
  <path
     inkscape:connector-curvature="0"
     id="rect8103-5-1-0-3-8-6-1-1-2-9"
     d="m 438.13059,227.12706 0,73.0293 3.78141,0 -1.6e-4,19.8711 16.83008,0 0,-77.84571 15.70703,0 0,-15.05469 z"
     style="opacity:0.98000004;fill:none;fill-opacity:1;stroke:#515970;stroke-width:1;stroke-linejoin:miter;stroke-miterlimit:4;stroke-dasharray:none;stroke-opacity:1"
     sodipodi:nodetypes="ccccccccc" />
  <path
     inkscape:connector-curvature="0"
     id="rect8103-5-1-0-3-8-6-1-1-2-0-6"
     d="m 458.73997,242.18175 0,77.77821 30.98633,0 0,-77.77821 z"
     style="opacity:0.98000004;fill:none;fill-opacity:1;stroke:#515970;stroke-width:1;stroke-linejoin:miter;stroke-miterlimit:4;stroke-dasharray:none;stroke-opacity:1"
     sodipodi:nodetypes="ccccc" />
  <path
     sodipodi:nodetypes="cccccccccc"
     inkscape:connector-curvature="0"
     id="rect8103-5-1-0-3-8-6-1-1-2-0-8-2"
     d="m 500.90989,239.8966 0,80.10341 18.14649,-2e-5 0,-38.32996 c 9.7016,-10e-4 19.9927,4.1e-4 29.89042,0.003 l -18.96074,-0.0925 0.0329,-9.36066 6.92091,-3e-5 0.0657,-32.32292 z"
     style="opacity:0.98000004;fill:none;fill-opacity:1;stroke:#515970;stroke-width:1;stroke-linejoin:miter;stroke-miterlimit:4;stroke-dasharray:none;stroke-opacity:1" />
  <path
     inkscape:connector-curvature="0"
     id="rect8103-5-1-0-3-8-6-1-1-2-0-8-5-1"
     d="m 489.72306,274.93761 0,45.0624 11.17422,0.04 0.0818,-45.10243 z"
     style="opacity:0.98000004;fill:none;fill-opacity:1;stroke:#515970;stroke-width:1;stroke-linejoin:miter;stroke-miterlimit:4;stroke-dasharray:none;stroke-opacity:1"
     sodipodi:nodetypes="ccccc" />
  <path
     sodipodi:nodetypes="ccccccc"
     inkscape:connector-curvature="0"
     id="rect8103-5-1-0-3-8-6-1-1-2-0-8-7-2"
     d="m 511.47707,226.19424 0,13.61114 25.47749,0 0.0836,32.34912 17.33762,-0.0396 -0.002,-45.4606 z"
     style="opacity:0.98000004;fill:none;fill-opacity:1;stroke:#515970;stroke-width:1;stroke-linejoin:miter;stroke-miterlimit:4;stroke-dasharray:none;stroke-opacity:1" />
  <path
     inkscape:connector-curvature="0"
     id="rect8103-5-1-0-3-8-6-1-1-2-0-8-7-4-9"
     d="m 541.53003,221.33314 0,5.13936 12.85069,0.16727 0,-5.30663 z"
     style="opacity:1;fill:none;fill-opacity:1;stroke:#515970;stroke-width:1;stroke-linejoin:miter;stroke-miterlimit:4;stroke-dasharray:none;stroke-opacity:1"
     sodipodi:nodetypes="ccccc" />
  <path
     style="opacity:1;fill:none;fill-opacity:1;stroke:#515970;stroke-width:1;stroke-linecap:butt;stroke-linejoin:miter;stroke-miterlimit:4;stroke-dasharray:none;stroke-opacity:1"
     d="m 323.87394,319.94551 0,-34.17926 c -15.71014,-14.28756 -44.79636,-32.49796 -74.50536,-32.50582 -29.709,-0.008 -58.85855,18.3253 -74.56869,32.61287 l 0,34.18119 z"
     id="path8771-2"
     inkscape:connector-curvature="0"
     sodipodi:nodetypes="cczccc" />
  <path
     inkscape:connector-curvature="0"
     id="rect9028-7"
     d="m 393.06614,91.197377 -0.0976,13.010993 c 4.0798,-0.67215 8.20408,-0.62477 12.60547,-0.17774 l 0.0976,-12.833273 -12.60547,0 z m 10e-6,60.902343 0,139.78379 4.47356,0 0.0537,4.0705 7.81008,-0.0953 0.26819,-143.75901 c -4.113,10e-4 -8.41328,-0.003 -12.60547,0 z"
     style="opacity:1;fill:none;fill-opacity:1;stroke:#515970;stroke-width:1;stroke-linecap:butt;stroke-linejoin:miter;stroke-miterlimit:4;stroke-dasharray:none;stroke-opacity:1"
     sodipodi:nodetypes="cccccccccccccc" />
  <path
     sodipodi:nodetypes="ccccccccc"
     inkscape:connector-curvature="0"
     id="path9039-7"
     d="m 405.64427,152.0548 -0.19938,143.85757 3.26773,0.10727 0,4.13636 17.28707,3.6e-4 -3.42968,-41.55273 -11.92551,-106.54883 -5,0 z"
     style="fill:none;fill-opacity:1;fill-rule:evenodd;stroke:#515970;stroke-width:1;stroke-linecap:butt;stroke-linejoin:miter;stroke-miterlimit:4;stroke-dasharray:none;stroke-opacity:1" />
  <path
     sodipodi:nodetypes="ccccc"
     inkscape:connector-curvature="0"
     id="path9039-8-4"
     d="m 389.0765,152.14783 -15.71055,139.6821 20.00781,0.0536 -0.29726,-139.82871 z"
     style="fill:none;fill-opacity:1;fill-rule:evenodd;stroke:#515970;stroke-width:1;stroke-linecap:butt;stroke-linejoin:miter;stroke-miterlimit:4;stroke-dasharray:none;stroke-opacity:1" />
  <path
     sodipodi:nodetypes="ccccccc"
     inkscape:connector-curvature="0"
     id="path9073-1"
     d="m 379.83502,146.04604 c -1.67193,7e-5 -3.02728,1.35541 -3.02735,3.02734 7e-5,1.67193 1.35542,3.02728 3.02735,3.02735 13.84617,0.0105 25.98084,-0.0276 39.0664,0 1.67193,-7e-5 3.02728,-1.35542 3.02735,-3.02735 -8e-5,-1.67193 -1.35543,-3.02727 -3.02735,-3.02734 -14.03871,0.1464 -25.05326,0.0773 -39.0664,0 z"
     style="opacity:1;fill:none;fill-opacity:1;stroke:#515970;stroke-width:1;stroke-linecap:butt;stroke-linejoin:miter;stroke-miterlimit:4;stroke-dasharray:none;stroke-opacity:1" />
  <path
     sodipodi:nodetypes="ccccccc"
     inkscape:connector-curvature="0"
     id="path9073-3-2"
     d="m 381.06266,115.77457 c -1.56684,4e-5 -2.837,0.67727 -2.83708,1.5127 9e-5,0.83542 1.27025,1.51265 2.83708,1.51269 12.51249,-0.0766 25.42502,-0.22798 36.6111,0 1.56684,-3e-5 2.83701,-0.67726 2.83709,-1.51269 -7e-5,-0.83543 -1.27024,-1.51267 -2.83709,-1.5127 -12.61922,-0.64784 -25.81692,-0.27811 -36.6111,0 z"
     style="opacity:1;fill:none;fill-opacity:1;stroke:#515970;stroke-width:1;stroke-linecap:butt;stroke-linejoin:miter;stroke-miterlimit:4;stroke-dasharray:none;stroke-opacity:1" />
  <path
     sodipodi:nodetypes="cccccccccccccc"
     inkscape:connector-curvature="0"
     id="rect9094-4-6-7-2"
     d="m 399.32237,119.036 c -11.12048,0.003 -21.46832,1.1305 -27.45763,2.99203 0.0103,6.78844 0.0911,14.18505 0.0867,20.2619 l 0.004,0 0,0.72784 c 6.00352,1.85673 16.34791,2.97941 27.45573,2.97976 11.12049,-0.003 21.46834,-1.1305 27.45764,-2.99204 l 0,-0.71556 0.004,0 0,-20.1585 -0.0924,0 0,-0.11574 c -6.00389,-1.85685 -16.34916,-2.97954 -27.45766,-2.97976 z"
     style="opacity:1;fill:none;fill-opacity:1;stroke:#515970;stroke-width:1;stroke-linecap:butt;stroke-linejoin:miter;stroke-miterlimit:4;stroke-dasharray:none;stroke-opacity:1" />
  <path
     inkscape:connector-curvature="0"
     d="m 399.36724,126.97362 a 32.232203,9.0360805 0 0 0 -27.37755,4.28858 l 0,3.35901 0,3.71053 0,0.0898 a 32.232203,9.0360805 0 0 1 27.37755,-4.28859 32.232203,9.0360805 0 0 1 27.3795,4.27882 l 0,-0.0898 0,-3.71053 0,-3.359 a 32.232203,9.0360805 0 0 0 -27.3795,-4.27882 z m 0,-3.47676 a 32.232203,9.0360805 0 0 0 -27.37755,4.28858 l 0,3.35901 0,3.71053 0,0.0898 a 32.232203,9.0360805 0 0 1 27.37755,-4.28859 32.232203,9.0360805 0 0 1 27.3795,4.27882 l 0,-0.0898 0,-3.71053 0,-3.359 a 32.232203,9.0360805 0 0 0 -27.3795,-4.27882 z"
     style="opacity:1;fill:none;fill-opacity:1;stroke:#515970;stroke-width:1;stroke-linecap:butt;stroke-linejoin:miter;stroke-miterlimit:4;stroke-dasharray:none;stroke-opacity:1"
     id="path9111-5-2-1-5-4-0-7" />
  <path
     sodipodi:nodetypes="ccccccc"
     inkscape:connector-curvature="0"
     d="m 399.36724,126.97362 c -11.15859,0.005 -21.5149,1.62689 -27.37755,4.28858 l 0,3.35901 c 5.86637,-2.18115 18.03913,-3.43014 27.57492,-3.25806 10.38778,0.18747 20.86515,0.94666 27.18213,3.24829 l 0,-3.359 c -5.87144,-2.65812 -16.22711,-4.27649 -27.3795,-4.27882 z"
     style="opacity:1;fill:none;fill-opacity:1;stroke:#515970;stroke-width:1;stroke-linecap:butt;stroke-linejoin:miter;stroke-miterlimit:4;stroke-dasharray:none;stroke-opacity:1"
     id="path9111-5-2-1-5-4-0-86" />
  <rect
     y="73.668129"
     x="394.73312"
     height="17.755434"
     width="9.270153"
     id="rect9576-1"
     style="opacity:1;fill:none;fill-opacity:1;stroke:#515970;stroke-width:1;stroke-linecap:butt;stroke-linejoin:miter;stroke-miterlimit:4;stroke-dasharray:none;stroke-opacity:1" />
  <rect
     y="91.19677"
     x="393.08148"
     height="5.8559337"
     width="12.573449"
     id="rect9576-4-7"
     style="opacity:1;fill:none;fill-opacity:1;stroke:#515970;stroke-width:1;stroke-linecap:butt;stroke-linejoin:miter;stroke-miterlimit:4;stroke-dasharray:none;stroke-opacity:1" />
  <rect
     y="61.776497"
     x="396.32074"
     height="11.729791"
     width="6.0949478"
     id="rect9576-6-7"
     style="opacity:1;fill:none;fill-opacity:1;stroke:#515970;stroke-width:1;stroke-linecap:butt;stroke-linejoin:miter;stroke-miterlimit:4;stroke-dasharray:none;stroke-opacity:1" />
  <rect
     y="48.938255"
     x="397.94437"
     height="12.716808"
     width="2.847667"
     id="rect9576-6-1-3"
     style="opacity:1;fill:none;fill-opacity:1;stroke:#515970;stroke-width:1;stroke-linecap:butt;stroke-linejoin:miter;stroke-miterlimit:4;stroke-dasharray:none;stroke-opacity:1" />
  <rect
     y="36.164986"
     x="397.9444"
     height="12.925056"
     width="2.8479135"
     id="rect9576-6-1-8-8"
     style="opacity:1;fill:none;fill-opacity:1;stroke:#515970;stroke-width:1;stroke-linecap:butt;stroke-linejoin:miter;stroke-miterlimit:4;stroke-dasharray:none;stroke-opacity:1" />
  <rect
     y="28.06522"
     x="398.79099"
     height="8.0924339"
     width="1.1544377"
     id="rect9576-6-1-8-0-3"
     style="opacity:1;fill:none;fill-opacity:1;stroke:#515970;stroke-width:1;stroke-linecap:butt;stroke-linejoin:miter;stroke-miterlimit:4;stroke-dasharray:none;stroke-opacity:1" />
  <path
     sodipodi:nodetypes="ccccccc"
     inkscape:connector-curvature="0"
     id="path9073-3-1-5"
     d="m 383.0805,111.7236 c -1.39412,4e-5 -2.52427,0.69504 -2.52435,1.5524 9e-5,0.85734 1.13024,1.55235 2.52435,1.55239 11.13322,-0.0786 22.62239,-0.23397 32.57542,0 1.39412,-3e-5 2.52428,-0.69504 2.52436,-1.55239 -7e-5,-0.85736 -1.13023,-1.55237 -2.52436,-1.5524 -11.22819,-0.66484 -22.97109,-0.28541 -32.57542,0 z"
     style="opacity:1;fill:none;fill-opacity:1;stroke:#515970;stroke-width:1;stroke-linecap:butt;stroke-linejoin:miter;stroke-miterlimit:4;stroke-dasharray:none;stroke-opacity:1" />
  <path
     sodipodi:nodetypes="cccccc"
     inkscape:connector-curvature="0"
     id="rect9684"
     d="m 294.50203,107.11627 0,24.11524 -0.01,0.8125 24.75194,-24.93946 -0.625,0.0117 z"
     style="opacity:1;fill:none;stroke:#515970;stroke-width:1;stroke-linecap:butt;stroke-linejoin:miter;stroke-miterlimit:4;stroke-dasharray:none;stroke-opacity:1;fill-opacity:1" />
  <text
     transform="matrix(-0.70710678,0.70710678,-0.70710678,-0.70710678,0,0)"
     sodipodi:linespacing="125%"
     id="text9973"
     y="-307.01852"
     x="-152.23958"
     style="font-style:normal;font-variant:normal;font-weight:bold;font-stretch:normal;font-size:45px;line-height:125%;font-family:'Microsoft YaHei';-inkscape-font-specification:'Microsoft YaHei Bold';letter-spacing:0px;word-spacing:0px;fill:none;fill-opacity:1;stroke:#515970;stroke-width:1;stroke-linecap:butt;stroke-linejoin:miter;stroke-opacity:1;stroke-miterlimit:4;stroke-dasharray:none;"
     xml:space="preserve"><tspan
       y="-307.01852"
       x="-152.23958"
       id="tspan9975"
       sodipodi:role="line">N</tspan></text>
  <path
     inkscape:connector-curvature="0"
     id="rect5615-4-3"
     d="m 325.05433,288.14232 0,31.85768 2.89949,0 0,-31.8577 z"
     style="opacity:0.98000004;fill:none;fill-opacity:1;fill-rule:nonzero;stroke:#515970;stroke-width:1;stroke-linecap:butt;stroke-linejoin:miter;stroke-miterlimit:4;stroke-dasharray:none;stroke-opacity:1"
     sodipodi:nodetypes="ccccc" />
  <text
     transform="matrix(0.70710678,0.70710678,0.70710678,-0.70710678,0,0)"
     sodipodi:linespacing="125%"
     id="text9973-7"
     y="255.70844"
     x="413.44736"
     style="font-style:normal;font-variant:normal;font-weight:bold;font-stretch:normal;font-size:45px;line-height:125%;font-family:'Microsoft YaHei';-inkscape-font-specification:'Microsoft YaHei Bold';letter-spacing:0px;word-spacing:0px;fill:none;fill-opacity:1;stroke:#515970;stroke-width:1;stroke-linecap:butt;stroke-linejoin:miter;stroke-opacity:1;stroke-miterlimit:4;stroke-dasharray:none;"
     xml:space="preserve"><tspan
       y="255.70844"
       x="413.44736"
       id="tspan9975-4"
       sodipodi:role="line">E</tspan></text>
  <path
     inkscape:connector-curvature="0"
     id="rect8103-5-1-0-3-8-6-8"
     d="m 201.99441,254.67945 0,11.99044 c -9.64957,5.3034 -16.64372,10.28962 -24.52715,16.67555 l 0,-28.66599 z"
     style="opacity:1;fill:none;fill-opacity:1;stroke:#515970;stroke-width:1;stroke-linejoin:miter;stroke-miterlimit:4;stroke-dasharray:none;stroke-opacity:1"
     sodipodi:nodetypes="ccccc" />
  <path
     style="opacity:1;fill:none;fill-opacity:1;stroke:#515970;stroke-width:1;stroke-linecap:butt;stroke-linejoin:miter;stroke-miterlimit:4;stroke-dasharray:none;stroke-opacity:1"
     d="m 174.71528,285.75916 0.0781,1.86521 3.67651,0.0547 c 15.00552,-13.66522 42.51862,-31.77677 70.6139,-31.77569 28.09528,0.001 56.00536,18.00349 71.01088,31.66871 l 3.67846,-0.0547 0.0782,-1.86717 c -17.16971,-15.19222 -46.04775,-32.45474 -74.71046,-32.4122 -28.66271,0.0425 -57.25583,17.32891 -74.42559,32.52114 z"
     id="path5268"
     inkscape:connector-curvature="0"
     sodipodi:nodetypes="ccczccczc" />
  <path
     inkscape:connector-curvature="0"
     id="rect8103-5-1-0-3-8-6-1-3-9-6"
     d="m 408.67169,300.15701 0,19.87789 33.24031,0 0,-19.87789 z"
     style="opacity:0.98000004;fill:none;fill-opacity:1;stroke:#515970;stroke-width:1;stroke-linejoin:miter;stroke-miterlimit:4;stroke-dasharray:none;stroke-opacity:1"
     sodipodi:nodetypes="ccccc" />
  <path
     inkscape:connector-curvature="0"
     id="rect8103-5-1-0-3-8-6-1-3-9-6-1"
     d="m 397.49086,295.98356 0.0759,23.82983 11.06907,0.15171 0.0536,-24.05739 z"
     style="opacity:0.98000004;fill:none;fill-opacity:1;stroke:#515970;stroke-width:1;stroke-linejoin:miter;stroke-miterlimit:4;stroke-dasharray:none;stroke-opacity:1"
     sodipodi:nodetypes="ccccc" />
  <rect
     transform="matrix(0,1,-1,0,0,0)"
     y="-400.77457"
     x="48.869427"
     height="2.8208013"
     width="2.0409257"
     id="rect9576-6-1-8-0-9"
     style="opacity:1;fill:none;fill-opacity:1;stroke:#515970;stroke-width:1;stroke-linecap:butt;stroke-linejoin:miter;stroke-miterlimit:4;stroke-dasharray:none;stroke-opacity:1" />
  <rect
     transform="matrix(0,1,-1,0,0,0)"
     y="-400.80289"
     x="60.04567"
     height="2.8692136"
     width="1.5755818"
     id="rect9576-6-1-8-0-9-3"
     style="opacity:1;fill:none;fill-opacity:1;stroke:#515970;stroke-width:1;stroke-linecap:butt;stroke-linejoin:miter;stroke-miterlimit:4;stroke-dasharray:none;stroke-opacity:1" />
  <rect
     transform="matrix(0,1,-1,0,0,0)"
     y="-402.34845"
     x="71.024109"
     height="5.9670725"
     width="2.5202701"
     id="rect9576-6-1-8-0-9-9"
     style="opacity:1;fill:none;fill-opacity:1;stroke:#515970;stroke-width:1;stroke-linecap:butt;stroke-linejoin:miter;stroke-miterlimit:4;stroke-dasharray:none;stroke-opacity:1" />
  <path
     sodipodi:nodetypes="ccccccc"
     inkscape:connector-curvature="0"
     id="path9073-3-1-0"
     d="m 390.4154,104.53984 c -0.7663,1e-4 -1.38749,1.53054 -1.38754,3.41849 6e-5,1.88796 0.62124,3.4184 1.38754,3.41847 6.11956,-0.17293 12.43475,-0.5152 17.90559,0 0.76632,-5e-5 1.3875,-1.53049 1.38755,-3.41847 -4e-5,-1.88795 -0.62123,-3.41842 -1.38755,-3.41849 -6.17175,-1.46403 -12.62641,-0.6285 -17.90559,0 z"
     style="opacity:1;fill:none;fill-opacity:1;stroke:#515970;stroke-width:1;stroke-linecap:butt;stroke-linejoin:miter;stroke-miterlimit:4;stroke-dasharray:none;stroke-opacity:1" />
  <path
     id="path10225"
     d="m 350.22128,52.034875 1.17918,3.340962 3.53743,0 -2.75132,2.161795 0.98265,3.340952 -2.94794,-1.965265 -2.94794,1.965265 0.98265,-3.340952 -2.75132,-2.161795 3.53744,0 z"
     inkscape:connector-curvature="0"
     style="fill:none;fill-opacity:1;stroke:#515970;stroke-width:1;stroke-miterlimit:4;stroke-dasharray:none;stroke-opacity:1" />
  <path
     id="path10225-4"
     d="m 302.64509,69.618034 1.17918,3.340962 3.53743,0 -2.75132,2.161795 0.98265,3.340952 -2.94794,-1.965265 -2.94794,1.965265 0.98265,-3.340952 -2.75132,-2.161795 3.53744,0 z"
     inkscape:connector-curvature="0"
     style="fill:none;fill-opacity:1;stroke:#515970;stroke-width:1;stroke-miterlimit:4;stroke-dasharray:none;stroke-opacity:1" />
  <path
     id="path10225-3"
     d="m 383.15737,73.940841 1.17918,3.340962 3.53743,0 -2.75132,2.161795 0.98265,3.340952 -2.94794,-1.965265 -2.94794,1.965265 0.98265,-3.340952 -2.75132,-2.161795 3.53744,0 z"
     inkscape:connector-curvature="0"
     style="fill:none;fill-opacity:1;stroke:#515970;stroke-width:1;stroke-miterlimit:4;stroke-dasharray:none;stroke-opacity:1" />
  <path
     id="path10225-1"
     d="m 433.41,75.021544 1.17918,3.340962 3.53743,0 -2.75132,2.161795 0.98265,3.340956 -2.94794,-1.965269 -2.94794,1.965269 0.98265,-3.340956 -2.75132,-2.161795 3.53744,0 z"
     inkscape:connector-curvature="0"
     style="fill:none;fill-opacity:1;stroke:#515970;stroke-width:1;stroke-miterlimit:4;stroke-dasharray:none;stroke-opacity:1" />
  <path
     id="path10225-16"
     d="m 488.52579,66.91628 1.17918,3.340962 3.53743,0 -2.75132,2.161795 0.98265,3.340957 -2.94794,-1.96527 -2.94794,1.96527 0.98265,-3.340957 -2.75132,-2.161795 3.53744,0 z"
     inkscape:connector-curvature="0"
     style="fill:none;fill-opacity:1;stroke:#515970;stroke-width:1;stroke-miterlimit:4;stroke-dasharray:none;stroke-opacity:1" />
  <path
     id="path10225-13"
     d="m 444.75737,34.495227 1.17918,3.340962 3.53743,0 -2.75132,2.161795 0.98265,3.340952 -2.94794,-1.965265 -2.94794,1.965265 0.98265,-3.340952 -2.75132,-2.161795 3.53744,0 z"
     inkscape:connector-curvature="0"
     style="fill:none;fill-opacity:1;stroke:#515970;stroke-width:1;stroke-miterlimit:4;stroke-dasharray:none;stroke-opacity:1" />
  <path
     id="path10225-162"
     d="m 274.54685,87.989967 1.17918,3.34096 3.53743,0 -2.75132,2.16179 0.98265,3.34096 -2.94794,-1.96527 -2.94794,1.96527 0.98265,-3.34096 -2.75132,-2.16179 3.53744,0 z"
     inkscape:connector-curvature="0"
     style="fill:none;fill-opacity:1;stroke:#515970;stroke-width:1;stroke-miterlimit:4;stroke-dasharray:none;stroke-opacity:1" />
  <path
     id="path10225-8"
     d="m 514.46264,96.095227 1.17918,3.34097 3.53743,0 -2.75132,2.161793 0.98265,3.34095 -2.94794,-1.96526 -2.94794,1.96526 0.98265,-3.34095 -2.75132,-2.161793 3.53744,0 z"
     inkscape:connector-curvature="0"
     style="fill:none;fill-opacity:1;stroke:#515970;stroke-width:1;stroke-miterlimit:4;stroke-dasharray:none;stroke-opacity:1" />
  <path
     id="path10225-6"
     d="m 350.73632,92.853127 1.17918,3.34096 3.53743,0 -2.75132,2.1618 0.98265,3.340953 -2.94794,-1.965273 -2.94794,1.965273 0.98265,-3.340953 -2.75132,-2.1618 3.53744,0 z"
     inkscape:connector-curvature="0"
     style="fill:none;fill-opacity:1;stroke:#515970;stroke-width:1;stroke-miterlimit:4;stroke-dasharray:none;stroke-opacity:1" />
  <path
     id="path10225-5"
     d="m 328.58193,32.874173 1.17918,3.34097 3.53743,0 -2.75132,2.16179 0.98265,3.34095 -2.94794,-1.96526 -2.94794,1.96526 0.98265,-3.34095 -2.75132,-2.16179 3.53744,0 z"
     inkscape:connector-curvature="0"
     style="fill:none;fill-opacity:1;stroke:#515970;stroke-width:1;stroke-miterlimit:4;stroke-dasharray:none;stroke-opacity:1" />
  <path
     id="path10225-36"
     d="m 376.13983,22.035578 1.17918,3.340962 3.53743,0 -2.75132,2.161795 0.98265,3.340952 -2.94794,-1.965265 -2.94794,1.965265 0.98265,-3.340952 -2.75132,-2.161795 3.53744,0 z"
     inkscape:connector-curvature="0"
     style="fill:none;fill-opacity:1;stroke:#515970;stroke-width:1;stroke-miterlimit:4;stroke-dasharray:none;stroke-opacity:1" />
  <path
     style="opacity:1;fill:none;fill-opacity:1;stroke:#515970;stroke-width:1;stroke-linecap:butt;stroke-linejoin:miter;stroke-miterlimit:4;stroke-dasharray:none;stroke-opacity:1"
     d="m 310.12759,292.1985 c -12.81271,-11.67393 -36.39239,-27.49885 -60.73971,-27.5333 -24.34733,-0.0345 -48.17019,15.89057 -60.98289,27.5645 z"
     id="path8771-2-7"
     inkscape:connector-curvature="0"
     sodipodi:nodetypes="czcc" />
  <path
     style="opacity:1;fill:none;fill-opacity:1;stroke:#515970;stroke-width:1;stroke-linejoin:miter;stroke-miterlimit:4;stroke-dasharray:none;stroke-opacity:1"
     d="m 174.84806,292.51127 0,27.12753 148.9132,-0.18388 0,-27.15587 z"
     id="rect8103-5-1-0-3-8-6-1-3-9-1"
     inkscape:connector-curvature="0"
     sodipodi:nodetypes="ccccc" />
  <path
     id="path10225-1-1"
     d="m 9.6247303,54.235789 1.1791797,3.34096 3.53743,0 -2.75132,2.1618 0.98265,3.34095 -2.9479397,-1.96526 -2.94794,1.96526 0.98265,-3.34095 -2.75132,-2.1618 3.53744,0 z"
     inkscape:connector-curvature="0"
     style="fill:none;fill-opacity:1;stroke:#515970;stroke-width:1;stroke-miterlimit:4;stroke-dasharray:none;stroke-opacity:1" />
  <path
     id="path10225-16-2"
     d="m 64.74052,46.130529 1.17918,3.34096 3.53743,0 -2.75132,2.16179 0.98265,3.34096 -2.94794,-1.96527 -2.94794,1.96527 0.98265,-3.34096 -2.75132,-2.16179 3.53744,0 z"
     inkscape:connector-curvature="0"
     style="fill:none;fill-opacity:1;stroke:#515970;stroke-width:1;stroke-miterlimit:4;stroke-dasharray:none;stroke-opacity:1" />
  <path
     id="path10225-13-5"
     d="m 20.9721,13.709473 1.17918,3.340962 3.53743,0 -2.75132,2.161795 0.98265,3.340953 -2.94794,-1.965266 -2.94794,1.965266 0.98265,-3.340953 -2.75132,-2.161795 3.53744,0 z"
     inkscape:connector-curvature="0"
     style="fill:none;fill-opacity:1;stroke:#515970;stroke-width:1;stroke-miterlimit:4;stroke-dasharray:none;stroke-opacity:1" />
  <path
     id="path10225-8-2"
     d="m 90.67737,75.309469 1.17918,3.34097 3.53743,0 -2.75132,2.1618 0.98265,3.34095 -2.94794,-1.96526 -2.94794,1.96526 0.98265,-3.34095 -2.75132,-2.1618 3.53744,0 z"
     inkscape:connector-curvature="0"
     style="fill:none;fill-opacity:1;stroke:#515970;stroke-width:1;stroke-miterlimit:4;stroke-dasharray:none;stroke-opacity:1" />
  <path
     id="path10225-61"
     d="m 211.86163,38.312446 1.17918,3.340962 3.53743,0 -2.75132,2.161795 0.98265,3.340952 -2.94794,-1.965265 -2.94794,1.965265 0.98265,-3.340952 -2.75132,-2.161795 3.53744,0 z"
     inkscape:connector-curvature="0"
     style="fill:none;fill-opacity:1;stroke:#515970;stroke-width:1;stroke-miterlimit:4;stroke-dasharray:none;stroke-opacity:1" />
  <path
     id="path10225-4-0"
     d="m 164.28544,55.895605 1.17918,3.340962 3.53743,0 -2.75132,2.161795 0.98265,3.340952 -2.94794,-1.965265 -2.94794,1.965265 0.98265,-3.340952 -2.75132,-2.161795 3.53744,0 z"
     inkscape:connector-curvature="0"
     style="fill:none;fill-opacity:1;stroke:#515970;stroke-width:1;stroke-miterlimit:4;stroke-dasharray:none;stroke-opacity:1" />
  <path
     id="path10225-162-1"
     d="m 136.1872,74.267538 1.17918,3.34096 3.53743,0 -2.75132,2.16179 0.98265,3.34096 -2.94794,-1.96527 -2.94794,1.96527 0.98265,-3.34096 -2.75132,-2.16179 3.53744,0 z"
     inkscape:connector-curvature="0"
     style="fill:none;fill-opacity:1;stroke:#515970;stroke-width:1;stroke-miterlimit:4;stroke-dasharray:none;stroke-opacity:1" />
  <path
     id="path10225-6-7"
     d="m 212.37667,79.130698 1.17918,3.34096 3.53743,0 -2.75132,2.1618 0.98265,3.340953 -2.94794,-1.965273 -2.94794,1.965273 0.98265,-3.340953 -2.75132,-2.1618 3.53744,0 z"
     inkscape:connector-curvature="0"
     style="fill:none;fill-opacity:1;stroke:#515970;stroke-width:1;stroke-miterlimit:4;stroke-dasharray:none;stroke-opacity:1" />
  <path
     id="path10225-5-9"
     d="m 190.22228,19.151743 1.17918,3.34097 3.53743,0 -2.75132,2.16179 0.98265,3.340951 -2.94794,-1.965261 -2.94794,1.965261 0.98265,-3.340951 -2.75132,-2.16179 3.53744,0 z"
     inkscape:connector-curvature="0"
     style="fill:none;fill-opacity:1;stroke:#515970;stroke-width:1;stroke-miterlimit:4;stroke-dasharray:none;stroke-opacity:1" />
  <path
     id="path10225-61-8"
     d="m 293.48407,34.182049 1.17918,3.340962 3.53743,0 -2.75132,2.161795 0.98265,3.340952 -2.94794,-1.965265 -2.94794,1.965265 0.98265,-3.340952 -2.75132,-2.161795 3.53744,0 z"
     inkscape:connector-curvature="0"
     style="fill:none;fill-opacity:1;stroke:#515970;stroke-width:1;stroke-miterlimit:4;stroke-dasharray:none;stroke-opacity:1" />
  <path
     id="path10225-4-0-9"
     d="m 245.90788,51.765208 1.17918,3.340962 3.53743,0 -2.75132,2.161795 0.98265,3.340952 -2.94794,-1.965265 -2.94794,1.965265 0.98265,-3.340952 -2.75132,-2.161795 3.53744,0 z"
     inkscape:connector-curvature="0"
     style="fill:none;fill-opacity:1;stroke:#515970;stroke-width:1;stroke-miterlimit:4;stroke-dasharray:none;stroke-opacity:1" />
  <path
     id="path10225-5-9-5"
     d="m 271.84472,15.021346 1.17918,3.34097 3.53743,0 -2.75132,2.16179 0.98265,3.340951 -2.94794,-1.965261 -2.94794,1.965261 0.98265,-3.340951 -2.75132,-2.16179 3.53744,0 z"
     inkscape:connector-curvature="0"
     style="fill:none;fill-opacity:1;stroke:#515970;stroke-width:1;stroke-miterlimit:4;stroke-dasharray:none;stroke-opacity:1" />
  <path
     id="path10225-61-2"
     d="m 699.17396,38.312446 1.17918,3.340962 3.53743,0 -2.75132,2.161795 0.98265,3.340952 -2.94794,-1.965265 -2.94794,1.965265 0.98265,-3.340952 -2.75132,-2.161795 3.53744,0 z"
     inkscape:connector-curvature="0"
     style="fill:none;fill-opacity:1;stroke:#515970;stroke-width:1;stroke-miterlimit:4;stroke-dasharray:none;stroke-opacity:1" />
  <path
     id="path10225-5-9-3"
     d="m 677.53461,19.151743 1.17918,3.34097 3.53743,0 -2.75132,2.16179 0.98265,3.340951 -2.94794,-1.965261 -2.94794,1.965261 0.98265,-3.340951 -2.75132,-2.16179 3.53744,0 z"
     inkscape:connector-curvature="0"
     style="fill:none;fill-opacity:1;stroke:#515970;stroke-width:1;stroke-miterlimit:4;stroke-dasharray:none;stroke-opacity:1" />
  <path
     id="path10225-61-8-5"
     d="m 780.7964,34.182049 1.17918,3.340962 3.53743,0 -2.75132,2.161795 0.98265,3.340952 -2.94794,-1.965265 -2.94794,1.965265 0.98265,-3.340952 -2.75132,-2.161795 3.53744,0 z"
     inkscape:connector-curvature="0"
     style="fill:none;fill-opacity:1;stroke:#515970;stroke-width:1;stroke-miterlimit:4;stroke-dasharray:none;stroke-opacity:1" />
  <path
     id="path10225-4-0-9-7"
     d="m 733.22021,51.765208 1.17918,3.340962 3.53743,0 -2.75132,2.161795 0.98265,3.340952 -2.94794,-1.965265 -2.94794,1.965265 0.98265,-3.340952 -2.75132,-2.161795 3.53744,0 z"
     inkscape:connector-curvature="0"
     style="fill:none;fill-opacity:1;stroke:#515970;stroke-width:1;stroke-miterlimit:4;stroke-dasharray:none;stroke-opacity:1" />
  <path
     id="path10225-5-9-5-4"
     d="m 759.15705,15.021346 1.17918,3.34097 3.53743,0 -2.75132,2.16179 0.98265,3.340951 -2.94794,-1.965261 -2.94794,1.965261 0.98265,-3.340951 -2.75132,-2.16179 3.53744,0 z"
     inkscape:connector-curvature="0"
     style="fill:none;fill-opacity:1;stroke:#515970;stroke-width:1;stroke-miterlimit:4;stroke-dasharray:none;stroke-opacity:1" />
  <path
     id="path10225-1-2"
     d="m 594.1515,58.86754 1.17918,3.340962 3.53743,0 -2.75132,2.161795 0.98265,3.340956 -2.94794,-1.965269 -2.94794,1.965269 0.98265,-3.340956 -2.75132,-2.161795 3.53744,0 z"
     inkscape:connector-curvature="0"
     style="fill:none;fill-opacity:1;stroke:#515970;stroke-width:1;stroke-miterlimit:4;stroke-dasharray:none;stroke-opacity:1" />
  <path
     id="path10225-16-9"
     d="m 649.26729,50.762276 1.17918,3.340962 3.53743,0 -2.75132,2.161795 0.98265,3.340957 -2.94794,-1.96527 -2.94794,1.96527 0.98265,-3.340957 -2.75132,-2.161795 3.53744,0 z"
     inkscape:connector-curvature="0"
     style="fill:none;fill-opacity:1;stroke:#515970;stroke-width:1;stroke-miterlimit:4;stroke-dasharray:none;stroke-opacity:1" />
  <path
     id="path10225-13-7"
     d="m 605.49887,18.341222 1.17918,3.340962 3.53743,0 -2.75132,2.161795 0.98265,3.340953 -2.94794,-1.965266 -2.94794,1.965266 0.98265,-3.340953 -2.75132,-2.161795 3.53744,0 z"
     inkscape:connector-curvature="0"
     style="fill:none;fill-opacity:1;stroke:#515970;stroke-width:1;stroke-miterlimit:4;stroke-dasharray:none;stroke-opacity:1" />
  <path
     id="path10225-8-3"
     d="m 675.20414,79.941223 1.17918,3.34097 3.53743,0 -2.75132,2.161793 0.98265,3.34095 -2.94794,-1.96526 -2.94794,1.96526 0.98265,-3.34095 -2.75132,-2.161793 3.53744,0 z"
     inkscape:connector-curvature="0"
     style="fill:none;fill-opacity:1;stroke:#515970;stroke-width:1;stroke-miterlimit:4;stroke-dasharray:none;stroke-opacity:1" />
  <path
     id="path10225-61-2-0"
     d="m 558.31019,25.864639 1.17918,3.340962 3.53743,0 -2.75132,2.161795 0.98265,3.340952 -2.94794,-1.965265 -2.94794,1.965265 0.98265,-3.340952 -2.75132,-2.161795 3.53744,0 z"
     inkscape:connector-curvature="0"
     style="fill:none;fill-opacity:1;stroke:#515970;stroke-width:1;stroke-miterlimit:4;stroke-dasharray:none;stroke-opacity:1" />
  <path
     id="path10225-5-9-3-5"
     d="m 536.67084,6.7039349 1.17918,3.3409701 3.53743,0 -2.75132,2.16179 0.98265,3.340952 -2.94794,-1.965262 -2.94794,1.965262 0.98265,-3.340952 -2.75132,-2.16179 3.53744,0 z"
     inkscape:connector-curvature="0"
     style="fill:none;fill-opacity:1;stroke:#515970;stroke-width:1;stroke-miterlimit:4;stroke-dasharray:none;stroke-opacity:1" />
  <path
     id="path10225-4-0-9-7-0"
     d="m 592.35644,39.317401 1.17918,3.340962 3.53743,0 -2.75132,2.161795 0.98265,3.340952 -2.94794,-1.965265 -2.94794,1.965265 0.98265,-3.340952 -2.75132,-2.161795 3.53744,0 z"
     inkscape:connector-curvature="0"
     style="fill:none;fill-opacity:1;stroke:#515970;stroke-width:1;stroke-miterlimit:4;stroke-dasharray:none;stroke-opacity:1" />
  <path
     id="path10225-16-9-4"
     d="m 508.40352,38.314469 1.17918,3.340962 3.53743,0 -2.75132,2.161795 0.98265,3.340957 -2.94794,-1.96527 -2.94794,1.96527 0.98265,-3.340957 -2.75132,-2.161795 3.53744,0 z"
     inkscape:connector-curvature="0"
     style="fill:none;fill-opacity:1;stroke:#515970;stroke-width:1;stroke-miterlimit:4;stroke-dasharray:none;stroke-opacity:1" />
  <path
     id="path10225-8-3-8"
     d="m 534.34037,67.493416 1.17918,3.34097 3.53743,0 -2.75132,2.161793 0.98265,3.34095 -2.94794,-1.96526 -2.94794,1.96526 0.98265,-3.34095 -2.75132,-2.161793 3.53744,0 z"
     inkscape:connector-curvature="0"
     style="fill:none;fill-opacity:1;stroke:#515970;stroke-width:1;stroke-miterlimit:4;stroke-dasharray:none;stroke-opacity:1" />
  <path
     id="path10225-61-2-3"
     d="m 138.09618,24.938289 1.17918,3.340962 3.53743,0 -2.75132,2.161795 0.98265,3.340952 -2.94794,-1.965265 -2.94794,1.965265 0.98265,-3.340952 -2.75132,-2.161795 3.53744,0 z"
     inkscape:connector-curvature="0"
     style="fill:none;fill-opacity:1;stroke:#515970;stroke-width:1;stroke-miterlimit:4;stroke-dasharray:none;stroke-opacity:1" />
  <path
     id="path10225-5-9-3-9"
     d="m 116.45683,5.7775859 1.17918,3.34097 3.53743,0 -2.75132,2.1617901 0.98265,3.340951 -2.94794,-1.965261 -2.94794,1.965261 0.98265,-3.340951 -2.75132,-2.1617901 3.53744,0 z"
     inkscape:connector-curvature="0"
     style="fill:none;fill-opacity:1;stroke:#515970;stroke-width:1;stroke-miterlimit:4;stroke-dasharray:none;stroke-opacity:1" />
  <path
     id="path10225-16-9-3"
     d="m 88.18951,37.388119 1.17918,3.340962 3.53743,0 -2.75132,2.161795 0.98265,3.340957 -2.94794,-1.96527 -2.94794,1.96527 0.98265,-3.340957 -2.75132,-2.161795 3.53744,0 z"
     inkscape:connector-curvature="0"
     style="fill:none;fill-opacity:1;stroke:#515970;stroke-width:1;stroke-miterlimit:4;stroke-dasharray:none;stroke-opacity:1" />
  <path
     id="path10225-8-3-2"
     d="m 52.98727,21.175923 1.17918,3.34097 3.53743,0 -2.75132,2.161793 0.98265,3.34095 -2.94794,-1.96526 -2.94794,1.96526 0.98265,-3.34095 -2.75132,-2.161793 3.53744,0 z"
     inkscape:connector-curvature="0"
     style="fill:none;fill-opacity:1;stroke:#515970;stroke-width:1;stroke-miterlimit:4;stroke-dasharray:none;stroke-opacity:1" />
</svg>
