<?xml version="1.0" encoding="UTF-8" standalone="no"?>
<!-- Created with Inkscape (http://www.inkscape.org/) -->

<svg
   xmlns:dc="http://purl.org/dc/elements/1.1/"
   xmlns:cc="http://creativecommons.org/ns#"
   xmlns:rdf="http://www.w3.org/1999/02/22-rdf-syntax-ns#"
   xmlns:svg="http://www.w3.org/2000/svg"
   xmlns="http://www.w3.org/2000/svg"
   xmlns:sodipodi="http://sodipodi.sourceforge.net/DTD/sodipodi-0.dtd"
   xmlns:inkscape="http://www.inkscape.org/namespaces/inkscape"
   id="svg3336"
   version="1.1"
   inkscape:version="0.91 r13725"
   width="750"
   height="375"
   viewBox="0 0 750 375"
   sodipodi:docname="flat logo.svg">
  <metadata
     id="metadata3342">
    <rdf:RDF>
      <cc:Work
         rdf:about="">
        <dc:format>image/svg+xml</dc:format>
        <dc:type
           rdf:resource="http://purl.org/dc/dcmitype/StillImage" />
        <dc:title />
      </cc:Work>
    </rdf:RDF>
  </metadata>
  <defs
     id="defs3340" />
  <sodipodi:namedview
     pagecolor="#ffffff"
     bordercolor="#666666"
     borderopacity="1"
     objecttolerance="10"
     gridtolerance="10"
     guidetolerance="10"
     inkscape:pageopacity="0"
     inkscape:pageshadow="2"
     inkscape:window-width="1366"
     inkscape:window-height="745"
     id="namedview3338"
     showgrid="false"
     inkscape:zoom="1.1981802"
     inkscape:cx="321.88418"
     inkscape:cy="702.54497"
     inkscape:window-x="-8"
     inkscape:window-y="-8"
     inkscape:window-maximized="1"
     inkscape:current-layer="svg3336"
     inkscape:snap-grids="true"
     inkscape:snap-to-guides="true" />
  <path
     style="opacity:0.33000004;fill:#000000"
     d="m 0,-226.50005 c 0,-1.25001 1.9999998,-1.5 12,-1.5 l 12,0 0,-30 0,-30 -12,0 c -10.0000002,0 -12,-0.25 -12,-1.5 0,-1.25 1.9999998,-1.5 12,-1.5 l 12,0 0,-14.5 0,-14.5 3.439637,0 c 3.252843,0 3.45648,-0.20364 3.749995,-3.75 l 0.310368,-3.75 9.231893,-0.28728 9.231893,-0.28729 4.283296,3.9482 c 2.517494,2.32055 5.513792,4.088 7.268107,4.28729 l 2.984811,0.33908 0.289824,8.21165 0.289824,8.21165 8.710176,0.28835 c 6.873621,0.22755 8.73857,0.60463 8.844821,1.78835 0.07403,0.825 0.18656,2.7375 0.250005,4.25 0.08576,2.04488 0.62816,2.75 2.11535,2.75 1.703701,0 2,-0.66667 2,-4.5 l 0,-4.5 8.480949,0 c 9.282831,0 8.683261,-0.42597 9.852911,7 0.21658,1.375 0.45506,-3.47662 0.52996,-10.78138 0.11069,-10.79546 0.41694,-13.38913 1.63618,-13.85699 0.92551,-0.35515 1.5,-1.8751 1.5,-3.96862 l 0,-3.39301 9.80383,0 9.80384,0 3.34155,3.44761 c 1.83785,1.89618 4.51363,3.58368 5.94617,3.75 l 2.60461,0.30239 0.28231,11.20312 0.28232,11.20312 6.21768,0.29688 6.21769,0.29688 0.30737,3.69973 0.30737,3.69973 5.19263,0.30027 5.19263,0.30027 0.26445,30.74999 c 0.22717,26.41504 0.47387,30.75001 1.75,30.75001 1.26001,0 1.48555,-2.78158 1.48555,-18.32129 l 0,-18.32129 4.10388,-2.97283 4.10387,-2.97284 0.14613,-9.95587 0.14612,-9.95588 11.5,-0.29021 c 14.14898,-0.35707 16,0.0258 16,3.30926 0,2.97605 -0.13791,2.96852 7.94811,0.43412 11.13846,-3.49112 26.2276,-5.25286 39.55189,-4.61789 6.6,0.31453 13.0125,0.87024 14.24999,1.23492 2.17345,0.6405 2.25001,0.43792 2.25001,-5.95357 0,-5.8705 0.21768,-6.61663 1.93045,-6.61663 1.2406,0 2.04464,-0.80404 2.25,-2.25 0.31215,-2.19792 0.64938,-2.25642 14.56954,-2.52746 L 301,-308.05496 l 0,14.34224 0,14.34225 3.74999,1.74773 c 2.06251,0.96125 7.66759,4.3071 12.45574,7.43521 l 8.70574,5.68748 0.26222,18.5 0.26224,18.5 0.53204,-20 c 0.5266,-19.7958 0.55499,-20.00326 2.78203,-20.31955 2.20932,-0.31378 2.25,-0.56928 2.25,-14.13337 0,-15.60386 -0.34761,-15.00406 8.71247,-15.03343 l 4.21248,-0.0136 0.28752,-9.25 0.28753,-9.25 3.18925,-0.30883 c 2.62393,-0.25408 3.24434,-0.78587 3.5,-3 0.30847,-2.6714 0.36952,-2.69117 8.31075,-2.69117 7.93916,0 8.00236,0.0205 8.31048,2.68836 0.21733,1.88189 0.96732,2.78187 2.5,3 2.17053,0.30894 2.19386,0.52844 2.68952,25.31164 0.48468,24.23407 0.5239,24.62371 1.27993,12.71807 0.42897,-6.75506 2.56507,-33.53006 4.74687,-59.5 2.18183,-25.96994 3.96836,-48.68058 3.97007,-50.46807 0.003,-2.74361 -0.36225,-3.25 -2.34189,-3.25 -3.35963,0 -6.04517,-3.30922 -5.25158,-6.47116 0.52157,-2.07809 0.17233,-2.76503 -1.88147,-3.70081 C 372.05347,-402.29672 372,-402.54923 372,-413.08111 l 0,-10.76003 3,-0.65891 c 2.02296,-0.44432 3,-1.26518 3,-2.52044 0,-1.02384 0.44999,-2.13964 1,-2.47956 0.54999,-0.33993 1,-1.43336 1,-2.42985 0,-1.47235 1.12417,-1.93901 6,-2.49064 l 6,-0.67882 0,-10.45036 c 0,-6.30022 0.39713,-10.45033 1,-10.45033 0.58745,0 1,-3.47223 1,-8.41667 0,-4.62916 0.44025,-8.56666 0.97834,-8.75 0.55062,-0.18759 1.22473,-7.32851 1.54189,-16.33333 C 397.34339,-512.87056 397.75431,-516 400,-516 c 2.24567,0 2.65661,3.12944 3.47975,26.5 0.31718,9.00482 0.99129,16.14574 1.5419,16.33333 0.53809,0.18334 0.97835,4.12085 0.97835,8.75 0,4.94445 0.41254,8.41667 1,8.41667 0.60269,0 1,4.14014 1,10.42041 l 0,10.4204 6.5,0.69609 c 5.37055,0.57514 6.5,1.01312 6.5,2.52058 0,1.00347 0.44999,2.1026 1,2.44252 0.54999,0.33993 1,1.43523 1,2.43402 0,1.21776 0.98825,2.01363 3,2.41598 l 3,0.6 0,10.86448 c 0,10.73206 -0.0317,10.87894 -2.60211,12.05009 -2.03233,0.92599 -2.47621,1.68728 -2.02709,3.47668 0.8388,3.34206 -1.86462,6.65875 -5.42751,6.65875 -2.38308,0 -2.94493,0.42825 -2.95191,2.25 -0.0232,6.05258 9.15182,114.421 9.78194,115.53701 0.39968,0.70785 3.08917,2.62946 5.97668,4.27023 l 5.25,2.98322 0,-24.93844 c 0,-13.71615 0.27314,-25.65025 0.60698,-26.52023 0.52462,-1.36714 3.23861,-1.58179 20,-1.58179 l 19.39302,0 0,7.5 0,7.5 5.24999,0.14806 c 2.88751,0.0814 6.15001,0.19394 7.25001,0.25 1.90183,0.0969 2.01349,0.89953 2.27477,16.35193 l 0.27476,16.25001 3.95216,0 3.95215,0 0.27309,-17.75 0.27307,-17.75 5.74999,-0.2999 5.75001,-0.29991 0,-4.86831 C 512,-320.26936 511.51234,-320 526.54056,-320 l 13.32659,0 0.31643,-2.75 c 0.31157,-2.70796 0.42343,-2.75 7.31642,-2.75 l 7,0 0.26733,24.68811 c 0.25573,23.61605 0.35342,24.71544 2.25,25.31739 1.62027,0.51425 1.98267,1.52176 1.98267,5.51198 l 0,4.88271 5.74999,0.29991 c 5.44332,0.2839 5.76689,0.44658 6.06642,3.04989 0.29752,2.58565 0.6113,2.75001 5.25001,2.75001 l 4.93358,0 0,-4.5 0,-4.5 6.5,0 6.5,0 0,-4.41821 C 594,-280.27185 593.42246,-280 610.10698,-280 l 14.89302,0 0,3.5 c 0,3.98092 2.64496,5.02046 3.18044,1.24999 0.31554,-2.22169 0.53653,-2.25342 17.56955,-2.5236 L 663,-278.04723 l 0,2.52362 c 0,2.20943 0.42857,2.52361 3.44249,2.52361 3.33511,0 3.45211,-0.13259 3.75001,-4.25001 L 670.5,-281.5 l 7.74999,-0.29206 7.75001,-0.29207 0,-4.95793 0,-4.95794 12.5,0 12.5,0 0,-22.5 0,-22.5 19,0 19,0 0,11.5 0,11.5 13,0 13,0 0,17.5 0,17.5 4,0 4,0 0,-19 0,-19 8.5,0 c 6.88888,0 8.5,0.28431 8.5,1.5 0,1.19048 -1.44444,1.5 -7,1.5 l -7,0 0,43 0,43 7,0 c 5.55556,0 7,0.30953 7,1.5 0,1.33083 -45.11112,1.5 -400,1.5 -354.888886,0 -400,-0.16917 -400,-1.5 z m 62,-46 0,-44.5 -17.5,0 -17.5,0 0,44.5 0,44.5 17.5,0 17.5,0 0,-44.5 z m 44,13 0,-31.5 -20.5,0 -20.5,0 0,31.5 0,31.5 20.5,0 20.5,0 0,-31.5 z m 32,-13.5 0,-45 -14.5,0 -14.5,0 0,45 0,45 14.5,0 14.5,0 0,-45 z m 24,15.5 0,-29.5 -10.5,0 -10.5,0 0,29.5 0,29.5 10.5,0 10.5,0 0,-29.5 z m 20,14.01254 0,-15.48745 4.24999,-2.71002 c 12.22821,-7.79733 26.16011,-13.09481 41.4908,-15.77649 25.26844,-4.42003 54.08461,1.53691 75.70159,15.64919 l 6.55762,4.28103 0,14.7656 0,14.7656 6.5,0 6.5,0 0,-17.9365 0,-17.93651 -8.42482,-5.60568 c -22.81421,-15.18005 -52.65993,-22.56027 -79.73979,-19.71797 -20.46185,2.14767 -40.1167,8.94972 -55.84691,19.3272 l -7.98848,5.27014 0,18.29966 0,18.29966 5.5,0 5.5,0 0,-15.48746 z m 125,1.0355 0,-14.45195 -4.25001,-2.9151 c -14.91164,-10.22797 -38.25903,-17.1692 -57.74999,-17.1692 -18.70963,0 -40.01092,6.05443 -55.74821,15.84523 l -4.24821,2.64298 -0.002,15.25001 -10e-4,15.24999 61,0 61,0 0,-14.45196 z m 53,-4.04804 0,-18.5 -15,0 -15,0 0,18.5 0,18.5 15,0 15,0 0,-18.5 z m 36.78078,6.2513 -0.28078,-12.24869 -13.5,0.17277 c -7.425,0.095 -14.2875,0.20693 -15.25001,0.24871 -1.56522,0.0678 -1.74999,1.34293 -1.74999,12.07591 l 0,12 15.53078,0 15.53078,0 -0.28078,-12.2487 z m 11.21922,1.2487 0,-11 -4,0 -4,0 0,11 0,11 4,0 4,0 0,-11 z m 36,3.5 c 0,-5.3046 -0.3659,-7.51577 -1.25001,-7.55388 -3.97108,-0.17115 -19.22939,-0.23251 -25,-0.10048 l -6.74999,0.1544 0,7.5 0,7.5 16.5,0 16.5,0 0,-7.5 z m 14,-4 0,-11.5 -5.5,0 -5.5,0 0,11.5 0,11.5 5.5,0 5.5,0 0,-11.5 z m 31,-25 0,-36.5 -14,0 -14,0 0,36.5 0,36.5 14,0 14,0 0,-36.5 z m 11,16.5 0,-20 -4,0 -4,0 0,20 0,20 4,0 4,0 0,-20 z m 18.22744,1.74999 0.27256,-18.24999 5.19949,-0.30051 5.19948,-0.30051 0.30052,-5.19949 c 0.29262,-5.06308 0.38577,-5.20771 3.5505,-5.51284 l 3.25001,-0.31337 0,-13.93664 0,-13.93664 -16.5,0 -16.5,0 0,38 0,38 7.47744,0 7.47744,0 0.27256,-18.25001 z m 49.77256,1.25001 0,-17 -23.5,0 -23.5,0 0,17 0,17 23.5,0 23.5,0 0,-17 z m 13,3 0,-14 -5,0 -5,0 0,14 0,14 5,0 5,0 0,-14 z m 26,-4.5 0,-18.5 -11.5,0 -11.5,0 0,18.5 0,18.5 11.5,0 11.5,0 0,-18.5 z m 15,-6 0,-24.5 -12.5,0 -12.5,0 0,4.45228 0,4.45229 6.24999,0.29771 6.25001,0.29772 0.27113,19.74999 0.27115,19.75001 5.97886,0 5.97886,0 0,-24.5 z m 6,3.5 c 0,-18 -0.2143,-21 -1.5,-21 -1.28571,0 -1.5,3 -1.5,21 0,18 0.21429,21 1.5,21 1.2857,0 1.5,-3 1.5,-21 z m 32,-2.5 0,-23.5 -14.5,0 -14.5,0 0,23.5 0,23.5 14.5,0 14.5,0 0,-23.5 z m 28,2.5 0,-21 -12.5,0 -12.5,0 0,21 0,21 12.5,0 12.5,0 0,-21 z m 20,-4.5 0,-25.5 -17.5,0 -17.5,0 0,3 0,3 7.4182,0 c 4.08003,0 8.13003,0.27314 9,0.60699 1.37575,0.52792 1.5818,3.45893 1.5818,22.5 l 0,21.89301 8.5,0 8.5,0 0,-25.5 z m 22,-5 0,-30.5 -20.5,0 -20.5,0 0,3.5 0,3.5 11,0 11,0 0,27 0,27 9.5,0 9.5,0 0,-30.5 z m 42,-11 0,-41.5 -19.5,0 -19.5,0 0,41.5 0,41.5 19.5,0 19.5,0 0,-41.5 z m 11,17.5 0,-24 -4,0 -4,0 0,24 0,24 4,0 4,0 0,-24 z m -357.95601,4.24999 c 0.0242,-0.96249 -2.55036,-33.58749 -5.72123,-72.49999 l -5.76522,-70.75 -2.77876,0 -2.77878,0 0,68.89301 c 0,60.31574 0.18675,68.96468 1.5,69.46862 0.87686,0.33648 1.5,1.83491 1.5,3.60699 l 0,3.03138 7,0 c 5.98324,0 7.00639,-0.25419 7.04399,-1.75001 z M 437,-254.90353 l 0,-8.90349 -5.25001,-2.98478 c -2.8875,-1.64163 -5.40868,-2.83887 -5.60264,-2.66054 -0.19397,0.17834 -0.0275,5.52806 0.3699,11.88827 l 0.72255,11.56402 4.8801,0 4.8801,0 0,-8.90348 z m 7.18963,5.15347 0.31037,-3.74999 6.74999,-0.29569 6.75001,-0.29569 0,-24.95431 0,-24.95431 8,0 8,0 0,-6 0,-6 -17,0 -17,0 0,35 c 0,33.97024 0.0571,35 1.93962,35 1.51952,0 2.00686,-0.81223 2.25001,-3.75001 z M 405,-322.00005 l 0,-69 -5,0 -5,0 0,68 c 0,66.64414 0.0387,68 1.94098,68 1.06754,0 2.2191,0.44999 2.55902,1 0.33991,0.54999 1.71648,1 3.05902,1 l 2.44098,0 0,-69 z m -33.83113,49.6527 c 0.18213,-9.43398 0.19138,-22.4402 0.0206,-28.9027 l -0.31056,-11.75 -11.43947,0 -11.43945,0 0,8 0,8 7.5,0 7.5,0 0,21.27643 0,21.27642 3.91888,-0.37372 3.91888,-0.37373 0.33111,-17.1527 z M 392,-323.00005 l 0,-68 -2.78676,0 -2.78677,0 -2.78206,34.25 c -3.89545,47.95728 -6.36901,79.51081 -7.17288,91.49999 l -0.68728,10.25001 8.10788,0 8.10787,0 0,-68 z m 164,54 0,-4 -12,0 -12,0 0,4 0,4 12,0 12,0 0,-4 z m -219,-1.5 c 0,-2.47059 0.1,-2.5 8.5,-2.5 8.4,0 8.5,0.0294 8.5,2.5 0,2.11111 0.46667,2.5 3,2.5 l 3,0 0,-13 0,-13 -12.5,0 -12.5,0 0,13 c 0,8 0.38462,13 1,13 0.54999,0 1,-1.125 1,-2.5 z m 14,1.5 c 0,-0.55001 -2.475,-1 -5.5,-1 -3.025,0 -5.5,0.44999 -5.5,1 0,0.54999 2.475,1 5.5,1 3.025,0 5.5,-0.45001 5.5,-1 z m -160.3161,-9.5 c 8.31745,-4.08363 10.19601,-5.41237 10.25,-7.25001 0.0646,-2.20097 -0.17357,-2.24999 -10.9339,-2.24999 l -11,0 0,7.58333 c 0,4.17084 0.3375,7.43334 0.74999,7.25 0.41251,-0.18334 5.33276,-2.58334 10.93391,-5.33333 z m 361.3161,-18 0,-20.5 -18.5,0 -18.5,0 0,5 0,5 12,0 12,0 0,15.5 0,15.5 6.5,0 6.5,0 0,-20.5 z m -254,6 0,-9.5 -13.55226,0 -13.55226,0 0.30226,5.11557 0.30226,5.11557 8,2.30705 c 6.41206,1.84911 11.90462,3.76309 18.24999,6.35951 0.13751,0.0563 0.25001,-4.1727 0.25001,-9.3977 z m -147,-2 c 0,-2.33333 -0.33333,-2.5 -5,-2.5 -4.66667,0 -5,0.16667 -5,2.5 0,2.33333 0.33333,2.5 5,2.5 4.66667,0 5,-0.16667 5,-2.5 z m 579,-10.5 0,-11 8,0 8,0 0,-8.41821 c 0,-4.63002 0.27314,-9.13002 0.60698,-10 0.53849,-1.40325 -1.26743,-1.58179 -16,-1.58179 l -16.60698,0 0,21 0,21 8,0 8,0 0,-11 z m -650,6 c 0,-3 0,-3 -6,-3 -6,0 -6,0 -6,3 0,3 0,3 6,3 6,0 6,0 6,-3 z m 22,0 c 0,-3 0,-3 -6.000001,-3 -5.999999,0 -5.999999,0 -5.999999,3 0,3 0,3 5.999999,3 6.000001,0 6.000001,0 6.000001,-3 z m 196,-7 c 0,-0.6087 -4.5,-1 -11.5,-1 -7,0 -11.5,0.3913 -11.5,1 0,0.6087 4.5,1 11.5,1 7,0 11.5,-0.3913 11.5,-1 z m 68,-13.5 c 0,-1.15152 -1.27778,-1.5 -5.5,-1.5 -4.22222,0 -5.5,0.34848 -5.5,1.5 0,1.15152 1.27778,1.5 5.5,1.5 4.22222,0 5.5,-0.34848 5.5,-1.5 z m -313,-5 c -2.14047,-2.27842 -3.08655,-2.5 -10.674315,-2.5 -8.214069,0 -8.325685,0.0335 -8.325685,2.5 l 0,2.5 10.674314,0 10.674315,0 -2.348629,-2.5 z m 499,1 c 0,-1.11111 -1.16667,-1.5 -4.5,-1.5 -3.33334,0 -4.5,0.38889 -4.5,1.5 0,1.11112 1.16666,1.5 4.5,1.5 3.33333,0 4.5,-0.38888 4.5,-1.5 z m -421.5,-1.5 c -1.53452,-1.69563 -3.07997,-2 -10.15499,-2 -7.67835,0 -8.34501,0.15978 -8.34501,2 0,1.8687 0.66666,2 10.15499,2 10.09164,0 10.1437,-0.0125 8.34501,-2 z m 292,-73 c 0,-1.27826 -3.16792,-1.53997 -21.42959,-1.77041 -12.32983,-0.15558 -21.82589,0.12589 -22.36287,0.66287 -2.67454,2.67454 0.90554,3.1403 22.11341,2.87684 18.48391,-0.22961 21.67905,-0.49038 21.67905,-1.7693 z m 1.56574,-6.03518 c 1.06384,-0.56935 1.93426,-1.86465 1.93426,-2.87844 0,-1.5289 -1.28606,-2.03454 -7.54086,-2.96482 -9.71687,-1.44521 -24.74898,-1.43295 -35.20915,0.0287 -6.84842,0.95697 -8.24999,1.45841 -8.24999,2.95159 0,0.98932 0.7875,2.25745 1.74999,2.81805 2.36359,1.37665 44.75217,1.4169 47.31575,0.0449 z M 400.5,-410.50005 c 7.7,0 16.5875,0.36988 19.74999,0.82196 4.73486,0.67684 5.75001,0.56589 5.75001,-0.62844 0,-3.25664 -26.40353,-4.82744 -42.75001,-2.54326 -6.0506,0.8455 -8.24999,1.54303 -8.24999,2.6165 0,1.21553 0.97488,1.317 5.74999,0.59846 3.16251,-0.47586 12.05001,-0.86522 19.75001,-0.86522 z m 0,-5 c 7.7,0 16.5875,0.36988 19.74999,0.82196 3.54317,0.50649 5.75001,0.45719 5.75001,-0.12844 0,-1.4201 -13.75995,-3.19335 -24.79085,-3.1948 -11.24608,-10e-4 -26.20915,1.86428 -26.20915,3.26804 0,0.60683 2.12924,0.64329 5.74999,0.0985 3.16251,-0.47591 12.05001,-0.86526 19.75001,-0.86526 z m 0,-4 c 7.7,0 16.5875,0.36988 19.74999,0.82196 5.65926,0.80899 5.75001,0.78328 5.75001,-1.62844 0,-2.28474 -0.50979,-2.52622 -7.54086,-3.57196 -9.71687,-1.44521 -24.74898,-1.43295 -35.20915,0.0287 -7.78895,1.0884 -8.24999,1.2905 -8.24999,3.6165 0,2.43292 0.0718,2.45288 5.74999,1.59846 3.16251,-0.47586 12.05001,-0.86522 19.75001,-0.86522 z m 5.33002,-7.23327 c 10.80588,0.34775 15.01699,0.18028 14.26924,-0.56746 -1.35605,-1.35606 -26.81205,-2.12074 -34.01655,-1.02183 -2.97951,0.45447 -5.58513,1.32983 -5.79027,1.94523 -0.27106,0.81317 1.07266,0.85002 4.91729,0.13484 2.90965,-0.54126 12.18879,-0.76211 20.62029,-0.49078 z M 418,-431.12505 c 0,-1.75644 -22.67159,-2.65108 -31.25001,-1.23315 -7.65727,1.26567 -3.27298,1.85815 13.75001,1.85815 9.625,0 17.5,-0.28125 17.5,-0.625 z m -13,-10.875 0,-7 -5,0 -5,0 0,7 0,7 5,0 5,0 0,-7 z m -2.25001,-10.71624 c -1.51249,-0.22913 -3.9875,-0.22913 -5.5,0 -1.51249,0.22912 -0.27499,0.41658 2.75001,0.41658 3.025,0 4.26249,-0.18746 2.74999,-0.41658 z M 403,-463.00005 l 0,-7 -3,0 -3,0 0,7 0,7 3,0 3,0 0,-7 z m -2,-14.5 c 0,-2.475 -0.45001,-4.5 -1,-4.5 -0.55001,0 -1,2.025 -1,4.5 0,2.47501 0.44999,4.5 1,4.5 0.54999,0 1,-2.02499 1,-4.5 z m -139.70034,128.5 c 0,-3.025 0.18746,-4.2625 0.41658,-2.75 0.22913,1.5125 0.22913,3.9875 0,5.5 -0.22912,1.5125 -0.41658,0.275 -0.41658,-2.75 z m 277.52885,-2 c -2.27245,-25.3812 -12.24112,-51.11108 -27.64068,-71.34256 l -4.44716,-5.84255 -2.08282,2.0828 -2.08279,2.08281 3.90741,4.00155 3.90742,4.00156 -2.87205,2.99776 c -1.57962,1.64877 -3.00273,2.86708 -3.16246,2.70735 -0.15973,-0.15974 0.22118,-1.9574 0.84648,-3.99481 1.02952,-3.35444 0.91423,-3.94142 -1.22018,-6.2134 l -2.35707,-2.509 -3.56231,3.26426 -3.5623,3.26423 3.3369,-3.63727 c 2.26808,-2.47223 2.96273,-3.86852 2.16875,-4.35924 -1.31242,-0.8111 -7.00565,4.15931 -7.00565,6.11621 0,1.61449 3.44045,2.69267 6,1.8803 3.03439,-0.96308 2.41135,0.69243 -1.81299,4.81739 -3.81961,3.72975 -6.08167,4.08805 -3.91602,0.62029 2.11775,-3.39105 -0.25777,-3.34284 -3.78597,0.0769 -1.91677,1.8578 -3.48502,3.72798 -3.48502,4.15597 0,0.42798 1.40775,1.50613 3.12833,2.39587 3.02725,1.56545 5.17768,1.54525 9.37167,-0.088 1.41779,-0.55214 0.99453,0.28609 -1.45397,2.87944 l -3.45396,3.65832 -4.30853,-4.22852 -4.30856,-4.22852 -11.23748,10.97039 -11.2375,10.97048 10.96778,-11.2348 10.9678,-11.2348 -3.86757,-3.96075 c -3.19722,-3.27423 -3.48023,-3.85945 -1.63281,-3.37634 1.79345,0.469 3.60804,-0.77596 9.18901,-6.30445 5.89292,-5.83752 6.86122,-7.27039 6.34469,-9.38886 -0.55523,-2.27722 -0.24596,-2.14691 3.47053,1.46248 4.05394,3.9371 4.09264,3.9499 6.04188,2 1.94911,-1.94976 1.94491,-1.98408 -0.64856,-5.29723 -3.47888,-4.44428 -18.04495,-17.11598 -24.92153,-21.68039 -13.1935,-8.75735 -30.92894,-16.68286 -43.70686,-19.53149 -3.18762,-0.71064 -6.00789,-1.63547 -6.26731,-2.05521 -0.62114,-1.00503 15.6168,3.36126 22.29449,5.99486 17.24784,6.80233 33.22081,17.09852 46.56427,30.01537 l 9.79581,9.48261 21.70419,-21.44549 21.70419,-21.44551 -21.44364,21.70232 -21.44364,21.70232 2.79142,3.79769 c 10.97546,14.93198 19.86359,32.17983 24.03397,46.63916 3.21651,11.1521 5.79912,26.14584 5.38196,31.24565 -0.23246,2.84168 -0.5039,1.85967 -0.99156,-3.58714 z m -49.44083,-60.88497 c 2.56471,-2.62651 3.41229,-4.12062 2.61654,-4.61242 -1.3405,-0.82846 -8.00422,5.16035 -8.00422,7.19356 0,2.16968 1.40669,1.49576 5.38768,-2.58114 z M 262.116,-356.79221 c -0.18868,-3.72826 2.80789,-17.04928 5.98299,-26.59694 3.79336,-11.40681 11.567,-26.51646 18.97154,-36.87502 4.51653,-6.31839 5.57647,-8.45629 4.71004,-9.50027 -0.89636,-1.08006 -2.47229,-0.003 -7.9493,5.43182 l -6.83127,6.77893 0,-13.46024 0,-13.46023 -13.75001,-14.01292 L 249.5,-472.5 l 13.51341,13.24997 13.51339,13.24998 14.46158,0 14.46156,0 -7.23818,7.28681 c -5.60625,5.64392 -6.96917,7.55578 -6.04512,8.47984 0.92408,0.92407 3.46347,-1.00973 11.2632,-8.57718 11.60446,-11.25882 22.87324,-19.07434 37.65599,-26.11646 9.81145,-4.67393 26.15803,-10.16298 29.77603,-9.99857 0.90098,0.041 -1.96186,1.07678 -6.36186,2.30185 -15.17036,4.22379 -28.9545,10.50838 -41.91122,19.10856 -7.17389,4.76176 -21.69776,17.48041 -25.19018,22.0592 l -2.73932,3.59143 4.95914,4.95913 c 4.25117,4.25117 5.73877,5.08366 10.42036,5.83141 3.00367,0.47976 5.65909,0.68229 5.90093,0.45009 1.03734,-0.99603 -9.49626,-10.37611 -11.65212,-10.37611 -2.9032,0 -2.89562,-1.08016 0.0269,-3.82568 2.95344,-2.77461 3.86703,-2.75277 3.16602,0.0757 -0.4496,1.81407 0.90293,3.69824 6.98095,9.72497 4.14622,4.11124 7.53859,7.84608 7.53859,8.29966 0,0.45359 -2.8125,0.52856 -6.25,0.16663 l -6.25,-0.65803 16.5,16.84547 16.5,16.84546 -17.5,-17.10272 c -16.905,-16.52126 -17.66705,-17.12443 -22.4134,-17.74035 -2.70238,-0.3507 -5.05311,-0.49791 -5.22385,-0.32717 -0.17075,0.17074 2.32362,2.91703 5.54304,6.10287 5.19997,5.1457 6.09023,5.66572 7.97385,4.65762 3.24538,-1.73686 2.52807,0.15639 -1.5115,3.98942 l -3.63186,3.44617 0.68167,-2.87258 c 0.61295,-2.58293 -0.0202,-3.57451 -6.27874,-9.83304 -6.18542,-6.1854 -7.19309,-6.83591 -9.04982,-5.84222 -2.64386,1.41495 -2.71422,-0.0767 -0.11461,-2.42935 1.61197,-1.45879 2.94402,-1.66195 7.25001,-1.10574 l 5.27521,0.68142 -4.80806,-4.79923 -4.80807,-4.79926 -2.47233,3 c -12.01866,14.58376 -23.12245,38.60632 -26.80897,58 -2.36626,12.44823 -2.35092,12.38831 -2.48657,9.70784 z m 27.884,-76.70784 9.4605,-9.5 -9.73025,0 -9.73025,0 0,9.5 c 0,5.225 0.12139,9.5 0.26975,9.5 0.14836,0 4.52697,-4.275 9.73025,-9.5 z"
     id="path3346"
     inkscape:connector-curvature="0" />
  <g
     inkscape:groupmode="layer"
     id="layer1"
     inkscape:label="Layer 1" />
  <path
     style="fill:none;fill-rule:evenodd;stroke:none;stroke-width:1px;stroke-linecap:butt;stroke-linejoin:miter;stroke-opacity:1"
     d="m -10.526316,-264.47368 -1.973684,58.55263 25.657895,0 L 12.5,-265.13158 Z"
     id="path4143"
     inkscape:connector-curvature="0" />
</svg>
