<?xml version="1.0" encoding="UTF-8" standalone="no"?>
<!-- Created with Inkscape (http://www.inkscape.org/) -->

<svg
   xmlns:dc="http://purl.org/dc/elements/1.1/"
   xmlns:cc="http://creativecommons.org/ns#"
   xmlns:rdf="http://www.w3.org/1999/02/22-rdf-syntax-ns#"
   xmlns:svg="http://www.w3.org/2000/svg"
   xmlns="http://www.w3.org/2000/svg"
   xmlns:sodipodi="http://sodipodi.sourceforge.net/DTD/sodipodi-0.dtd"
   xmlns:inkscape="http://www.inkscape.org/namespaces/inkscape"
   id="svg3336"
   version="1.1"
   inkscape:version="0.91 r13725"
   width="800"
   height="308"
   viewBox="0 0 800 308"
   sodipodi:docname="logo-mark.svg">
  <metadata
     id="metadata3342">
    <rdf:RDF>
      <cc:Work
         rdf:about="">
        <dc:format>image/svg+xml</dc:format>
        <dc:type
           rdf:resource="http://purl.org/dc/dcmitype/StillImage" />
        <dc:title />
      </cc:Work>
    </rdf:RDF>
  </metadata>
  <defs
     id="defs3340">
    <inkscape:path-effect
       effect="spiro"
       id="path-effect8765"
       is_visible="true" />
    <inkscape:path-effect
       effect="spiro"
       id="path-effect8212"
       is_visible="true" />
    <inkscape:path-effect
       effect="spiro"
       id="path-effect8208"
       is_visible="true" />
    <inkscape:path-effect
       effect="spiro"
       id="path-effect8203"
       is_visible="true" />
    <inkscape:path-effect
       effect="spiro"
       id="path-effect8212-4"
       is_visible="true" />
    <inkscape:path-effect
       effect="spiro"
       id="path-effect8212-4-9"
       is_visible="true" />
    <inkscape:path-effect
       effect="spiro"
       id="path-effect8212-4-9-0"
       is_visible="true" />
    <inkscape:path-effect
       effect="spiro"
       id="path-effect8212-4-9-1"
       is_visible="true" />
    <inkscape:path-effect
       effect="spiro"
       id="path-effect8212-4-9-17"
       is_visible="true" />
    <inkscape:path-effect
       effect="spiro"
       id="path-effect8212-4-9-17-2"
       is_visible="true" />
  </defs>
  <sodipodi:namedview
     pagecolor="#ffffff"
     bordercolor="#666666"
     borderopacity="1"
     objecttolerance="10"
     gridtolerance="10"
     guidetolerance="10"
     inkscape:pageopacity="0"
     inkscape:pageshadow="2"
     inkscape:window-width="1366"
     inkscape:window-height="745"
     id="namedview3338"
     showgrid="false"
     inkscape:zoom="18.26056"
     inkscape:cx="24.413699"
     inkscape:cy="15.561485"
     inkscape:window-x="-8"
     inkscape:window-y="-8"
     inkscape:window-maximized="1"
     inkscape:current-layer="svg3336"
     inkscape:snap-grids="true"
     inkscape:snap-to-guides="true"
     showguides="true"
     inkscape:guide-bbox="true">
    <inkscape:grid
       type="xygrid"
       id="grid8093" />
  </sodipodi:namedview>
  <text
     xml:space="preserve"
     style="font-style:normal;font-weight:normal;font-size:75.3985672px;line-height:102.99999714%;font-family:sans-serif;letter-spacing:0px;word-spacing:0px;writing-mode:lr-tb;fill:#000000;fill-opacity:1;stroke:none;stroke-width:1px;stroke-linecap:butt;stroke-linejoin:miter;stroke-opacity:1"
     x="319.01245"
     y="136.59778"
     id="text5575"
     sodipodi:linespacing="103%"><tspan
       sodipodi:role="line"
       id="tspan5577"
       x="319.01245"
       y="136.59778"
       style="font-style:normal;font-variant:normal;font-weight:bold;font-stretch:normal;line-height:102.99999714%;font-family:'Microsoft YaHei';-inkscape-font-specification:'Microsoft YaHei Bold';writing-mode:lr-tb">NORTHEAST</tspan></text>
  <text
     xml:space="preserve"
     style="font-style:normal;font-variant:normal;font-weight:normal;font-stretch:normal;font-size:32.5px;line-height:125%;font-family:'Century Gothic';-inkscape-font-specification:'Century Gothic';letter-spacing:3.75px;word-spacing:0px;fill:#000000;fill-opacity:1;stroke:none;stroke-width:1px;stroke-linecap:butt;stroke-linejoin:miter;stroke-opacity:1"
     x="331.69223"
     y="180.68732"
     id="text5579"
     sodipodi:linespacing="125%"><tspan
       sodipodi:role="line"
       id="tspan5581"
       x="331.69223"
       y="180.68732">GENERAL CONTRACTING</tspan></text>
  <text
     xml:space="preserve"
     style="font-style:normal;font-variant:normal;font-weight:normal;font-stretch:normal;font-size:32.5px;line-height:125%;font-family:'Century Gothic';-inkscape-font-specification:'Century Gothic';letter-spacing:3.75px;word-spacing:0px;fill:#000000;fill-opacity:1;stroke:none;stroke-width:1px;stroke-linecap:butt;stroke-linejoin:miter;stroke-opacity:1"
     x="528.2785"
     y="229.34877"
     id="text5587"
     sodipodi:linespacing="125%"><tspan
       sodipodi:role="line"
       id="tspan5589"
       x="528.2785"
       y="229.34877">INC</tspan></text>
  <rect
     style="opacity:0.98000004;fill:#050b20;fill-opacity:1;fill-rule:evenodd;stroke:#050b20;stroke-width:0.56450635;stroke-linecap:butt;stroke-linejoin:miter;stroke-miterlimit:4;stroke-dasharray:none;stroke-opacity:1"
     id="rect5591"
     width="190.81174"
     height="4.4354935"
     x="328.10596"
     y="215.45927" />
  <rect
     style="opacity:0.98000004;fill:#050b20;fill-opacity:1;fill-rule:evenodd;stroke:#050b20;stroke-width:0.56450635;stroke-linecap:butt;stroke-linejoin:miter;stroke-miterlimit:4;stroke-dasharray:none;stroke-opacity:1"
     id="rect5591-9"
     width="190.81174"
     height="4.4354935"
     x="601.93512"
     y="215.45927" />
  <path
     sodipodi:nodetypes="ccccccc"
     inkscape:connector-curvature="0"
     id="path4381-9"
     d="M 153.99909,0.48132 C 69.216822,0.48231 0.487759,69.103171 0.487877,153.7508 c 0.0059,53.1008 -0.0099,108.00426 -0.0059,153.76788 l 307.036703,0 c 0,-46.4729 -0.006,-104.52597 -0.006,-153.76788 C 307.51267,69.102381 238.78237,0.481207 153.99929,0.48132 Z"
     style="opacity:1;fill:#050b20;fill-opacity:1;fill-rule:evenodd;stroke:#050b20;stroke-width:0.96263969;stroke-linecap:butt;stroke-linejoin:miter;stroke-miterlimit:4;stroke-dasharray:none;stroke-opacity:1" />
  <path
     sodipodi:nodetypes="ccsccccc"
     inkscape:connector-curvature="0"
     id="path4381-9-3"
     d="M 153.99911,4.490534 C 71.430958,4.491502 4.49679,71.320274 4.496905,153.7573 c 0.0035,31.35524 -8.45e-4,63.35588 -0.0039,93.62654 -0.002,19.65461 -0.0034,38.57989 -0.0018,56.12563 l 299.018285,0 c 0,-45.25925 -0.006,-101.79625 -0.006,-149.75217 C 303.50345,71.319514 236.56806,4.490426 153.99914,4.490534 Z"
     style="opacity:1;fill:#6f9ef6;fill-opacity:1;fill-rule:evenodd;stroke:#6f9ef6;stroke-width:1;stroke-linecap:butt;stroke-linejoin:miter;stroke-miterlimit:4;stroke-dasharray:none;stroke-opacity:1" />
  <path
     inkscape:connector-curvature="0"
     id="rect8103-5-1-0-3-8-6"
     d="m 23.720704,232.02154 0,13.33593 c 10.72763,2.77662 21.02033,7.1952 30.18165,12.27539 l 0,-25.61132 -30.18165,0 z"
     style="opacity:1;fill:#515970;fill-opacity:1;stroke:#515970;stroke-width:1;stroke-linejoin:miter;stroke-miterlimit:4;stroke-dasharray:none;stroke-opacity:1" />
  <rect
     y="227.80948"
     x="27.342018"
     height="4.1584754"
     width="26.560478"
     id="rect8103-5-1-0-3-3-1-0-8"
     style="opacity:0.98999999;fill:#515970;fill-opacity:1;stroke:#515970;stroke-width:1;stroke-linejoin:miter;stroke-miterlimit:4;stroke-dasharray:none;stroke-opacity:1" />
  <path
     inkscape:connector-curvature="0"
     id="rect8103-5-1-0-3-8-6-1"
     d="m 87.992194,238.73833 0,30.06641 27.529296,0 0,-30.06641 -27.529296,0 z"
     style="opacity:0.98000004;fill:#515970;fill-opacity:1;stroke:#515970;stroke-width:1;stroke-linejoin:miter;stroke-miterlimit:4;stroke-dasharray:none;stroke-opacity:1" />
  <path
     inkscape:connector-curvature="0"
     id="rect8103-5-1-0-3-8-6-1-1"
     d="m 100.11426,220.7207 0,18.01758 15.4082,0 0,64.71875 3.23828,0 0,-21.93164 7.98438,0 0,-60.80469 -26.63086,0 z"
     style="opacity:0.98000004;fill:#515970;fill-opacity:1;stroke:#515970;stroke-width:1;stroke-linejoin:miter;stroke-miterlimit:4;stroke-dasharray:none;stroke-opacity:1" />
  <path
     inkscape:connector-curvature="0"
     id="rect8103-5-1-0-3-8-6-1-3"
     d="m 82.456208,269.46184 0,34.65234 33.173832,0 0,-34.65234 -33.173832,0 z"
     style="opacity:0.98000004;fill:#515970;fill-opacity:1;stroke:#515970;stroke-width:1;stroke-linejoin:miter;stroke-miterlimit:4;stroke-dasharray:none;stroke-opacity:1" />
  <rect
     y="214.00778"
     x="105.92932"
     height="6.5645952"
     width="15.00124"
     id="rect8103-5-1-0-3-3-1-0-8-0"
     style="opacity:0.98000004;fill:#515970;fill-opacity:1;stroke:#515970;stroke-width:1;stroke-linejoin:miter;stroke-miterlimit:4;stroke-dasharray:none;stroke-opacity:1" />
  <rect
     y="262.17941"
     x="91.433701"
     height="6.5645952"
     width="15.00124"
     id="rect8103-5-1-0-3-3-1-0-8-0-0"
     style="opacity:0.98000004;fill:#515970;fill-opacity:1;stroke:#515970;stroke-width:1;stroke-linejoin:miter;stroke-miterlimit:4;stroke-dasharray:none;stroke-opacity:1" />
  <path
     inkscape:connector-curvature="0"
     id="rect8103-5-1-0-3-8-6-1-3-9"
     d="m 118.76074,281.52539 0,21.93164 33.35742,0 0,-21.93164 -33.35742,0 z"
     style="opacity:0.98000004;fill:#515970;fill-opacity:1;stroke:#515970;stroke-width:1;stroke-linejoin:miter;stroke-miterlimit:4;stroke-dasharray:none;stroke-opacity:1" />
  <path
     inkscape:connector-curvature="0"
     id="rect8103-5-1-0-3-8-6-1-3-9-4"
     d="m 152.25683,285.23242 0,18.14453 11.08789,0 0,-18.14453 -11.08789,0 z"
     style="opacity:1;fill:none;stroke:#000000;stroke-width:1;stroke-linejoin:miter;stroke-miterlimit:4;stroke-dasharray:none;stroke-opacity:1" />
  <path
     inkscape:connector-curvature="0"
     id="rect8103-5-1-0-3-8-6-1-3-9-4-9"
     d="m 163.42871,289.36914 0,13.67969 33.11523,0 0,-13.67969 -33.11523,0 z"
     style="opacity:1;fill:none;stroke:#000000;stroke-width:1;stroke-linejoin:miter;stroke-miterlimit:4;stroke-dasharray:none;stroke-opacity:1" />
  <path
     inkscape:connector-curvature="0"
     id="rect8103-5-1-0-3-8-6-1-3-9-4-9-7"
     d="m 197.11816,281.79297 0,21.74609 16.29492,0 0,-21.74609 -16.29492,0 z"
     style="opacity:0.98000004;fill:#515970;fill-opacity:1;stroke:#515970;stroke-width:1;stroke-linejoin:miter;stroke-miterlimit:4;stroke-dasharray:none;stroke-opacity:1" />
  <path
     inkscape:path-effect="#path-effect8212-4-9-17-2"
     sodipodi:nodetypes="ccccc"
     inkscape:connector-curvature="0"
     inkscape:original-d="m 180.54286,289.32982 11.81661,0 0,-20.20663 -14.06661,-8.35465 z"
     id="path8210-6-0"
     d="m 180.54286,289.32982 11.81661,0 0,-20.20663 -14.06661,-8.35465 2.25,28.56128 z"
     style="opacity:0.98000004;fill:#515970;fill-opacity:1;fill-rule:evenodd;stroke:#515970;stroke-width:1;stroke-linecap:butt;stroke-linejoin:miter;stroke-miterlimit:4;stroke-dasharray:none;stroke-opacity:1" />
  <path
     inkscape:connector-curvature="0"
     id="rect8103-5-1-0-3-8-6-1-1-2"
     d="m 192.76269,216.33984 0,73.0293 3.78125,0 0,14.03516 16.83008,0 0,-72.00977 15.70703,0 0,-15.05469 -36.31836,0 z"
     style="opacity:0.98000004;fill:#515970;fill-opacity:1;stroke:#515970;stroke-width:1;stroke-linejoin:miter;stroke-miterlimit:4;stroke-dasharray:none;stroke-opacity:1" />
  <path
     inkscape:connector-curvature="0"
     id="rect8103-5-1-0-3-8-6-1-1-2-0"
     d="m 213.37207,231.39453 0,71.98242 30.98633,0 0,-71.98242 -30.98633,0 z"
     style="opacity:0.98000004;fill:#515970;fill-opacity:1;stroke:#515970;stroke-width:1;stroke-linejoin:miter;stroke-miterlimit:4;stroke-dasharray:none;stroke-opacity:1" />
  <path
     sodipodi:nodetypes="cccccccccc"
     inkscape:connector-curvature="0"
     id="rect8103-5-1-0-3-8-6-1-1-2-0-8"
     d="m 255.54199,229.10938 0,74.34765 18.14649,-3e-5 0,-32.57419 c 9.7016,-0.001 19.9927,4.1e-4 29.89042,0.003 l -18.96074,-0.0925 0.0329,-9.36066 6.92091,-3e-5 0.0657,-32.32292 z"
     style="opacity:0.98000004;fill:#515970;fill-opacity:1;stroke:#515970;stroke-width:1;stroke-linejoin:miter;stroke-miterlimit:4;stroke-dasharray:none;stroke-opacity:1" />
  <path
     inkscape:connector-curvature="0"
     id="rect8103-5-1-0-3-8-6-1-1-2-0-8-5"
     d="m 244.60058,264.15039 0,39.30664 10.60157,0 0,-39.30664 -10.60157,0 z"
     style="opacity:0.98000004;fill:#515970;fill-opacity:1;stroke:#515970;stroke-width:1;stroke-linejoin:miter;stroke-miterlimit:4;stroke-dasharray:none;stroke-opacity:1" />
  <path
     sodipodi:nodetypes="ccccccc"
     inkscape:connector-curvature="0"
     id="rect8103-5-1-0-3-8-6-1-1-2-0-8-7"
     d="m 266.81101,215.40702 0,14.0293 24.89207,0 0,31.93096 11.81064,0.0654 c 0,-15.80154 -0.0679,-29.98348 -0.0679,-46.09139 z"
     style="opacity:0.98000004;fill:#515970;fill-opacity:1;stroke:#515970;stroke-width:1;stroke-linejoin:miter;stroke-miterlimit:4;stroke-dasharray:none;stroke-opacity:1" />
  <path
     inkscape:connector-curvature="0"
     id="rect8103-5-1-0-3-8-6-1-1-2-0-8-7-4"
     d="m 296.02637,210.41016 0,4.6582 7.42187,0 0,-4.6582 -7.42187,0 z"
     style="opacity:1;fill:#515970;fill-opacity:1;stroke:#515970;stroke-width:1;stroke-linejoin:miter;stroke-miterlimit:4;stroke-dasharray:none;stroke-opacity:1" />
  <path
     inkscape:connector-curvature="0"
     id="rect9028"
     d="m 147.69824,80.410165 0,20.919915 c 4.0798,-0.0863 8.30172,-0.13657 12.60547,-0.0801 l 0,-20.839835 -12.60547,0 z m 6.74609,24.164055 c -2.22098,0.008 -4.49265,0.0321 -6.74609,0.0488 l 0,0.10351 c 4.10142,-0.0708 8.30496,-0.1138 12.60547,-0.0742 l 0,-0.0723 c -1.93754,-0.006 -3.87234,-0.0128 -5.85938,-0.006 z m 0.0547,3.32422 c -2.23903,0.007 -4.53095,0.0269 -6.80078,0.041 l 0,0.44336 c 2.04631,-0.0802 4.12978,-0.13419 6.25781,-0.13476 2.15893,4e-5 4.27265,0.0547 6.34766,0.13672 l 0,-0.48047 c -1.92647,-0.004 -3.83615,-0.0118 -5.80469,-0.006 z m -6.80078,27.17578 0,0.24023 c 4.15054,0.0157 8.44882,0.0299 12.60547,0.0215 l 0,-0.25977 c -2.04694,0.0803 -4.13106,0.1342 -6.25977,0.13477 -2.15849,-7e-5 -4.27112,-0.0547 -6.3457,-0.13672 z m 0,6.23828 0,140.21289 4.41992,0 0,21.93164 0.14063,0 0,-18.22461 8.04492,0 0,-143.91992 c -4.113,0.001 -8.41328,-0.003 -12.60547,0 z"
     style="opacity:1;fill:#a9a49f;fill-opacity:1;stroke:#a9a49f;stroke-width:1;stroke-linecap:butt;stroke-linejoin:miter;stroke-miterlimit:4;stroke-dasharray:none;stroke-opacity:1" />
  <path
     sodipodi:nodetypes="ccccccccccc"
     inkscape:connector-curvature="0"
     id="path9039"
     d="m 160.27637,141.26758 -0.30665,143.96484 3.375,0 0,17.89844 0.0859,0 0,-13.76172 17.20117,0 -3.42968,-41.55273 -11.92551,-106.54883 -5,0 z"
     style="fill:#a9a49f;fill-opacity:1;fill-rule:evenodd;stroke:#a9a49f;stroke-width:1;stroke-linecap:butt;stroke-linejoin:miter;stroke-miterlimit:4;stroke-dasharray:none;stroke-opacity:1" />
  <path
     sodipodi:nodetypes="ccccc"
     inkscape:connector-curvature="0"
     id="path9039-8"
     d="m 143.7086,141.36061 -15.71055,140.16483 20.00781,0 -0.29726,-140.25781 z"
     style="fill:#6c696f;fill-opacity:1;fill-rule:evenodd;stroke:#6c6961;stroke-width:1;stroke-linecap:butt;stroke-linejoin:miter;stroke-miterlimit:4;stroke-dasharray:none;stroke-opacity:1" />
  <path
     sodipodi:nodetypes="ccccccc"
     inkscape:connector-curvature="0"
     id="path9073"
     d="m 134.46712,135.25882 c -1.67193,7e-5 -3.02728,1.35541 -3.02735,3.02734 7e-5,1.67193 1.35542,3.02728 3.02735,3.02735 13.84617,0.0105 25.98084,-0.0276 39.0664,0 1.67193,-7e-5 3.02728,-1.35542 3.02735,-3.02735 -8e-5,-1.67193 -1.35543,-3.02727 -3.02735,-3.02734 -14.03871,0.1464 -25.05326,0.0773 -39.0664,0 z"
     style="opacity:1;fill:#ffffff;fill-opacity:1;stroke:#ffffff;stroke-width:1;stroke-linecap:butt;stroke-linejoin:miter;stroke-miterlimit:4;stroke-dasharray:none;stroke-opacity:1" />
  <path
     sodipodi:nodetypes="ccccccc"
     inkscape:connector-curvature="0"
     id="path9073-3"
     d="m 135.69476,104.98735 c -1.56684,4e-5 -2.837,0.67727 -2.83708,1.5127 9e-5,0.83542 1.27025,1.51265 2.83708,1.51269 12.51249,-0.0766 25.42502,-0.22798 36.6111,0 1.56684,-3e-5 2.83701,-0.67726 2.83709,-1.51269 -7e-5,-0.83543 -1.27024,-1.51267 -2.83709,-1.5127 -12.61922,-0.64784 -25.81692,-0.27811 -36.6111,0 z"
     style="opacity:1;fill:#a3accb;fill-opacity:1;stroke:#a3accb;stroke-width:1;stroke-linecap:butt;stroke-linejoin:miter;stroke-miterlimit:4;stroke-dasharray:none;stroke-opacity:1" />
  <path
     sodipodi:nodetypes="cccccccccccccc"
     inkscape:connector-curvature="0"
     id="rect9094-4-6-7"
     d="m 153.95447,108.24878 c -11.12048,0.003 -21.46832,1.1305 -27.45763,2.99203 0.0103,6.78844 0.0911,14.18505 0.0867,20.2619 l 0.004,0 0,0.72784 c 6.00352,1.85673 16.34791,2.97941 27.45573,2.97976 11.12049,-0.003 21.46834,-1.1305 27.45764,-2.99204 l 0,-0.71556 0.004,0 0,-20.1585 -0.0924,0 0,-0.11574 c -6.00389,-1.85685 -16.34916,-2.97954 -27.45766,-2.97976 z"
     style="opacity:1;fill:#0a1125;fill-opacity:1;stroke:#0a1125;stroke-width:1;stroke-linecap:butt;stroke-linejoin:miter;stroke-miterlimit:4;stroke-dasharray:none;stroke-opacity:1" />
  <path
     inkscape:connector-curvature="0"
     d="m 153.99934,116.1864 a 32.232203,9.0360805 0 0 0 -27.37755,4.28858 l 0,3.35901 0,3.71053 0,0.0898 a 32.232203,9.0360805 0 0 1 27.37755,-4.28859 32.232203,9.0360805 0 0 1 27.3795,4.27882 l 0,-0.0898 0,-3.71053 0,-3.359 a 32.232203,9.0360805 0 0 0 -27.3795,-4.27882 z m 0,-3.47676 a 32.232203,9.0360805 0 0 0 -27.37755,4.28858 l 0,3.35901 0,3.71053 0,0.0898 a 32.232203,9.0360805 0 0 1 27.37755,-4.28859 32.232203,9.0360805 0 0 1 27.3795,4.27882 l 0,-0.0898 0,-3.71053 0,-3.359 a 32.232203,9.0360805 0 0 0 -27.3795,-4.27882 z"
     style="opacity:1;fill:#758199;fill-opacity:1;stroke:#758199;stroke-width:1;stroke-linecap:butt;stroke-linejoin:miter;stroke-miterlimit:4;stroke-dasharray:none;stroke-opacity:1"
     id="path9111-5-2-1-5-4-0-7" />
  <path
     sodipodi:nodetypes="ccccccc"
     inkscape:connector-curvature="0"
     d="m 153.99934,116.1864 c -11.15859,0.005 -21.5149,1.62689 -27.37755,4.28858 l 0,3.35901 c 5.86637,-2.18115 18.03913,-3.43014 27.57492,-3.25806 10.38778,0.18747 20.86515,0.94666 27.18213,3.24829 l 0,-3.359 c -5.87144,-2.65812 -16.22711,-4.27649 -27.3795,-4.27882 z"
     style="opacity:1;fill:#000000;fill-opacity:1;stroke:#000000;stroke-width:1;stroke-linecap:butt;stroke-linejoin:miter;stroke-miterlimit:4;stroke-dasharray:none;stroke-opacity:1"
     id="path9111-5-2-1-5-4-0" />
  <rect
     y="62.880917"
     x="149.36522"
     height="17.755434"
     width="9.270153"
     id="rect9576"
     style="opacity:1;fill:#ffffff;fill-opacity:1;stroke:#ffffff;stroke-width:1;stroke-linecap:butt;stroke-linejoin:miter;stroke-miterlimit:4;stroke-dasharray:none;stroke-opacity:1" />
  <rect
     y="80.409561"
     x="147.71358"
     height="5.8559337"
     width="12.573449"
     id="rect9576-4"
     style="opacity:1;fill:#a9a49f;fill-opacity:1;stroke:#a9a49f;stroke-width:1;stroke-linecap:butt;stroke-linejoin:miter;stroke-miterlimit:4;stroke-dasharray:none;stroke-opacity:1" />
  <rect
     y="50.989285"
     x="150.95285"
     height="12.282132"
     width="6.0949478"
     id="rect9576-6"
     style="opacity:1;fill:#ffffff;fill-opacity:1;stroke:#ffffff;stroke-width:1;stroke-linecap:butt;stroke-linejoin:miter;stroke-miterlimit:4;stroke-dasharray:none;stroke-opacity:1" />
  <rect
     y="38.151043"
     x="152.57646"
     height="12.923937"
     width="2.847667"
     id="rect9576-6-1"
     style="opacity:1;fill:#ffffff;fill-opacity:1;stroke:#ffffff;stroke-width:1;stroke-linecap:butt;stroke-linejoin:miter;stroke-miterlimit:4;stroke-dasharray:none;stroke-opacity:1" />
  <rect
     y="25.377773"
     x="152.57651"
     height="12.925056"
     width="2.8479135"
     id="rect9576-6-1-8"
     style="opacity:1;fill:#ffffff;fill-opacity:1;stroke:#ffffff;stroke-width:1.00008655;stroke-linecap:butt;stroke-linejoin:miter;stroke-miterlimit:4;stroke-dasharray:none;stroke-opacity:1" />
  <rect
     y="17.278008"
     x="153.42308"
     height="7.1648431"
     width="1.1544377"
     id="rect9576-6-1-8-0"
     style="opacity:1;fill:#000000;fill-opacity:1;stroke:#000000;stroke-width:1;stroke-linecap:butt;stroke-linejoin:miter;stroke-miterlimit:4;stroke-dasharray:none;stroke-opacity:1" />
  <path
     sodipodi:nodetypes="ccccccc"
     inkscape:connector-curvature="0"
     id="path9073-3-1"
     d="m 137.7126,100.93638 c -1.39412,4e-5 -2.52427,0.69504 -2.52435,1.5524 9e-5,0.85734 1.13024,1.55235 2.52435,1.55239 11.13322,-0.0786 22.62239,-0.23397 32.57542,0 1.39412,-3e-5 2.52428,-0.69504 2.52436,-1.55239 -7e-5,-0.85736 -1.13023,-1.55237 -2.52436,-1.5524 -11.22819,-0.66484 -22.97109,-0.28541 -32.57542,0 z"
     style="opacity:1;fill:#6f82ae;fill-opacity:1;stroke:#6f82ae;stroke-width:1;stroke-linecap:butt;stroke-linejoin:miter;stroke-miterlimit:4;stroke-dasharray:none;stroke-opacity:1" />
  <path
     sodipodi:nodetypes="cccccc"
     inkscape:connector-curvature="0"
     id="rect9684"
     d="m 49.134129,96.329055 0,24.115235 -0.01,0.8125 24.751945,-24.939455 -0.625,0.0117 z"
     style="opacity:1;fill:#ff0000;stroke:#ff0000;stroke-width:1;stroke-linecap:butt;stroke-linejoin:miter;stroke-miterlimit:4;stroke-dasharray:none;stroke-opacity:1" />
  <text
     transform="matrix(-0.70710678,0.70710678,-0.70710678,-0.70710678,0,0)"
     sodipodi:linespacing="125%"
     id="text9973"
     y="-125.88952"
     x="13.634022"
     style="font-style:normal;font-variant:normal;font-weight:bold;font-stretch:normal;font-size:45px;line-height:125%;font-family:'Microsoft YaHei';-inkscape-font-specification:'Microsoft YaHei Bold';letter-spacing:0px;word-spacing:0px;fill:#000000;fill-opacity:1;stroke:none;stroke-width:1px;stroke-linecap:butt;stroke-linejoin:miter;stroke-opacity:1"
     xml:space="preserve"><tspan
       y="-125.88952"
       x="13.634022"
       id="tspan9975"
       sodipodi:role="line">N</tspan></text>
  <path
     inkscape:connector-curvature="0"
     id="path5603"
     d="m 32.964644,101.35681 0,-11.541925 11.46654,0 11.46653,0 -1.89691,1.90925 c -1.0433,1.05008 -3.39049,3.41411 -5.21598,5.25339 -1.82549,1.83927 -4.66436,4.699575 -6.30859,6.356235 -1.64423,1.65665 -4.45697,4.4865 -6.25055,6.28854 l -3.26104,3.27643 0,-11.54192 z"
     style="opacity:1;fill:none;fill-opacity:1;fill-rule:nonzero;stroke:none;stroke-width:1;stroke-linecap:butt;stroke-linejoin:miter;stroke-miterlimit:4;stroke-dasharray:none;stroke-opacity:1" />
  <path
     inkscape:connector-curvature="0"
     id="rect5615-4"
     d="m 79.454558,277.91448 0,25.6437 2.899518,0 0,-25.6437 -2.899518,0 z"
     style="opacity:0.98000004;fill:#515970;fill-opacity:1;fill-rule:nonzero;stroke:#515970;stroke-width:1;stroke-linecap:butt;stroke-linejoin:miter;stroke-miterlimit:4;stroke-dasharray:none;stroke-opacity:1" />
  <text
     transform="matrix(0.70710678,0.70710678,0.70710678,-0.70710678,0,0)"
     sodipodi:linespacing="125%"
     id="text9973-7"
     y="89.834846"
     x="232.31834"
     style="font-style:normal;font-variant:normal;font-weight:bold;font-stretch:normal;font-size:45px;line-height:125%;font-family:'Microsoft YaHei';-inkscape-font-specification:'Microsoft YaHei Bold';letter-spacing:0px;word-spacing:0px;fill:#000000;fill-opacity:1;stroke:none;stroke-width:1px;stroke-linecap:butt;stroke-linejoin:miter;stroke-opacity:1"
     xml:space="preserve"><tspan
       y="89.834846"
       x="232.31834"
       id="tspan9975-4"
       sodipodi:role="line">E</tspan></text>
  <path
     sodipodi:nodetypes="ccccc"
     inkscape:connector-curvature="0"
     id="rect8103-5-1-0-3-8-6-1-1-2-0-8-7-4-1"
     d="m 284.75457,261.44134 -0.0329,9.40791 18.72545,0.1315 0.0986,-9.53941 z"
     style="opacity:0.98000004;fill:#515970;fill-opacity:1;stroke:#515970;stroke-width:1;stroke-linejoin:miter;stroke-miterlimit:4;stroke-dasharray:none;stroke-opacity:1" />
  <path
     sodipodi:nodetypes="ccccc"
     inkscape:connector-curvature="0"
     id="rect8103-5-1-0-3-8-6-1-1-2-0-8-7-4-1-2"
     d="m 273.74161,270.89851 0,32.55849 29.77099,0 0,-32.55854 z"
     style="opacity:0.98000004;fill:#515970;fill-opacity:1;stroke:#515970;stroke-width:1;stroke-linejoin:miter;stroke-miterlimit:4;stroke-dasharray:none;stroke-opacity:1" />
  <path
     inkscape:connector-curvature="0"
     id="rect8103-5-1-0-3-8-6-1-3-9-6"
     d="m 163.30379,289.36979 0,14.04196 32.8201,0 0,-14.04196 -32.8201,0 z"
     style="opacity:0.98000004;fill:#515970;fill-opacity:1;stroke:#515970;stroke-width:1;stroke-linejoin:miter;stroke-miterlimit:4;stroke-dasharray:none;stroke-opacity:1" />
  <path
     inkscape:connector-curvature="0"
     id="rect8103-5-1-0-3-8-6-1-3-9-6-1"
     d="m 151.81954,285.12049 0,18.22145 11.44834,0 0,-18.22145 -11.44834,0 z"
     style="opacity:0.98000004;fill:#515970;fill-opacity:1;stroke:#515970;stroke-width:1;stroke-linejoin:miter;stroke-miterlimit:4;stroke-dasharray:none;stroke-opacity:1" />
  <rect
     transform="matrix(0,1,-1,0,0,0)"
     y="-155.45551"
     x="39.375957"
     height="2.8692136"
     width="0.7470696"
     id="rect9576-6-1-8-0-9"
     style="opacity:1;fill:#000000;fill-opacity:1;stroke:#000000;stroke-width:0.97878647;stroke-linecap:butt;stroke-linejoin:miter;stroke-miterlimit:4;stroke-dasharray:none;stroke-opacity:1" />
  <rect
     transform="matrix(0,1,-1,0,0,0)"
     y="-155.435"
     x="49.258457"
     height="2.8692136"
     width="0.7470696"
     id="rect9576-6-1-8-0-9-3"
     style="opacity:1;fill:#000000;fill-opacity:1;stroke:#000000;stroke-width:0.97878647;stroke-linecap:butt;stroke-linejoin:miter;stroke-miterlimit:4;stroke-dasharray:none;stroke-opacity:1" />
  <rect
     transform="matrix(0,1,-1,0,0,0)"
     y="-156.98056"
     x="60.236897"
     height="5.9670725"
     width="1.5536726"
     id="rect9576-6-1-8-0-9-9"
     style="opacity:1;fill:#000000;fill-opacity:1;stroke:#000000;stroke-width:1.1279273;stroke-linecap:butt;stroke-linejoin:miter;stroke-miterlimit:4;stroke-dasharray:none;stroke-opacity:1" />
  <path
     sodipodi:nodetypes="ccccccc"
     inkscape:connector-curvature="0"
     id="path9073-3-1-0"
     d="m 145.0475,93.752625 c -0.7663,1e-4 -1.38749,1.53054 -1.38754,3.41849 6e-5,1.88796 0.62124,3.418395 1.38754,3.418465 6.11956,-0.17293 12.43475,-0.5152 17.90559,0 0.76632,-5e-5 1.3875,-1.530485 1.38755,-3.418465 -4e-5,-1.88795 -0.62123,-3.41842 -1.38755,-3.41849 -6.17175,-1.46403 -12.62641,-0.6285 -17.90559,0 z"
     style="opacity:1;fill:#6f82ae;fill-opacity:1;stroke:#6f82ae;stroke-width:1.12503386;stroke-linecap:butt;stroke-linejoin:miter;stroke-miterlimit:4;stroke-dasharray:none;stroke-opacity:1" />
  <path
     id="path10225"
     d="m 104.85338,41.247663 1.17918,3.340962 3.53743,0 -2.75132,2.161795 0.98265,3.340952 -2.94794,-1.965265 -2.94794,1.965265 0.98265,-3.340952 -2.75132,-2.161795 3.53744,0 z"
     inkscape:connector-curvature="0"
     style="fill:#ffffff;fill-opacity:1;stroke:#ffffff;stroke-width:0.19602945;stroke-miterlimit:4;stroke-dasharray:none;stroke-opacity:1" />
  <path
     id="path10225-4"
     d="m 57.277195,58.830822 1.17918,3.340962 3.53743,0 -2.75132,2.161795 0.98265,3.340952 -2.94794,-1.965265 -2.94794,1.965265 0.98265,-3.340952 -2.75132,-2.161795 3.53744,0 z"
     inkscape:connector-curvature="0"
     style="fill:#ffffff;fill-opacity:1;stroke:#ffffff;stroke-width:0.19602945;stroke-miterlimit:4;stroke-dasharray:none;stroke-opacity:1" />
  <path
     id="path10225-3"
     d="m 137.78947,63.153629 1.17918,3.340962 3.53743,0 -2.75132,2.161795 0.98265,3.340952 -2.94794,-1.965265 -2.94794,1.965265 0.98265,-3.340952 -2.75132,-2.161795 3.53744,0 z"
     inkscape:connector-curvature="0"
     style="fill:#ffffff;fill-opacity:1;stroke:#ffffff;stroke-width:0.19602945;stroke-miterlimit:4;stroke-dasharray:none;stroke-opacity:1" />
  <path
     id="path10225-1"
     d="m 188.0421,64.234332 1.17918,3.340962 3.53743,0 -2.75132,2.161795 0.98265,3.340956 -2.94794,-1.965269 -2.94794,1.965269 0.98265,-3.340956 -2.75132,-2.161795 3.53744,0 z"
     inkscape:connector-curvature="0"
     style="fill:#ffffff;fill-opacity:1;stroke:#ffffff;stroke-width:0.19602945;stroke-miterlimit:4;stroke-dasharray:none;stroke-opacity:1" />
  <path
     id="path10225-16"
     d="m 243.15789,56.129068 1.17918,3.340962 3.53743,0 -2.75132,2.161795 0.98265,3.340957 -2.94794,-1.96527 -2.94794,1.96527 0.98265,-3.340957 -2.75132,-2.161795 3.53744,0 z"
     inkscape:connector-curvature="0"
     style="fill:#ffffff;fill-opacity:1;stroke:#ffffff;stroke-width:0.19602945;stroke-miterlimit:4;stroke-dasharray:none;stroke-opacity:1" />
  <path
     id="path10225-13"
     d="m 199.38947,23.708015 1.17918,3.340962 3.53743,0 -2.75132,2.161795 0.98265,3.340952 -2.94794,-1.965265 -2.94794,1.965265 0.98265,-3.340952 -2.75132,-2.161795 3.53744,0 z"
     inkscape:connector-curvature="0"
     style="fill:#ffffff;fill-opacity:1;stroke:#ffffff;stroke-width:0.19602945;stroke-miterlimit:4;stroke-dasharray:none;stroke-opacity:1" />
  <path
     id="path10225-162"
     d="m 29.178951,77.202755 1.17918,3.34096 3.53743,0 -2.75132,2.16179 0.98265,3.34096 -2.94794,-1.96527 -2.94794,1.96527 0.98265,-3.34096 -2.75132,-2.16179 3.53744,0 z"
     inkscape:connector-curvature="0"
     style="fill:#ffffff;fill-opacity:1;stroke:#ffffff;stroke-width:0.19602945;stroke-miterlimit:4;stroke-dasharray:none;stroke-opacity:1" />
  <path
     id="path10225-8"
     d="m 269.09474,85.308015 1.17918,3.34097 3.53743,0 -2.75132,2.16179 0.98265,3.34095 -2.94794,-1.96526 -2.94794,1.96526 0.98265,-3.34095 -2.75132,-2.16179 3.53744,0 z"
     inkscape:connector-curvature="0"
     style="fill:#ffffff;fill-opacity:1;stroke:#ffffff;stroke-width:0.19602945;stroke-miterlimit:4;stroke-dasharray:none;stroke-opacity:1" />
  <path
     id="path10225-6"
     d="m 105.36842,82.065915 1.17918,3.34096 3.53743,0 -2.75132,2.1618 0.98265,3.34095 -2.94794,-1.96527 -2.94794,1.96527 0.98265,-3.34095 -2.75132,-2.1618 3.53744,0 z"
     inkscape:connector-curvature="0"
     style="fill:#ffffff;fill-opacity:1;stroke:#ffffff;stroke-width:0.19602945;stroke-miterlimit:4;stroke-dasharray:none;stroke-opacity:1" />
  <path
     id="path10225-5"
     d="m 83.21403,22.086961 1.17918,3.34097 3.53743,0 -2.75132,2.16179 0.98265,3.34095 -2.94794,-1.96526 -2.94794,1.96526 0.98265,-3.34095 -2.75132,-2.16179 3.53744,0 z"
     inkscape:connector-curvature="0"
     style="fill:#ffffff;fill-opacity:1;stroke:#ffffff;stroke-width:0.19602945;stroke-miterlimit:4;stroke-dasharray:none;stroke-opacity:1" />
  <path
     id="path10225-36"
     d="m 130.77193,11.248366 1.17918,3.340962 3.53743,0 -2.75132,2.161795 0.98265,3.340952 -2.94794,-1.965265 -2.94794,1.965265 0.98265,-3.340952 -2.75132,-2.161795 3.53744,0 z"
     inkscape:connector-curvature="0"
     style="fill:#ffffff;fill-opacity:1;stroke:#ffffff;stroke-width:0.19602945;stroke-miterlimit:4;stroke-dasharray:none;stroke-opacity:1" />
  <g
     id="g6023"
     transform="translate(6.2217199,13.408171)">
    <path
       style="opacity:1;fill:#acaba9;fill-opacity:1;stroke:#acaba9;stroke-width:0.99916047;stroke-linecap:butt;stroke-linejoin:miter;stroke-miterlimit:4;stroke-dasharray:none;stroke-opacity:1"
       d="m -1.7627504,228.93078 0,61.05162 72.6639404,0 0,0.1289 1.47795,0 0,-16.42405 0,-12.0197 C 56.66919,247.32935 27.49191,230.24242 -1.7627504,228.93078 Z"
       id="path8771-2-5"
       inkscape:connector-curvature="0" />
    <path
       style="opacity:1;fill:#ffffff;fill-opacity:1;stroke:#ffffff;stroke-width:1;stroke-linecap:butt;stroke-linejoin:miter;stroke-miterlimit:4;stroke-dasharray:none;stroke-opacity:1"
       d="m -1.7623404,240.38432 0,49.94336 C 19.16053,289.90308 40.42764,290.10381 58.48961,290.11088 l 0,-12.65039 0,-9.97851 C 45.67691,255.80805 22.09072,241.94006 -1.7623404,240.38432 Z"
       id="path8771-2-7-5"
       inkscape:connector-curvature="0"
       sodipodi:nodetypes="cccccc" />
    <path
       style="opacity:1;fill:#acaba9;fill-opacity:1;stroke:#acaba9;stroke-width:0.98959184;stroke-linejoin:miter;stroke-miterlimit:4;stroke-dasharray:none;stroke-opacity:1"
       d="m -1.6703304,268.10514 0,21.98385 72.6267304,0 0,-21.98385 -72.6267304,0 z"
       id="rect8103-5-1-0-3-8-6-1-3-9-1-9"
       inkscape:connector-curvature="0" />
    <path
       sodipodi:nodetypes="cccccc"
       inkscape:connector-curvature="0"
       id="path5268-2"
       d="m -1.7429204,231.68829 -0.052,-2.70791 C 26.15114,229.66121 55.19893,246.24322 72.35617,261.43561 l -0.078,1.8657 -3.67458,0.0546 C 53.60902,249.69055 26.05811,233.50778 -1.7430004,231.68831 Z"
       style="opacity:1;fill:#ffffff;fill-opacity:1;stroke:#ffffff;stroke-width:0.99833447;stroke-linecap:butt;stroke-linejoin:miter;stroke-miterlimit:4;stroke-dasharray:none;stroke-opacity:1" />
  </g>
</svg>
