<?xml version="1.0" encoding="UTF-8" standalone="no"?>
<!-- Created with Inkscape (http://www.inkscape.org/) -->

<svg
   xmlns:dc="http://purl.org/dc/elements/1.1/"
   xmlns:cc="http://creativecommons.org/ns#"
   xmlns:rdf="http://www.w3.org/1999/02/22-rdf-syntax-ns#"
   xmlns:svg="http://www.w3.org/2000/svg"
   xmlns="http://www.w3.org/2000/svg"
   xmlns:sodipodi="http://sodipodi.sourceforge.net/DTD/sodipodi-0.dtd"
   xmlns:inkscape="http://www.inkscape.org/namespaces/inkscape"
   id="svg3336"
   version="1.1"
   inkscape:version="0.91 r13725"
   width="800"
   height="308"
   viewBox="0 0 800 308"
   sodipodi:docname="logo-mark.svg">
  <metadata
     id="metadata3342">
    <rdf:RDF>
      <cc:Work
         rdf:about="">
        <dc:format>image/svg+xml</dc:format>
        <dc:type
           rdf:resource="http://purl.org/dc/dcmitype/StillImage" />
        <dc:title></dc:title>
      </cc:Work>
    </rdf:RDF>
  </metadata>
  <defs
     id="defs3340">
    <inkscape:path-effect
       effect="spiro"
       id="path-effect8765"
       is_visible="true" />
    <inkscape:path-effect
       effect="spiro"
       id="path-effect8212"
       is_visible="true" />
    <inkscape:path-effect
       effect="spiro"
       id="path-effect8208"
       is_visible="true" />
    <inkscape:path-effect
       effect="spiro"
       id="path-effect8203"
       is_visible="true" />
    <inkscape:path-effect
       effect="spiro"
       id="path-effect8212-4"
       is_visible="true" />
    <inkscape:path-effect
       effect="spiro"
       id="path-effect8212-4-9"
       is_visible="true" />
    <inkscape:path-effect
       effect="spiro"
       id="path-effect8212-4-9-0"
       is_visible="true" />
    <inkscape:path-effect
       effect="spiro"
       id="path-effect8212-4-9-1"
       is_visible="true" />
    <inkscape:path-effect
       effect="spiro"
       id="path-effect8212-4-9-17"
       is_visible="true" />
    <inkscape:path-effect
       effect="spiro"
       id="path-effect8212-4-9-17-2"
       is_visible="true" />
  </defs>
  <sodipodi:namedview
     pagecolor="#ffffff"
     bordercolor="#666666"
     borderopacity="1"
     objecttolerance="10"
     gridtolerance="10"
     guidetolerance="10"
     inkscape:pageopacity="0"
     inkscape:pageshadow="2"
     inkscape:window-width="1366"
     inkscape:window-height="745"
     id="namedview3338"
     showgrid="false"
     inkscape:zoom="1"
     inkscape:cx="358.48014"
     inkscape:cy="179.81473"
     inkscape:window-x="-8"
     inkscape:window-y="-8"
     inkscape:window-maximized="1"
     inkscape:current-layer="svg3336"
     inkscape:snap-grids="true"
     inkscape:snap-to-guides="true"
     showguides="true"
     inkscape:guide-bbox="true">
    <inkscape:grid
       type="xygrid"
       id="grid8093" />
  </sodipodi:namedview>
  <text
     xml:space="preserve"
     style="font-style:normal;font-weight:normal;font-size:75.3985672px;line-height:102.99999714%;font-family:sans-serif;letter-spacing:0px;word-spacing:0px;writing-mode:lr-tb;fill:#000000;fill-opacity:1;stroke:none;stroke-width:1px;stroke-linecap:butt;stroke-linejoin:miter;stroke-opacity:1"
     x="319.01245"
     y="136.59778"
     id="text5575"
     sodipodi:linespacing="103%"><tspan
       sodipodi:role="line"
       id="tspan5577"
       x="319.01245"
       y="136.59778"
       style="font-style:normal;font-variant:normal;font-weight:bold;font-stretch:normal;line-height:102.99999714%;font-family:'Microsoft YaHei';-inkscape-font-specification:'Microsoft YaHei Bold';writing-mode:lr-tb">NORTHEAST</tspan></text>
  <text
     xml:space="preserve"
     style="font-style:normal;font-variant:normal;font-weight:normal;font-stretch:normal;font-size:32.5px;line-height:125%;font-family:'Century Gothic';-inkscape-font-specification:'Century Gothic';letter-spacing:3.75px;word-spacing:0px;fill:#000000;fill-opacity:1;stroke:none;stroke-width:1px;stroke-linecap:butt;stroke-linejoin:miter;stroke-opacity:1"
     x="331.69223"
     y="180.68732"
     id="text5579"
     sodipodi:linespacing="125%"><tspan
       sodipodi:role="line"
       id="tspan5581"
       x="331.69223"
       y="180.68732">GENERAL CONTRACTING</tspan></text>
  <text
     xml:space="preserve"
     style="font-style:normal;font-variant:normal;font-weight:normal;font-stretch:normal;font-size:32.5px;line-height:125%;font-family:'Century Gothic';-inkscape-font-specification:'Century Gothic';letter-spacing:3.75px;word-spacing:0px;fill:#000000;fill-opacity:1;stroke:none;stroke-width:1px;stroke-linecap:butt;stroke-linejoin:miter;stroke-opacity:1"
     x="528.2785"
     y="229.34877"
     id="text5587"
     sodipodi:linespacing="125%"><tspan
       sodipodi:role="line"
       id="tspan5589"
       x="528.2785"
       y="229.34877">INC</tspan></text>
  <rect
     style="opacity:0.98000004;fill:#050b20;fill-opacity:1;fill-rule:evenodd;stroke:#050b20;stroke-width:0.56450635;stroke-linecap:butt;stroke-linejoin:miter;stroke-miterlimit:4;stroke-dasharray:none;stroke-opacity:1"
     id="rect5591"
     width="190.81174"
     height="4.4354935"
     x="328.10596"
     y="215.45927" />
  <rect
     style="opacity:0.98000004;fill:#050b20;fill-opacity:1;fill-rule:evenodd;stroke:#050b20;stroke-width:0.56450635;stroke-linecap:butt;stroke-linejoin:miter;stroke-miterlimit:4;stroke-dasharray:none;stroke-opacity:1"
     id="rect5591-9"
     width="190.81174"
     height="4.4354935"
     x="601.93512"
     y="215.45927" />
  <g
     id="g12394"
     transform="translate(33,80)">
    <path
       style="opacity:1;fill:#050b20;fill-opacity:1;fill-rule:evenodd;stroke:#050b20;stroke-width:0.96263969;stroke-linecap:butt;stroke-linejoin:miter;stroke-miterlimit:4;stroke-dasharray:none;stroke-opacity:1"
       d="m 120.99909,-79.51868 c -84.782268,9.9e-4 -153.511331,68.621851 -153.511213,153.26948 0.0059,53.1008 -0.0099,108.00426 -0.0059,153.76788 l 307.036703,0 c 0,-46.4729 -0.006,-104.52597 -0.006,-153.76788 -10e-6,-84.648419 -68.73031,-153.269593 -153.51339,-153.26948 z"
       id="path4381-9"
       inkscape:connector-curvature="0"
       sodipodi:nodetypes="ccccccc" />
    <path
       style="opacity:1;fill:#6f9ef6;fill-opacity:1;fill-rule:evenodd;stroke:#6f9ef6;stroke-width:1;stroke-linecap:butt;stroke-linejoin:miter;stroke-miterlimit:4;stroke-dasharray:none;stroke-opacity:1"
       d="M 120.99911,-75.509466 C 38.430958,-75.508498 -28.50321,-8.6797259 -28.503095,73.7573 c 0.0035,31.35524 -8.45e-4,63.35588 -0.0039,93.62654 -0.002,19.65461 -0.0034,38.57989 -0.0018,56.12563 l 299.018285,0 c 0,-45.25925 -0.006,-101.79625 -0.006,-149.75217 -4e-5,-82.4377859 -66.93543,-149.266874 -149.50435,-149.266766 z"
       id="path4381-9-3"
       inkscape:connector-curvature="0"
       sodipodi:nodetypes="ccsccccc" />
    <path
       style="opacity:1;fill:#515970;fill-opacity:1;stroke:#515970;stroke-width:1;stroke-linejoin:miter;stroke-miterlimit:4;stroke-dasharray:none;stroke-opacity:1"
       d="m -9.2792959,152.02154 0,13.33593 c 10.72763,2.77662 21.0203299,7.1952 30.1816499,12.27539 l 0,-25.61132 -30.1816499,0 z"
       id="rect8103-5-1-0-3-8-6"
       inkscape:connector-curvature="0" />
    <rect
       style="opacity:0.98999999;fill:#515970;fill-opacity:1;stroke:#515970;stroke-width:1;stroke-linejoin:miter;stroke-miterlimit:4;stroke-dasharray:none;stroke-opacity:1"
       id="rect8103-5-1-0-3-3-1-0-8"
       width="26.560478"
       height="4.1584754"
       x="-5.6579819"
       y="147.80948" />
    <path
       style="opacity:0.98000004;fill:#515970;fill-opacity:1;stroke:#515970;stroke-width:1;stroke-linejoin:miter;stroke-miterlimit:4;stroke-dasharray:none;stroke-opacity:1"
       d="m 54.992194,158.73833 0,30.06641 27.529296,0 0,-30.06641 -27.529296,0 z"
       id="rect8103-5-1-0-3-8-6-1"
       inkscape:connector-curvature="0" />
    <path
       style="opacity:0.98000004;fill:#515970;fill-opacity:1;stroke:#515970;stroke-width:1;stroke-linejoin:miter;stroke-miterlimit:4;stroke-dasharray:none;stroke-opacity:1"
       d="m 67.11426,140.7207 0,18.01758 15.4082,0 0,64.71875 3.23828,0 0,-21.93164 7.98438,0 0,-60.80469 -26.63086,0 z"
       id="rect8103-5-1-0-3-8-6-1-1"
       inkscape:connector-curvature="0" />
    <path
       style="opacity:0.98000004;fill:#515970;fill-opacity:1;stroke:#515970;stroke-width:1;stroke-linejoin:miter;stroke-miterlimit:4;stroke-dasharray:none;stroke-opacity:1"
       d="m 49.346682,188.80469 0,34.65234 33.173828,0 0,-34.65234 -33.173828,0 z"
       id="rect8103-5-1-0-3-8-6-1-3"
       inkscape:connector-curvature="0" />
    <rect
       style="opacity:0.98000004;fill:#515970;fill-opacity:1;stroke:#515970;stroke-width:1;stroke-linejoin:miter;stroke-miterlimit:4;stroke-dasharray:none;stroke-opacity:1"
       id="rect8103-5-1-0-3-3-1-0-8-0"
       width="15.00124"
       height="6.5645952"
       x="72.929321"
       y="134.00778" />
    <rect
       style="opacity:0.98000004;fill:#515970;fill-opacity:1;stroke:#515970;stroke-width:1;stroke-linejoin:miter;stroke-miterlimit:4;stroke-dasharray:none;stroke-opacity:1"
       id="rect8103-5-1-0-3-3-1-0-8-0-0"
       width="15.00124"
       height="6.5645952"
       x="58.433701"
       y="182.17941" />
    <path
       style="opacity:0.98000004;fill:#515970;fill-opacity:1;stroke:#515970;stroke-width:1;stroke-linejoin:miter;stroke-miterlimit:4;stroke-dasharray:none;stroke-opacity:1"
       d="m 85.76074,201.52539 0,21.93164 33.35742,0 0,-21.93164 -33.35742,0 z"
       id="rect8103-5-1-0-3-8-6-1-3-9"
       inkscape:connector-curvature="0" />
    <path
       style="opacity:1;fill:none;stroke:#000000;stroke-width:1;stroke-linejoin:miter;stroke-miterlimit:4;stroke-dasharray:none;stroke-opacity:1"
       d="m 119.25683,205.23242 0,18.14453 11.08789,0 0,-18.14453 -11.08789,0 z"
       id="rect8103-5-1-0-3-8-6-1-3-9-4"
       inkscape:connector-curvature="0" />
    <path
       style="opacity:1;fill:none;stroke:#000000;stroke-width:1;stroke-linejoin:miter;stroke-miterlimit:4;stroke-dasharray:none;stroke-opacity:1"
       d="m 130.42871,209.36914 0,13.67969 33.11523,0 0,-13.67969 -33.11523,0 z"
       id="rect8103-5-1-0-3-8-6-1-3-9-4-9"
       inkscape:connector-curvature="0" />
    <path
       style="opacity:0.98000004;fill:#515970;fill-opacity:1;stroke:#515970;stroke-width:1;stroke-linejoin:miter;stroke-miterlimit:4;stroke-dasharray:none;stroke-opacity:1"
       d="m 164.11816,201.79297 0,21.74609 16.29492,0 0,-21.74609 -16.29492,0 z"
       id="rect8103-5-1-0-3-8-6-1-3-9-4-9-7"
       inkscape:connector-curvature="0" />
    <path
       style="opacity:0.98000004;fill:#515970;fill-opacity:1;fill-rule:evenodd;stroke:#515970;stroke-width:1;stroke-linecap:butt;stroke-linejoin:miter;stroke-miterlimit:4;stroke-dasharray:none;stroke-opacity:1"
       d="m 147.54286,209.32982 11.81661,0 0,-20.20663 -14.06661,-8.35465 2.25,28.56128 z"
       id="path8210-6-0"
       inkscape:original-d="m 147.54286,209.32982 11.81661,0 0,-20.20663 -14.06661,-8.35465 z"
       inkscape:connector-curvature="0"
       sodipodi:nodetypes="ccccc"
       inkscape:path-effect="#path-effect8212-4-9-17-2" />
    <path
       style="opacity:0.98000004;fill:#515970;fill-opacity:1;stroke:#515970;stroke-width:1;stroke-linejoin:miter;stroke-miterlimit:4;stroke-dasharray:none;stroke-opacity:1"
       d="m 159.76269,136.33984 0,73.0293 3.78125,0 0,14.03516 16.83008,0 0,-72.00977 15.70703,0 0,-15.05469 -36.31836,0 z"
       id="rect8103-5-1-0-3-8-6-1-1-2"
       inkscape:connector-curvature="0" />
    <path
       style="opacity:0.98000004;fill:#515970;fill-opacity:1;stroke:#515970;stroke-width:1;stroke-linejoin:miter;stroke-miterlimit:4;stroke-dasharray:none;stroke-opacity:1"
       d="m 180.37207,151.39453 0,71.98242 30.98633,0 0,-71.98242 -30.98633,0 z"
       id="rect8103-5-1-0-3-8-6-1-1-2-0"
       inkscape:connector-curvature="0" />
    <path
       style="opacity:0.98000004;fill:#515970;fill-opacity:1;stroke:#515970;stroke-width:1;stroke-linejoin:miter;stroke-miterlimit:4;stroke-dasharray:none;stroke-opacity:1"
       d="m 222.54199,149.10938 0,74.34765 18.14649,-3e-5 0,-32.57419 c 9.7016,-0.001 19.9927,4.1e-4 29.89042,0.003 l -18.96074,-0.0925 0.0329,-9.36066 6.92091,-3e-5 0.0657,-32.32292 z"
       id="rect8103-5-1-0-3-8-6-1-1-2-0-8"
       inkscape:connector-curvature="0"
       sodipodi:nodetypes="cccccccccc" />
    <path
       style="opacity:0.98000004;fill:#515970;fill-opacity:1;stroke:#515970;stroke-width:1;stroke-linejoin:miter;stroke-miterlimit:4;stroke-dasharray:none;stroke-opacity:1"
       d="m 211.60058,184.15039 0,39.30664 10.60157,0 0,-39.30664 -10.60157,0 z"
       id="rect8103-5-1-0-3-8-6-1-1-2-0-8-5"
       inkscape:connector-curvature="0" />
    <path
       style="opacity:0.98000004;fill:#515970;fill-opacity:1;stroke:#515970;stroke-width:1;stroke-linejoin:miter;stroke-miterlimit:4;stroke-dasharray:none;stroke-opacity:1"
       d="m 233.81101,135.40702 0,14.0293 24.89207,0 0,31.93096 11.81064,0.0654 c 0,-15.80154 -0.0679,-29.98348 -0.0679,-46.09139 z"
       id="rect8103-5-1-0-3-8-6-1-1-2-0-8-7"
       inkscape:connector-curvature="0"
       sodipodi:nodetypes="ccccccc" />
    <path
       style="opacity:1;fill:#515970;fill-opacity:1;stroke:#515970;stroke-width:1;stroke-linejoin:miter;stroke-miterlimit:4;stroke-dasharray:none;stroke-opacity:1"
       d="m 263.02637,130.41016 0,4.6582 7.42187,0 0,-4.6582 -7.42187,0 z"
       id="rect8103-5-1-0-3-8-6-1-1-2-0-8-7-4"
       inkscape:connector-curvature="0" />
    <path
       style="opacity:1;fill:#ffffff;fill-opacity:1;stroke:#ffffff;stroke-width:1;stroke-linecap:butt;stroke-linejoin:miter;stroke-miterlimit:4;stroke-dasharray:none;stroke-opacity:1"
       d="m -28.63574,162.35938 0,61.05078 72.78711,0 0,0.1289 1.480468,0 0,-16.42383 0,-12.01953 C 29.895256,180.7577 0.66851508,163.67101 -28.63574,162.35938 Z"
       id="path8771-2"
       inkscape:connector-curvature="0" />
    <path
       style="opacity:1;fill:#a9a49f;fill-opacity:1;stroke:#a9a49f;stroke-width:1;stroke-linecap:butt;stroke-linejoin:miter;stroke-miterlimit:4;stroke-dasharray:none;stroke-opacity:1"
       d="m 114.69824,0.41016508 0,20.91991492 c 4.0798,-0.0863 8.30172,-0.13657 12.60547,-0.0801 l 0,-20.83983492 -12.60547,0 z M 121.44433,24.57422 c -2.22098,0.008 -4.49265,0.0321 -6.74609,0.0488 l 0,0.10351 c 4.10142,-0.0708 8.30496,-0.1138 12.60547,-0.0742 l 0,-0.0723 c -1.93754,-0.006 -3.87234,-0.0128 -5.85938,-0.006 z m 0.0547,3.32422 c -2.23903,0.007 -4.53095,0.0269 -6.80078,0.041 l 0,0.44336 c 2.04631,-0.0802 4.12978,-0.13419 6.25781,-0.13476 2.15893,4e-5 4.27265,0.0547 6.34766,0.13672 l 0,-0.48047 c -1.92647,-0.004 -3.83615,-0.0118 -5.80469,-0.006 z m -6.80078,27.17578 0,0.24023 c 4.15054,0.0157 8.44882,0.0299 12.60547,0.0215 l 0,-0.25977 c -2.04694,0.0803 -4.13106,0.1342 -6.25977,0.13477 -2.15849,-7e-5 -4.27112,-0.0547 -6.3457,-0.13672 z m 0,6.23828 0,140.21289 4.41992,0 0,21.93164 0.14063,0 0,-18.22461 8.04492,0 0,-143.91992 c -4.113,10e-4 -8.41328,-0.003 -12.60547,0 z"
       id="rect9028"
       inkscape:connector-curvature="0" />
    <path
       style="fill:#a9a49f;fill-opacity:1;fill-rule:evenodd;stroke:#a9a49f;stroke-width:1;stroke-linecap:butt;stroke-linejoin:miter;stroke-miterlimit:4;stroke-dasharray:none;stroke-opacity:1"
       d="m 127.27637,61.26758 -0.30665,143.96484 3.375,0 0,17.89844 0.0859,0 0,-13.76172 17.20117,0 -3.42968,-41.55273 -11.92551,-106.54883 -5,0 z"
       id="path9039"
       inkscape:connector-curvature="0"
       sodipodi:nodetypes="ccccccccccc" />
    <path
       style="fill:#6c696f;fill-opacity:1;fill-rule:evenodd;stroke:#6c6961;stroke-width:1;stroke-linecap:butt;stroke-linejoin:miter;stroke-miterlimit:4;stroke-dasharray:none;stroke-opacity:1"
       d="m 110.7086,61.36061 -15.71055,140.16483 20.00781,0 -0.29726,-140.25781 z"
       id="path9039-8"
       inkscape:connector-curvature="0"
       sodipodi:nodetypes="ccccc" />
    <path
       style="opacity:1;fill:#ffffff;fill-opacity:1;stroke:#ffffff;stroke-width:1;stroke-linecap:butt;stroke-linejoin:miter;stroke-miterlimit:4;stroke-dasharray:none;stroke-opacity:1"
       d="m 101.46712,55.25882 c -1.67193,7e-5 -3.02728,1.35541 -3.02735,3.02734 7e-5,1.67193 1.35542,3.02728 3.02735,3.02735 13.84617,0.0105 25.98084,-0.0276 39.0664,0 1.67193,-7e-5 3.02728,-1.35542 3.02735,-3.02735 -8e-5,-1.67193 -1.35543,-3.02727 -3.02735,-3.02734 -14.03871,0.1464 -25.05326,0.0773 -39.0664,0 z"
       id="path9073"
       inkscape:connector-curvature="0"
       sodipodi:nodetypes="ccccccc" />
    <path
       style="opacity:1;fill:#a3accb;fill-opacity:1;stroke:#a3accb;stroke-width:1;stroke-linecap:butt;stroke-linejoin:miter;stroke-miterlimit:4;stroke-dasharray:none;stroke-opacity:1"
       d="m 102.69476,24.98735 c -1.56684,4e-5 -2.837,0.67727 -2.83708,1.5127 9e-5,0.83542 1.27025,1.51265 2.83708,1.51269 12.51249,-0.0766 25.42502,-0.22798 36.6111,0 1.56684,-3e-5 2.83701,-0.67726 2.83709,-1.51269 -7e-5,-0.83543 -1.27024,-1.51267 -2.83709,-1.5127 -12.61922,-0.64784 -25.81692,-0.27811 -36.6111,0 z"
       id="path9073-3"
       inkscape:connector-curvature="0"
       sodipodi:nodetypes="ccccccc" />
    <path
       style="opacity:1;fill:#0a1125;fill-opacity:1;stroke:#0a1125;stroke-width:1;stroke-linecap:butt;stroke-linejoin:miter;stroke-miterlimit:4;stroke-dasharray:none;stroke-opacity:1"
       d="m 120.95447,28.24878 c -11.12048,0.003 -21.46832,1.1305 -27.45763,2.99203 0.0103,6.78844 0.0911,14.18505 0.0867,20.2619 l 0.004,0 0,0.72784 c 6.00352,1.85673 16.34791,2.97941 27.45573,2.97976 11.12049,-0.003 21.46834,-1.1305 27.45764,-2.99204 l 0,-0.71556 0.004,0 0,-20.1585 -0.0924,0 0,-0.11574 c -6.00389,-1.85685 -16.34916,-2.97954 -27.45766,-2.97976 z"
       id="rect9094-4-6-7"
       inkscape:connector-curvature="0"
       sodipodi:nodetypes="cccccccccccccc" />
    <path
       id="path9111-5-2-1-5-4-0-7"
       style="opacity:1;fill:#758199;fill-opacity:1;stroke:#758199;stroke-width:1;stroke-linecap:butt;stroke-linejoin:miter;stroke-miterlimit:4;stroke-dasharray:none;stroke-opacity:1"
       d="m 120.99934,36.1864 a 32.232203,9.0360805 0 0 0 -27.37755,4.28858 l 0,3.35901 0,3.71053 0,0.0898 a 32.232203,9.0360805 0 0 1 27.37755,-4.28859 32.232203,9.0360805 0 0 1 27.3795,4.27882 l 0,-0.0898 0,-3.71053 0,-3.359 a 32.232203,9.0360805 0 0 0 -27.3795,-4.27882 z m 0,-3.47676 a 32.232203,9.0360805 0 0 0 -27.37755,4.28858 l 0,3.35901 0,3.71053 0,0.0898 a 32.232203,9.0360805 0 0 1 27.37755,-4.28859 32.232203,9.0360805 0 0 1 27.3795,4.27882 l 0,-0.0898 0,-3.71053 0,-3.359 a 32.232203,9.0360805 0 0 0 -27.3795,-4.27882 z"
       inkscape:connector-curvature="0" />
    <path
       id="path9111-5-2-1-5-4-0"
       style="opacity:1;fill:#000000;fill-opacity:1;stroke:#000000;stroke-width:1;stroke-linecap:butt;stroke-linejoin:miter;stroke-miterlimit:4;stroke-dasharray:none;stroke-opacity:1"
       d="m 120.99934,36.1864 c -11.15859,0.005 -21.5149,1.62689 -27.37755,4.28858 l 0,3.35901 c 5.86637,-2.18115 18.03913,-3.43014 27.57492,-3.25806 10.38778,0.18747 20.86515,0.94666 27.18213,3.24829 l 0,-3.359 C 142.5074,37.8071 132.15173,36.18873 120.99934,36.1864 Z"
       inkscape:connector-curvature="0"
       sodipodi:nodetypes="ccccccc" />
    <rect
       style="opacity:1;fill:#ffffff;fill-opacity:1;stroke:#ffffff;stroke-width:1;stroke-linecap:butt;stroke-linejoin:miter;stroke-miterlimit:4;stroke-dasharray:none;stroke-opacity:1"
       id="rect9576"
       width="9.270153"
       height="17.755434"
       x="116.36522"
       y="-17.119083" />
    <rect
       style="opacity:1;fill:#a9a49f;fill-opacity:1;stroke:#a9a49f;stroke-width:1;stroke-linecap:butt;stroke-linejoin:miter;stroke-miterlimit:4;stroke-dasharray:none;stroke-opacity:1"
       id="rect9576-4"
       width="12.573449"
       height="5.8559337"
       x="114.71358"
       y="0.40956125" />
    <rect
       style="opacity:1;fill:#ffffff;fill-opacity:1;stroke:#ffffff;stroke-width:1;stroke-linecap:butt;stroke-linejoin:miter;stroke-miterlimit:4;stroke-dasharray:none;stroke-opacity:1"
       id="rect9576-6"
       width="6.0949478"
       height="12.282132"
       x="117.95284"
       y="-29.010715" />
    <rect
       style="opacity:1;fill:#ffffff;fill-opacity:1;stroke:#ffffff;stroke-width:1;stroke-linecap:butt;stroke-linejoin:miter;stroke-miterlimit:4;stroke-dasharray:none;stroke-opacity:1"
       id="rect9576-6-1"
       width="2.847667"
       height="12.923937"
       x="119.57646"
       y="-41.848957" />
    <rect
       style="opacity:1;fill:#ffffff;fill-opacity:1;stroke:#ffffff;stroke-width:1.00008655;stroke-linecap:butt;stroke-linejoin:miter;stroke-miterlimit:4;stroke-dasharray:none;stroke-opacity:1"
       id="rect9576-6-1-8"
       width="2.8479135"
       height="12.925056"
       x="119.57651"
       y="-54.622227" />
    <rect
       style="opacity:1;fill:#000000;fill-opacity:1;stroke:#000000;stroke-width:1;stroke-linecap:butt;stroke-linejoin:miter;stroke-miterlimit:4;stroke-dasharray:none;stroke-opacity:1"
       id="rect9576-6-1-8-0"
       width="1.1544377"
       height="7.1648431"
       x="120.42308"
       y="-62.721992" />
    <path
       style="opacity:1;fill:#6f82ae;fill-opacity:1;stroke:#6f82ae;stroke-width:1;stroke-linecap:butt;stroke-linejoin:miter;stroke-miterlimit:4;stroke-dasharray:none;stroke-opacity:1"
       d="m 104.7126,20.93638 c -1.39412,4e-5 -2.52427,0.69504 -2.52435,1.5524 9e-5,0.85734 1.13024,1.55235 2.52435,1.55239 11.13322,-0.0786 22.62239,-0.23397 32.57542,0 1.39412,-3e-5 2.52428,-0.69504 2.52436,-1.55239 -7e-5,-0.85736 -1.13023,-1.55237 -2.52436,-1.5524 -11.22819,-0.66484 -22.97109,-0.28541 -32.57542,0 z"
       id="path9073-3-1"
       inkscape:connector-curvature="0"
       sodipodi:nodetypes="ccccccc" />
    <path
       style="opacity:1;fill:#ff0000;stroke:#ff0000;stroke-width:1;stroke-linecap:butt;stroke-linejoin:miter;stroke-miterlimit:4;stroke-dasharray:none;stroke-opacity:1"
       d="m 16.134129,16.329055 0,24.115235 -0.01,0.8125 24.751945,-24.939455 -0.625,0.0117 z"
       id="rect9684"
       inkscape:connector-curvature="0"
       sodipodi:nodetypes="cccccc" />
    <text
       xml:space="preserve"
       style="font-style:normal;font-variant:normal;font-weight:bold;font-stretch:normal;font-size:45px;line-height:125%;font-family:'Microsoft YaHei';-inkscape-font-specification:'Microsoft YaHei Bold';letter-spacing:0px;word-spacing:0px;fill:#000000;fill-opacity:1;stroke:none;stroke-width:1px;stroke-linecap:butt;stroke-linejoin:miter;stroke-opacity:1"
       x="-19.599997"
       y="-45.986454"
       id="text9973"
       sodipodi:linespacing="125%"
       transform="matrix(-0.70710678,0.70710678,-0.70710678,-0.70710678,0,0)"><tspan
         sodipodi:role="line"
         id="tspan9975"
         x="-19.599997"
         y="-45.986454">N</tspan></text>
    <path
       style="opacity:1;fill:none;fill-opacity:1;fill-rule:nonzero;stroke:none;stroke-width:1;stroke-linecap:butt;stroke-linejoin:miter;stroke-miterlimit:4;stroke-dasharray:none;stroke-opacity:1"
       d="m -0.03535592,21.35681 0,-11.5419249 11.46653992,0 11.46653,0 -1.89691,1.9092499 c -1.0433,1.05008 -3.39049,3.41411 -5.21598,5.25339 -1.82549,1.83927 -4.66436,4.699575 -6.3085899,6.356235 -1.64423,1.65665 -4.45697,4.4865 -6.25055,6.28854 l -3.26104002,3.27643 0,-11.54192 z"
       id="path5603"
       inkscape:connector-curvature="0" />
    <path
       style="opacity:0.98000004;fill:#515970;fill-opacity:1;fill-rule:nonzero;stroke:#515970;stroke-width:1;stroke-linecap:butt;stroke-linejoin:miter;stroke-miterlimit:4;stroke-dasharray:none;stroke-opacity:1"
       d="m 46.454558,197.91448 0,25.6437 2.899518,0 0,-25.6437 -2.899518,0 z"
       id="rect5615-4"
       inkscape:connector-curvature="0" />
    <path
       style="opacity:1;fill:#ffffff;fill-opacity:1;stroke:#ffffff;stroke-width:1;stroke-linecap:butt;stroke-linejoin:miter;stroke-miterlimit:4;stroke-dasharray:none;stroke-opacity:1"
       d="m -28.63574,173.8125 0,49.94336 c 20.9228751,-0.4246 42.18998,-0.22387 60.251953,-0.2168 l 0,-12.65039 0,-9.97851 C 18.803511,189.23623 -4.7826759,175.36824 -28.63574,173.8125 Z"
       id="path8771-2-7"
       inkscape:connector-curvature="0"
       sodipodi:nodetypes="cccccc" />
    <text
       xml:space="preserve"
       style="font-style:normal;font-variant:normal;font-weight:bold;font-stretch:normal;font-size:45px;line-height:125%;font-family:'Microsoft YaHei';-inkscape-font-specification:'Microsoft YaHei Bold';letter-spacing:0px;word-spacing:0px;fill:#000000;fill-opacity:1;stroke:none;stroke-width:1px;stroke-linecap:butt;stroke-linejoin:miter;stroke-opacity:1"
       x="152.41528"
       y="123.06886"
       id="text9973-7"
       sodipodi:linespacing="125%"
       transform="matrix(0.70710678,0.70710678,0.70710678,-0.70710678,0,0)"><tspan
         sodipodi:role="line"
         id="tspan9975-4"
         x="152.41528"
         y="123.06886">E</tspan></text>
    <path
       style="opacity:0.98000004;fill:#515970;fill-opacity:1;stroke:#515970;stroke-width:1;stroke-linejoin:miter;stroke-miterlimit:4;stroke-dasharray:none;stroke-opacity:1"
       d="m 251.75457,181.44134 -0.0329,9.40791 18.72545,0.1315 0.0986,-9.53941 z"
       id="rect8103-5-1-0-3-8-6-1-1-2-0-8-7-4-1"
       inkscape:connector-curvature="0"
       sodipodi:nodetypes="ccccc" />
    <path
       style="opacity:0.98000004;fill:#515970;fill-opacity:1;stroke:#515970;stroke-width:1;stroke-linejoin:miter;stroke-miterlimit:4;stroke-dasharray:none;stroke-opacity:1"
       d="m 240.74161,190.89851 0,32.55849 29.77099,0 0,-32.55854 z"
       id="rect8103-5-1-0-3-8-6-1-1-2-0-8-7-4-1-2"
       inkscape:connector-curvature="0"
       sodipodi:nodetypes="ccccc" />
    <path
       style="opacity:1;fill:#acaba9;fill-opacity:1;stroke:#acaba9;stroke-width:1;stroke-linejoin:miter;stroke-miterlimit:4;stroke-dasharray:none;stroke-opacity:1"
       d="m -28.538527,201.53852 0,21.97345 74.197624,0 0,-21.97345 -74.197624,0 z"
       id="rect8103-5-1-0-3-8-6-1-3-9-1"
       inkscape:connector-curvature="0" />
    <path
       sodipodi:nodetypes="cccccc"
       inkscape:connector-curvature="0"
       id="path5268"
       d="m -28.615283,165.11719 -0.05215,-2.70778 c 28.04075208,0.68079 57.186984,17.26199 74.402365,32.45363 l -0.07817,1.8656 -3.687033,0.0546 C 26.924313,183.11853 -0.71995492,166.93657 -28.615283,165.11719 Z"
       style="opacity:1;fill:#a9b0c5;fill-opacity:1;stroke:#a9b0c5;stroke-width:1;stroke-linecap:butt;stroke-linejoin:miter;stroke-miterlimit:4;stroke-dasharray:none;stroke-opacity:1" />
    <path
       style="opacity:0.98000004;fill:#515970;fill-opacity:1;stroke:#515970;stroke-width:1;stroke-linejoin:miter;stroke-miterlimit:4;stroke-dasharray:none;stroke-opacity:1"
       d="m 130.30379,209.36979 0,14.04196 32.8201,0 0,-14.04196 -32.8201,0 z"
       id="rect8103-5-1-0-3-8-6-1-3-9-6"
       inkscape:connector-curvature="0" />
    <path
       style="opacity:0.98000004;fill:#515970;fill-opacity:1;stroke:#515970;stroke-width:1;stroke-linejoin:miter;stroke-miterlimit:4;stroke-dasharray:none;stroke-opacity:1"
       d="m 118.81954,205.12049 0,18.22145 11.44834,0 0,-18.22145 -11.44834,0 z"
       id="rect8103-5-1-0-3-8-6-1-3-9-6-1"
       inkscape:connector-curvature="0" />
    <rect
       style="opacity:1;fill:#000000;fill-opacity:1;stroke:#000000;stroke-width:0.97878647;stroke-linecap:butt;stroke-linejoin:miter;stroke-miterlimit:4;stroke-dasharray:none;stroke-opacity:1"
       id="rect9576-6-1-8-0-9"
       width="0.7470696"
       height="2.8692136"
       x="-40.624043"
       y="-122.45551"
       transform="matrix(0,1,-1,0,0,0)" />
    <rect
       style="opacity:1;fill:#000000;fill-opacity:1;stroke:#000000;stroke-width:0.97878647;stroke-linecap:butt;stroke-linejoin:miter;stroke-miterlimit:4;stroke-dasharray:none;stroke-opacity:1"
       id="rect9576-6-1-8-0-9-3"
       width="0.7470696"
       height="2.8692136"
       x="-30.741543"
       y="-122.435"
       transform="matrix(0,1,-1,0,0,0)" />
    <rect
       style="opacity:1;fill:#000000;fill-opacity:1;stroke:#000000;stroke-width:1.1279273;stroke-linecap:butt;stroke-linejoin:miter;stroke-miterlimit:4;stroke-dasharray:none;stroke-opacity:1"
       id="rect9576-6-1-8-0-9-9"
       width="1.5536726"
       height="5.9670725"
       x="-19.763103"
       y="-123.98056"
       transform="matrix(0,1,-1,0,0,0)" />
    <path
       style="opacity:1;fill:#6f82ae;fill-opacity:1;stroke:#6f82ae;stroke-width:1.12503386;stroke-linecap:butt;stroke-linejoin:miter;stroke-miterlimit:4;stroke-dasharray:none;stroke-opacity:1"
       d="m 112.0475,13.752625 c -0.7663,10e-5 -1.38749,1.53054 -1.38754,3.41849 6e-5,1.88796 0.62124,3.418395 1.38754,3.418465 6.11956,-0.17293 12.43475,-0.5152 17.90559,0 0.76632,-5e-5 1.3875,-1.530485 1.38755,-3.418465 -4e-5,-1.88795 -0.62123,-3.41842 -1.38755,-3.41849 -6.17175,-1.46403 -12.62641,-0.6285 -17.90559,0 z"
       id="path9073-3-1-0"
       inkscape:connector-curvature="0"
       sodipodi:nodetypes="ccccccc" />
    <path
       style="fill:#ffffff;fill-opacity:1;stroke:#ffffff;stroke-width:0.19602945;stroke-miterlimit:4;stroke-dasharray:none;stroke-opacity:1"
       inkscape:connector-curvature="0"
       d="m 71.85338,-38.752337 1.17918,3.340962 3.53743,0 -2.75132,2.161795 0.98265,3.340952 -2.94794,-1.965265 -2.94794,1.965265 0.98265,-3.340952 -2.75132,-2.161795 3.53744,0 z"
       id="path10225" />
    <path
       style="fill:#ffffff;fill-opacity:1;stroke:#ffffff;stroke-width:0.19602945;stroke-miterlimit:4;stroke-dasharray:none;stroke-opacity:1"
       inkscape:connector-curvature="0"
       d="m 24.277195,-21.169178 1.17918,3.340962 3.53743,0 -2.75132,2.161795 0.98265,3.340952 -2.94794,-1.965265 -2.94794,1.965265 0.98265,-3.340952 -2.75132,-2.161795 3.53744,0 z"
       id="path10225-4" />
    <path
       style="fill:#ffffff;fill-opacity:1;stroke:#ffffff;stroke-width:0.19602945;stroke-miterlimit:4;stroke-dasharray:none;stroke-opacity:1"
       inkscape:connector-curvature="0"
       d="m 104.78947,-16.846371 1.17918,3.340962 3.53743,0 -2.75132,2.161795 0.98265,3.3409521 -2.94794,-1.965265 -2.94794,1.965265 0.98265,-3.3409521 -2.75132,-2.161795 3.53744,0 z"
       id="path10225-3" />
    <path
       style="fill:#ffffff;fill-opacity:1;stroke:#ffffff;stroke-width:0.19602945;stroke-miterlimit:4;stroke-dasharray:none;stroke-opacity:1"
       inkscape:connector-curvature="0"
       d="m 155.0421,-15.765668 1.17918,3.340962 3.53743,0 -2.75132,2.161795 0.98265,3.3409561 -2.94794,-1.965269 -2.94794,1.965269 0.98265,-3.3409561 -2.75132,-2.161795 3.53744,0 z"
       id="path10225-1" />
    <path
       style="fill:#ffffff;fill-opacity:1;stroke:#ffffff;stroke-width:0.19602945;stroke-miterlimit:4;stroke-dasharray:none;stroke-opacity:1"
       inkscape:connector-curvature="0"
       d="m 210.15789,-23.870932 1.17918,3.340962 3.53743,0 -2.75132,2.161795 0.98265,3.340957 -2.94794,-1.96527 -2.94794,1.96527 0.98265,-3.340957 -2.75132,-2.161795 3.53744,0 z"
       id="path10225-16" />
    <path
       style="fill:#ffffff;fill-opacity:1;stroke:#ffffff;stroke-width:0.19602945;stroke-miterlimit:4;stroke-dasharray:none;stroke-opacity:1"
       inkscape:connector-curvature="0"
       d="m 166.38947,-56.291985 1.17918,3.340962 3.53743,0 -2.75132,2.161795 0.98265,3.340952 -2.94794,-1.965265 -2.94794,1.965265 0.98265,-3.340952 -2.75132,-2.161795 3.53744,0 z"
       id="path10225-13" />
    <path
       style="fill:#ffffff;fill-opacity:1;stroke:#ffffff;stroke-width:0.19602945;stroke-miterlimit:4;stroke-dasharray:none;stroke-opacity:1"
       inkscape:connector-curvature="0"
       d="m -3.8210489,-2.7972449 1.17918,3.34095998 3.53742998,0 -2.75131998,2.16179002 0.98264998,3.34096 -2.94793998,-1.96527 -2.94794,1.96527 0.98265,-3.34096 -2.75132,-2.16179002 3.53744,0 z"
       id="path10225-162" />
    <path
       style="fill:#ffffff;fill-opacity:1;stroke:#ffffff;stroke-width:0.19602945;stroke-miterlimit:4;stroke-dasharray:none;stroke-opacity:1"
       inkscape:connector-curvature="0"
       d="m 236.09474,5.3080151 1.17918,3.34097 3.53743,0 -2.75132,2.1617899 0.98265,3.34095 -2.94794,-1.96526 -2.94794,1.96526 0.98265,-3.34095 -2.75132,-2.1617899 3.53744,0 z"
       id="path10225-8" />
    <path
       style="fill:#ffffff;fill-opacity:1;stroke:#ffffff;stroke-width:0.19602945;stroke-miterlimit:4;stroke-dasharray:none;stroke-opacity:1"
       inkscape:connector-curvature="0"
       d="m 72.36842,2.0659151 1.17918,3.34096 3.53743,0 -2.75132,2.1618 0.98265,3.3409499 -2.94794,-1.9652699 -2.94794,1.9652699 0.98265,-3.3409499 -2.75132,-2.1618 3.53744,0 z"
       id="path10225-6" />
    <path
       style="fill:#ffffff;fill-opacity:1;stroke:#ffffff;stroke-width:0.19602945;stroke-miterlimit:4;stroke-dasharray:none;stroke-opacity:1"
       inkscape:connector-curvature="0"
       d="m 50.21403,-57.913039 1.17918,3.34097 3.53743,0 -2.75132,2.16179 0.98265,3.34095 -2.94794,-1.96526 -2.94794,1.96526 0.98265,-3.34095 -2.75132,-2.16179 3.53744,0 z"
       id="path10225-5" />
    <path
       style="fill:#ffffff;fill-opacity:1;stroke:#ffffff;stroke-width:0.19602945;stroke-miterlimit:4;stroke-dasharray:none;stroke-opacity:1"
       inkscape:connector-curvature="0"
       d="m 97.77193,-68.751634 1.17918,3.340962 3.53743,0 -2.75132,2.161795 0.98265,3.340952 -2.94794,-1.965265 -2.94794,1.965265 0.98265,-3.340952 -2.75132,-2.161795 3.53744,0 z"
       id="path10225-36" />
  </g>
</svg>
