<?xml version="1.0" encoding="UTF-8" standalone="no"?>
<!-- Created with Inkscape (http://www.inkscape.org/) -->

<svg
   xmlns:dc="http://purl.org/dc/elements/1.1/"
   xmlns:cc="http://creativecommons.org/ns#"
   xmlns:rdf="http://www.w3.org/1999/02/22-rdf-syntax-ns#"
   xmlns:svg="http://www.w3.org/2000/svg"
   xmlns="http://www.w3.org/2000/svg"
   xmlns:sodipodi="http://sodipodi.sourceforge.net/DTD/sodipodi-0.dtd"
   xmlns:inkscape="http://www.inkscape.org/namespaces/inkscape"
   id="svg3336"
   version="1.1"
   inkscape:version="0.91 r13725"
   width="800"
   height="400"
   viewBox="0 0 800 400"
   sodipodi:docname="logo.svg">
  <metadata
     id="metadata3342">
    <rdf:RDF>
      <cc:Work
         rdf:about="">
        <dc:format>image/svg+xml</dc:format>
        <dc:type
           rdf:resource="http://purl.org/dc/dcmitype/StillImage" />
        <dc:title />
      </cc:Work>
    </rdf:RDF>
  </metadata>
  <defs
     id="defs3340">
    <inkscape:path-effect
       effect="spiro"
       id="path-effect8765"
       is_visible="true" />
    <inkscape:path-effect
       effect="spiro"
       id="path-effect8212"
       is_visible="true" />
    <inkscape:path-effect
       effect="spiro"
       id="path-effect8208"
       is_visible="true" />
    <inkscape:path-effect
       effect="spiro"
       id="path-effect8203"
       is_visible="true" />
    <inkscape:path-effect
       effect="spiro"
       id="path-effect8212-4"
       is_visible="true" />
    <inkscape:path-effect
       effect="spiro"
       id="path-effect8212-4-9"
       is_visible="true" />
    <inkscape:path-effect
       effect="spiro"
       id="path-effect8212-4-9-0"
       is_visible="true" />
  </defs>
  <sodipodi:namedview
     pagecolor="#ffffff"
     bordercolor="#666666"
     borderopacity="1"
     objecttolerance="10"
     gridtolerance="10"
     guidetolerance="10"
     inkscape:pageopacity="0"
     inkscape:pageshadow="2"
     inkscape:window-width="1366"
     inkscape:window-height="745"
     id="namedview3338"
     showgrid="false"
     inkscape:zoom="8.65"
     inkscape:cx="391.64974"
     inkscape:cy="191.14144"
     inkscape:window-x="-8"
     inkscape:window-y="-8"
     inkscape:window-maximized="1"
     inkscape:current-layer="svg3336"
     inkscape:snap-grids="true"
     inkscape:snap-to-guides="true"
     showguides="true">
    <inkscape:grid
       type="xygrid"
       id="grid8093" />
  </sodipodi:namedview>
  <rect
     style="opacity:1;fill:none;stroke:#000000;stroke-width:2;stroke-linejoin:miter;stroke-miterlimit:4;stroke-dasharray:none;stroke-opacity:1"
     id="rect8103"
     width="25.5"
     height="62.5"
     x="-1.110223e-016"
     y="336.5" />
  <rect
     style="opacity:1;fill:none;stroke:#000000;stroke-width:2;stroke-linejoin:miter;stroke-miterlimit:4;stroke-dasharray:none;stroke-opacity:1"
     id="rect8103-5"
     width="37.41272"
     height="92.067055"
     x="25.966475"
     y="306.93292" />
  <rect
     style="opacity:1;fill:none;stroke:#000000;stroke-width:2;stroke-linejoin:miter;stroke-miterlimit:4;stroke-dasharray:none;stroke-opacity:1"
     id="rect8103-5-1"
     width="43.566372"
     height="67.220703"
     x="63.466816"
     y="331.7793" />
  <rect
     style="opacity:1;fill:none;stroke:#000000;stroke-width:2;stroke-linejoin:miter;stroke-miterlimit:4;stroke-dasharray:none;stroke-opacity:1"
     id="rect8103-5-1-0"
     width="31.314262"
     height="93.718605"
     x="107.71787"
     y="305.28137" />
  <rect
     style="opacity:1;fill:none;stroke:#000000;stroke-width:2;stroke-linejoin:miter;stroke-miterlimit:4;stroke-dasharray:none;stroke-opacity:1"
     id="rect8103-5-1-0-3"
     width="23.870962"
     height="64.025307"
     x="139.31453"
     y="334.97467" />
  <rect
     style="opacity:1;fill:none;stroke:#000000;stroke-width:2;stroke-linejoin:miter;stroke-miterlimit:4;stroke-dasharray:none;stroke-opacity:1"
     id="rect8103-5-1-0-3-3"
     width="14.676993"
     height="7.8313389"
     x="67.286484"
     y="323.77179" />
  <rect
     style="opacity:1;fill:none;stroke:#000000;stroke-width:2;stroke-linejoin:miter;stroke-miterlimit:4;stroke-dasharray:none;stroke-opacity:1"
     id="rect8103-5-1-0-3-3-1"
     width="14.676993"
     height="7.8313389"
     x="86.911507"
     y="323.77179" />
  <path
     style="fill:none;fill-rule:evenodd;stroke:#000000;stroke-width:2;stroke-linecap:butt;stroke-linejoin:miter;stroke-miterlimit:4;stroke-dasharray:none;stroke-opacity:1;fill-opacity:1"
     d="m 31.819805,306.81086 0,-7.6014 18.384777,0 7.601397,7.6014 -25.986174,0 z"
     id="path8210"
     inkscape:path-effect="#path-effect8212"
     inkscape:original-d="m 31.819805,306.81086 0,-7.6014 18.384777,0 7.601397,7.6014 z"
     inkscape:connector-curvature="0" />
  <path
     style="fill:none;fill-rule:evenodd;stroke:#000000;stroke-width:2;stroke-linecap:butt;stroke-linejoin:miter;stroke-miterlimit:4;stroke-dasharray:none;stroke-opacity:1"
     d="m 110.02037,305.18619 0,-7.71082 16.75525,0 6.92765,7.71082 -23.6829,0 z"
     id="path8210-6"
     inkscape:path-effect="#path-effect8212-4"
     inkscape:original-d="m 110.02037,305.18619 0,-7.71082 16.75525,0 6.92765,7.71082 z"
     inkscape:connector-curvature="0" />
  <rect
     style="opacity:1;fill:none;stroke:#000000;stroke-width:2;stroke-linejoin:miter;stroke-miterlimit:4;stroke-dasharray:none;stroke-opacity:1"
     id="rect8103-5-1-0-3-3-1-0"
     width="14.676993"
     height="7.8313389"
     x="139.03261"
     y="327.11359" />
  <path
     style="opacity:1;fill:none;stroke:#000000;stroke-width:2;stroke-linejoin:miter;stroke-miterlimit:4;stroke-dasharray:none;stroke-opacity:1"
     d="m 177.74609,334.97459 0,23.75 c 6.80308,-5.08954 14.9225,-10.1476 23.8711,-14.42188 l 0,-9.32812 -23.8711,0 z"
     id="rect8103-5-1-0-3-8"
     inkscape:connector-curvature="0" />
  <path
     style="opacity:1;fill:none;stroke:#000000;stroke-width:2;stroke-linejoin:miter;stroke-miterlimit:4;stroke-dasharray:none;stroke-opacity:1"
     d="m 269.67773,322.69139 0,13.33593 c 10.72763,2.77662 21.02033,7.1952 30.18165,12.27539 l 0,-25.61132 -30.18165,0 z"
     id="rect8103-5-1-0-3-8-6"
     inkscape:connector-curvature="0" />
  <rect
     style="opacity:1;fill:none;stroke:#000000;stroke-width:2;stroke-linejoin:miter;stroke-miterlimit:4;stroke-dasharray:none;stroke-opacity:1"
     id="rect8103-5-1-0-3-3-1-0-8"
     width="26.560478"
     height="4.1584754"
     x="273.29904"
     y="318.07825" />
  <path
     style="opacity:1;fill:none;stroke:#000000;stroke-width:2;stroke-linejoin:miter;stroke-miterlimit:4;stroke-dasharray:none;stroke-opacity:1"
     d="m 333.94922,329.40818 0,30.06641 27.5293,0 0,-30.06641 -27.5293,0 z"
     id="rect8103-5-1-0-3-8-6-1"
     inkscape:connector-curvature="0" />
  <path
     style="opacity:1;fill:none;stroke:#000000;stroke-width:2;stroke-linejoin:miter;stroke-miterlimit:4;stroke-dasharray:none;stroke-opacity:1"
     d="m 346.07031,311.3906 0,18.01758 15.40821,0 0,69.5918 3.23828,0 0,-26.80469 7.98632,0 0,-60.80469 -26.63281,0 z"
     id="rect8103-5-1-0-3-8-6-1-1"
     inkscape:connector-curvature="0" />
  <rect
     style="opacity:1;fill:none;stroke:#000000;stroke-width:2;stroke-linejoin:miter;stroke-miterlimit:4;stroke-dasharray:none;stroke-opacity:1"
     id="rect8103-5-1-0-3-8-6-1-3"
     width="33.173496"
     height="39.526009"
     x="328.30463"
     y="359.474" />
  <rect
     style="opacity:1;fill:none;stroke:#000000;stroke-width:2;stroke-linejoin:miter;stroke-miterlimit:4;stroke-dasharray:none;stroke-opacity:1"
     id="rect8103-5-1-0-3-3-1-0-8-0"
     width="15.00124"
     height="6.5645952"
     x="351.88638"
     y="304.67761" />
  <rect
     style="opacity:1;fill:none;stroke:#000000;stroke-width:2;stroke-linejoin:miter;stroke-miterlimit:4;stroke-dasharray:none;stroke-opacity:1"
     id="rect8103-5-1-0-3-3-1-0-8-0-0"
     width="15.00124"
     height="6.5645952"
     x="337.39075"
     y="352.84924" />
  <rect
     style="opacity:1;fill:none;stroke:#000000;stroke-width:2;stroke-linejoin:miter;stroke-miterlimit:4;stroke-dasharray:none;stroke-opacity:1"
     id="rect8103-5-1-0-3-8-6-1-3-9"
     width="33.357166"
     height="26.804979"
     x="364.71713"
     y="372.19501" />
  <rect
     style="opacity:1;fill:none;stroke:#000000;stroke-width:2;stroke-linejoin:miter;stroke-miterlimit:4;stroke-dasharray:none;stroke-opacity:1"
     id="rect8103-5-1-0-3-8-6-1-3-9-4"
     width="11.088033"
     height="23.097401"
     x="398.21396"
     y="375.90259" />
  <rect
     style="opacity:1;fill:none;stroke:#000000;stroke-width:2;stroke-linejoin:miter;stroke-miterlimit:4;stroke-dasharray:none;stroke-opacity:1"
     id="rect8103-5-1-0-3-8-6-1-3-9-4-9"
     width="33.114258"
     height="18.960674"
     x="409.38635"
     y="380.03931" />
  <rect
     style="opacity:1;fill:none;stroke:#000000;stroke-width:2;stroke-linejoin:miter;stroke-miterlimit:4;stroke-dasharray:none;stroke-opacity:1"
     id="rect8103-5-1-0-3-8-6-1-3-9-4-9-7"
     width="16.295086"
     height="26.536686"
     x="443.07498"
     y="372.46332" />
  <path
     style="fill:none;fill-rule:evenodd;stroke:#000000;stroke-width:2;stroke-linecap:butt;stroke-linejoin:miter;stroke-miterlimit:4;stroke-dasharray:none;stroke-opacity:1"
     d="m 426.49989,379.99967 11.81661,0 0,-20.20663 -14.06661,-8.35465 2.25,28.56128 z"
     id="path8210-6-0"
     inkscape:path-effect="#path-effect8212-4-9"
     inkscape:original-d="m 426.49989,379.99967 11.81661,0 0,-20.20663 -14.06661,-8.35465 z"
     inkscape:connector-curvature="0"
     sodipodi:nodetypes="ccccc" />
  <path
     style="opacity:1;fill:none;stroke:#000000;stroke-width:2;stroke-linejoin:miter;stroke-miterlimit:4;stroke-dasharray:none;stroke-opacity:1"
     d="m 438.7207,307.00975 0,73.02929 3.7793,0 0,18.96094 16.83008,0 0,-76.93555 15.70703,0 0,-15.05468 -36.31641,0 z"
     id="rect8103-5-1-0-3-8-6-1-1-2"
     inkscape:connector-curvature="0" />
  <rect
     style="opacity:1;fill:none;stroke:#000000;stroke-width:2;stroke-linejoin:miter;stroke-miterlimit:4;stroke-dasharray:none;stroke-opacity:1"
     id="rect8103-5-1-0-3-8-6-1-1-2-0"
     width="30.985136"
     height="76.935623"
     x="459.32968"
     y="322.06439" />
  <path
     style="opacity:1;fill:none;stroke:#000000;stroke-width:2;stroke-linejoin:miter;stroke-miterlimit:4;stroke-dasharray:none;stroke-opacity:1"
     d="m 501.49805,319.77928 0,79.2207 18.14648,0 0,-37.44727 17.95117,0 0,-0.0898 -7.02148,0 0,-9.29492 7.02148,0 0,-32.38867 -36.09765,0 z"
     id="rect8103-5-1-0-3-8-6-1-1-2-0-8"
     inkscape:connector-curvature="0" />
  <rect
     style="opacity:1;fill:none;stroke:#000000;stroke-width:2;stroke-linejoin:miter;stroke-miterlimit:4;stroke-dasharray:none;stroke-opacity:1"
     id="rect8103-5-1-0-3-8-6-1-1-2-0-8-5"
     width="10.602809"
     height="44.178925"
     x="490.55719"
     y="354.82104" />
  <path
     style="opacity:1;fill:none;stroke:#000000;stroke-width:2;stroke-linejoin:miter;stroke-miterlimit:4;stroke-dasharray:none;stroke-opacity:1"
     d="m 513.48633,305.74998 0,14.0293 24.10937,0 0,32.38867 16.11719,0 0,-46.41797 -40.22656,0 z m 24.10937,55.71289 0,0.0898 16.11719,0 0,-0.0898 -16.11719,0 z"
     id="rect8103-5-1-0-3-8-6-1-1-2-0-8-7"
     inkscape:connector-curvature="0" />
  <rect
     style="opacity:1;fill:none;stroke:#000000;stroke-width:2;stroke-linejoin:miter;stroke-miterlimit:4;stroke-dasharray:none;stroke-opacity:1"
     id="rect8103-5-1-0-3-8-6-1-1-2-0-8-7-4"
     width="11.730572"
     height="4.6587152"
     x="541.98328"
     y="300.54462" />
  <rect
     style="opacity:1;fill:none;stroke:#000000;stroke-width:2;stroke-linejoin:miter;stroke-miterlimit:4;stroke-dasharray:none;stroke-opacity:1"
     id="rect8103-5-1-0-3-8-6-1-1-2-0-8-7-0"
     width="49.831684"
     height="37.447845"
     x="519.64478"
     y="361.55212" />
  <rect
     style="opacity:1;fill:none;stroke:#000000;stroke-width:2;stroke-linejoin:miter;stroke-miterlimit:4;stroke-dasharray:none;stroke-opacity:1"
     id="rect8103-5-1-0-3-8-6-1-1-2-0-8-7-4-1"
     width="27.974207"
     height="9.2940645"
     x="530.57349"
     y="352.16895" />
  <rect
     style="opacity:1;fill:none;stroke:#000000;stroke-width:2;stroke-linejoin:miter;stroke-miterlimit:4;stroke-dasharray:none;stroke-opacity:1"
     id="rect8103-5-1-0-3-8-6-1-1-2-0-8-7-0-7"
     width="12.573601"
     height="31.30246"
     x="569.56329"
     y="367.69751" />
  <rect
     style="opacity:1;fill:none;stroke:#000000;stroke-width:2;stroke-linejoin:miter;stroke-miterlimit:4;stroke-dasharray:none;stroke-opacity:1"
     id="rect8103-5-1-0-3-8-6-1-1-2-0-8-7-0-7-2"
     width="24.466187"
     height="40.89695"
     x="582.44373"
     y="358.10303" />
  <path
     style="opacity:1;fill:none;stroke:#000000;stroke-width:2;stroke-linejoin:miter;stroke-miterlimit:4;stroke-dasharray:none;stroke-opacity:1"
     d="m 595.39062,347.22654 0,10.87696 11.51954,0 0,40.89648 17.19922,0 0,-51.77344 -28.71876,0 z"
     id="rect8103-5-1-0-3-8-6-1-1-2-0-8-7-0-7-2-3"
     inkscape:connector-curvature="0" />
  <path
     style="opacity:1;fill:none;stroke:#000000;stroke-width:2;stroke-linejoin:miter;stroke-miterlimit:4;stroke-dasharray:none;stroke-opacity:1"
     d="m 624.36719,354.541 0,44.45898 5.27148,0 0,-44.45898 -5.27148,0 z m 33.99023,0 0,44.45898 30.72461,0 0,-44.45898 -30.72461,0 z"
     id="rect8103-5-1-0-3-8-6-1-1-2-0-8-7-0-7-2-3-1"
     inkscape:connector-curvature="0" />
  <rect
     style="opacity:1;fill:none;stroke:#000000;stroke-width:2;stroke-linejoin:miter;stroke-miterlimit:4;stroke-dasharray:none;stroke-opacity:1"
     id="rect8103-5-1-0-3-8-6-1-1-2-0-8-7-0-7-2-3-4"
     width="28.718056"
     height="51.772682"
     x="629.63849"
     y="347.22729" />
  <path
     style="opacity:1;fill:none;stroke:#000000;stroke-width:2;stroke-linejoin:miter;stroke-miterlimit:4;stroke-dasharray:none;stroke-opacity:1"
     d="m 671.87109,345.07029 0,9.47071 17.21094,0 0,44.45898 19.84961,0 0,-53.92969 -37.06055,0 z"
     id="rect8103-5-1-0-3-8-6-1-1-2-0-8-7-0-7-2-3-2"
     inkscape:connector-curvature="0" />
  <path
     style="opacity:1;fill:none;stroke:#000000;stroke-width:2;stroke-linejoin:miter;stroke-miterlimit:4;stroke-dasharray:none;stroke-opacity:1"
     d="m 689.12109,333.46287 0,11.60742 19.81055,0 0,53.92969 23.76172,0 0,-65.53711 -43.57227,0 z"
     id="rect8103-5-1-0-3-8-6-1-1-2-0-8-7-0-7-2-3-2-0"
     inkscape:connector-curvature="0" />
  <rect
     style="opacity:1;fill:none;stroke:#000000;stroke-width:2;stroke-linejoin:miter;stroke-miterlimit:4;stroke-dasharray:none;stroke-opacity:1"
     id="rect8103-5-1-0-3-8-6-1-1-2-0-8-7-0-7-2-3-2-0-8"
     width="41.207729"
     height="86.508102"
     x="732.88763"
     y="312.49188" />
  <path
     style="opacity:1;fill:none;stroke:#000000;stroke-width:2;stroke-linejoin:miter;stroke-miterlimit:4;stroke-dasharray:none;stroke-opacity:1"
     d="m 712.24219,289.7617 0,43.70117 20.45117,0 0,65.53711 0.19336,0 0,-86.50781 14.47851,0 0,-22.73047 -35.12304,0 z"
     id="rect8103-5-1-0-3-8-6-1-1-2-0-8-7-0-7-2-3-2-0-8-6"
     inkscape:connector-curvature="0" />
  <rect
     style="opacity:1;fill:none;stroke:#000000;stroke-width:2;stroke-linejoin:miter;stroke-miterlimit:4;stroke-dasharray:none;stroke-opacity:1"
     id="rect8103-5-1-0-3-8-6-1-1-2-0-8-7-0-7-2-3-2-0-8-66"
     width="16.111971"
     height="89.873383"
     x="784.18066"
     y="309.12659" />
  <rect
     style="opacity:1;fill:none;stroke:#000000;stroke-width:2;stroke-linejoin:miter;stroke-miterlimit:4;stroke-dasharray:none;stroke-opacity:1"
     id="rect8103-5-1-0-3-8-6-1-1-2-0-8-7-0-7-2-3-2-0-8-66-6"
     width="10.463161"
     height="51.697659"
     x="773.8233"
     y="347.30231" />
  <path
     id="path8771-2"
     style="opacity:1;fill:none;stroke:#000000;stroke-width:2;stroke-linecap:butt;stroke-linejoin:miter;stroke-miterlimit:4;stroke-dasharray:none;stroke-opacity:1"
     d="m 246.86116,332.94154 c -30.4578,0.0333 -61.34767,17.91356 -77.71196,32.82344 l 0,12.72753 -5.3e-4,20.50747 155.43924,0 2e-4,-21.21458 0,-12.02042 C 308.23202,350.86253 277.30373,332.9834 246.86116,332.94154 Z m 10e-4,14.74985 c -25.00539,0.0259 -50.36551,14.82586 -63.80034,26.40659 l -0.35355,13.08196 0.35311,11.82004 127.61328,0 1.6e-4,-11.82004 0,-13.08196 c -13.4281,-11.57496 -38.81977,-26.37408 -63.81266,-26.40659 z"
     inkscape:connector-curvature="0"
     sodipodi:nodetypes="cccccccccccccccc" />
  <path
     style="opacity:1;fill:none;stroke:#000000;stroke-width:2;stroke-linecap:butt;stroke-linejoin:miter;stroke-miterlimit:4;stroke-dasharray:none;stroke-opacity:1"
     d="m 393.6543,171.08006 0,20.91992 c 4.0798,-0.0863 8.30172,-0.13659 12.60547,-0.0801 l 0,-20.83984 -12.60547,0 z m 6.74609,24.16406 c -2.22098,0.008 -4.49265,0.0321 -6.74609,0.0488 l 0,0.10351 c 4.10142,-0.0708 8.30496,-0.11378 12.60547,-0.0742 l 0,-0.0723 c -1.93754,-0.006 -3.87234,-0.0129 -5.85938,-0.006 z m 0.0547,3.32422 c -2.23903,0.007 -4.53095,0.0269 -6.80078,0.041 l 0,0.44335 c 2.04631,-0.0802 4.12978,-0.13419 6.25781,-0.13476 2.15893,4e-5 4.27265,0.0547 6.34766,0.13672 l 0,-0.48047 c -1.92647,-0.004 -3.83615,-0.0119 -5.80469,-0.006 z m -6.80078,27.17578 0,0.24024 c 4.15054,0.0157 8.44882,0.0299 12.60547,0.0215 l 0,-0.25977 c -2.04694,0.0803 -4.13106,0.1342 -6.25977,0.13477 -2.15849,-7e-5 -4.27112,-0.0547 -6.3457,-0.13672 z m 0,6.23828 0,140.21289 4.41992,0 0,26.80469 0.14062,0 0,-23.09766 8.04493,0 0,-143.91992 c -4.113,0.001 -8.41328,-0.003 -12.60547,0 z"
     id="rect9028"
     inkscape:connector-curvature="0" />
  <path
     style="fill:none;fill-rule:evenodd;stroke:#000000;stroke-width:2;stroke-linecap:butt;stroke-linejoin:miter;stroke-miterlimit:4;stroke-dasharray:none;stroke-opacity:1"
     d="m 406.23242,231.93748 -0.30469,143.96484 3.375,0 0,22.93946 0.084,0 0,-18.80274 17.20117,0 -3.42925,-41.55215 -8.79341,-106.54941 z"
     id="path9039"
     inkscape:connector-curvature="0"
     sodipodi:nodetypes="cccccccccc" />
  <path
     style="fill:none;fill-rule:evenodd;stroke:#000000;stroke-width:2;stroke-linecap:butt;stroke-linejoin:miter;stroke-miterlimit:4;stroke-dasharray:none;stroke-opacity:1"
     d="m 385.5332,231.93748 -11.57812,140.25781 20.00781,0 -0.29687,-140.25781 -8.13282,0 z"
     id="path9039-8"
     inkscape:connector-curvature="0" />
  <path
     style="opacity:1;fill:none;stroke:#000000;stroke-width:2;stroke-linecap:butt;stroke-linejoin:miter;stroke-miterlimit:4;stroke-dasharray:none;stroke-opacity:1"
     d="m 380.42415,225.92867 c -1.67193,7e-5 -3.02728,1.35541 -3.02735,3.02734 7e-5,1.67193 1.35542,3.02728 3.02735,3.02735 13.84617,0.0105 25.98084,-0.0276 39.0664,0 1.67193,-7e-5 3.02728,-1.35542 3.02735,-3.02735 -8e-5,-1.67193 -1.35543,-3.02727 -3.02735,-3.02734 -14.03871,0.1464 -25.05326,0.0773 -39.0664,0 z"
     id="path9073"
     inkscape:connector-curvature="0"
     sodipodi:nodetypes="ccccccc" />
  <path
     style="opacity:1;fill:none;stroke:#000000;stroke-width:2;stroke-linecap:butt;stroke-linejoin:miter;stroke-miterlimit:4;stroke-dasharray:none;stroke-opacity:1"
     d="m 381.65179,195.65719 c -1.56684,4e-5 -2.837,0.67727 -2.83708,1.5127 9e-5,0.83542 1.27025,1.51265 2.83708,1.51269 12.51249,-0.0766 25.42502,-0.22798 36.6111,0 1.56684,-3e-5 2.83701,-0.67726 2.83709,-1.51269 -7e-5,-0.83543 -1.27024,-1.51267 -2.83709,-1.5127 -12.61922,-0.64784 -25.81692,-0.27811 -36.6111,0 z"
     id="path9073-3"
     inkscape:connector-curvature="0"
     sodipodi:nodetypes="ccccccc" />
  <path
     style="opacity:1;fill:none;stroke:#000000;stroke-width:2;stroke-linecap:butt;stroke-linejoin:miter;stroke-miterlimit:4;stroke-dasharray:none;stroke-opacity:1"
     d="m 399.9115,198.91862 c -11.12048,0.003 -21.46832,1.1305 -27.45763,2.99203 0.0103,6.78845 0.0911,14.18506 0.0867,20.26191 l 0.004,0 0,0.72784 c 6.00352,1.85673 16.34791,2.97941 27.45573,2.97976 11.12049,-0.003 21.46834,-1.1305 27.45764,-2.99204 l 0,-0.71556 0.004,0 0,-20.15851 -0.0924,0 0,-0.11574 c -6.00389,-1.85685 -16.34916,-2.97954 -27.45766,-2.97976 z"
     id="rect9094-4-6-7"
     inkscape:connector-curvature="0"
     sodipodi:nodetypes="cccccccccccccc" />
  <path
     id="path9111-5-2-1-5-4-0"
     style="opacity:1;fill:none;stroke:#000000;stroke-width:2;stroke-linecap:butt;stroke-linejoin:miter;stroke-miterlimit:4;stroke-dasharray:none;stroke-opacity:1"
     d="m 399.95637,206.85624 a 32.232203,9.0360805 0 0 0 -27.37755,4.28859 l 0,3.35901 0,3.71053 0,0.0898 a 32.232203,9.0360805 0 0 1 27.37755,-4.28859 32.232203,9.0360805 0 0 1 27.3795,4.27882 l 0,-0.0898 0,-3.71053 0,-3.359 a 32.232203,9.0360805 0 0 0 -27.3795,-4.27883 z m 0,-3.47676 a 32.232203,9.0360805 0 0 0 -27.37755,4.28859 l 0,3.35901 0,3.71053 0,0.0898 a 32.232203,9.0360805 0 0 1 27.37755,-4.28859 32.232203,9.0360805 0 0 1 27.3795,4.27882 l 0,-0.0898 0,-3.71053 0,-3.359 a 32.232203,9.0360805 0 0 0 -27.3795,-4.27883 z"
     inkscape:connector-curvature="0" />
  <rect
     style="opacity:1;fill:none;stroke:#000000;stroke-width:2;stroke-linecap:butt;stroke-linejoin:miter;stroke-miterlimit:4;stroke-dasharray:none;stroke-opacity:1"
     id="rect9576"
     width="9.270153"
     height="17.755434"
     x="395.32227"
     y="153.55077" />
  <rect
     style="opacity:1;fill:none;stroke:#000000;stroke-width:2;stroke-linecap:butt;stroke-linejoin:miter;stroke-miterlimit:4;stroke-dasharray:none;stroke-opacity:1"
     id="rect9576-4"
     width="12.573449"
     height="5.8559337"
     x="393.67062"
     y="171.07939" />
  <rect
     style="opacity:1;fill:none;stroke:#000000;stroke-width:2;stroke-linecap:butt;stroke-linejoin:miter;stroke-miterlimit:4;stroke-dasharray:none;stroke-opacity:1"
     id="rect9576-6"
     width="6.0949478"
     height="12.282132"
     x="396.90988"
     y="141.65915" />
  <rect
     style="opacity:1;fill:none;stroke:#000000;stroke-width:2;stroke-linecap:butt;stroke-linejoin:miter;stroke-miterlimit:4;stroke-dasharray:none;stroke-opacity:1"
     id="rect9576-6-1"
     width="2.847667"
     height="12.923937"
     x="398.53351"
     y="128.82089" />
  <rect
     style="opacity:1;fill:none;stroke:#000000;stroke-width:2;stroke-linecap:butt;stroke-linejoin:miter;stroke-miterlimit:4;stroke-dasharray:none;stroke-opacity:1"
     id="rect9576-6-1-8"
     width="2.847667"
     height="12.923937"
     x="398.53351"
     y="116.04878" />
  <rect
     style="opacity:1;fill:none;stroke:#000000;stroke-width:2;stroke-linecap:butt;stroke-linejoin:miter;stroke-miterlimit:4;stroke-dasharray:none;stroke-opacity:1"
     id="rect9576-6-1-8-0"
     width="1.1544377"
     height="7.1648431"
     x="399.38013"
     y="108.64149" />
  <path
     style="opacity:1;fill:none;stroke:#000000;stroke-width:1;stroke-linecap:butt;stroke-linejoin:miter;stroke-miterlimit:4;stroke-dasharray:none;stroke-opacity:1"
     d="m 278.38477,179.95701 0,24.11524 -0.01,0.8125 24.75195,-24.93946 -0.625,0.0117 z"
     id="rect9684"
     inkscape:connector-curvature="0"
     sodipodi:nodetypes="cccccc" />
  <path
     style="opacity:1;fill:none;stroke:#000000;stroke-width:1.91114759;stroke-linecap:butt;stroke-linejoin:miter;stroke-miterlimit:4;stroke-dasharray:none;stroke-opacity:1"
     d="m 383.66963,192.2575 c -1.39412,4e-5 -2.52427,0.69504 -2.52435,1.5524 9e-5,0.85734 1.13024,1.55235 2.52435,1.55239 11.13322,-0.0786 22.62239,-0.23397 32.57542,0 1.39412,-3e-5 2.52428,-0.69504 2.52436,-1.55239 -7e-5,-0.85736 -1.13023,-1.55237 -2.52436,-1.5524 -11.22819,-0.66484 -22.97109,-0.28541 -32.57542,0 z"
     id="path9073-3-1"
     inkscape:connector-curvature="0"
     sodipodi:nodetypes="ccccccc" />
  <path
     style="opacity:1;fill:none;stroke:#000000;stroke-width:1;stroke-linecap:butt;stroke-linejoin:miter;stroke-miterlimit:4;stroke-dasharray:none;stroke-opacity:1"
     d="m 245.87695,146.03123 -1.40039,1.39844 33.90821,33.91797 0,-1.39063 1.4082,0 -33.91602,-33.92578 z m 303.77344,0 -50.1875,50.20117 c -17.54688,-21.43844 -41.95825,-37.17631 -70.25586,-43.78711 l 0,2 c 27.27101,6.58416 51.21958,22.32876 68.53906,43.50391 l -48.11914,48.13281 1.40039,1.40039 47.96094,-47.97656 c 8.61764,10.86955 15.51987,23.10473 20.25391,36.23633 3.3834,9.38511 5.66408,19.22462 6.68554,29.33984 l 2,0 c -2.47771,-25.1997 -12.22154,-48.37584 -27.22265,-67.29297 l 50.34375,-50.35937 -1.39844,-1.39844 z m -178.94336,6.41406 c -29.34948,6.88274 -54.4997,23.59121 -72.14648,46.28516 l -7.06446,-7.06641 -1.39453,1.4043 7.23438,7.23633 c -13.88749,18.44162 -22.88243,40.68968 -25.2461,64.77734 l 2,0 c 2.34294,-23.20737 11.27519,-44.94926 24.92578,-63.09765 L 344.5,247.4824 l 1.40039,-1.40039 -45.6582,-45.66992 c 17.41321,-22.4283 42.10505,-39.15053 70.46484,-45.9668 l 0,-2 z"
     id="path9902-1"
     inkscape:connector-curvature="0" />
  <text
     xml:space="preserve"
     style="font-style:normal;font-variant:normal;font-weight:normal;font-stretch:normal;font-size:32.5px;line-height:125%;font-family:'Century Gothic';-inkscape-font-specification:'Century Gothic';letter-spacing:0px;word-spacing:0px;fill:#000000;fill-opacity:1;stroke:none;stroke-width:1px;stroke-linecap:butt;stroke-linejoin:miter;stroke-opacity:1"
     x="319.5"
     y="199.74998"
     id="text9965"
     sodipodi:linespacing="125%"><tspan
       sodipodi:role="line"
       id="tspan9967"
       x="319.5"
       y="199.74998" /></text>
  <text
     xml:space="preserve"
     style="font-style:normal;font-variant:normal;font-weight:normal;font-stretch:normal;font-size:32.5px;line-height:125%;font-family:'Century Gothic';-inkscape-font-specification:'Century Gothic';letter-spacing:0px;word-spacing:0px;fill:#000000;fill-opacity:1;stroke:none;stroke-width:1px;stroke-linecap:butt;stroke-linejoin:miter;stroke-opacity:1"
     x="326.5"
     y="194.49998"
     id="text9969"
     sodipodi:linespacing="125%"><tspan
       sodipodi:role="line"
       id="tspan9971"
       x="326.5"
       y="194.49998" /></text>
  <text
     xml:space="preserve"
     style="font-style:normal;font-variant:normal;font-weight:normal;font-stretch:normal;font-size:32.5px;line-height:125%;font-family:Century;-inkscape-font-specification:Century;letter-spacing:0px;word-spacing:0px;fill:#000000;fill-opacity:1;stroke:none;stroke-width:1px;stroke-linecap:butt;stroke-linejoin:miter;stroke-opacity:1"
     x="-82.249382"
     y="-367.0015"
     id="text9973"
     sodipodi:linespacing="125%"
     transform="matrix(-0.70710678,0.70710678,-0.70710678,-0.70710678,0,0)"><tspan
       sodipodi:role="line"
       id="tspan9975"
       x="-82.249382"
       y="-367.0015">N</tspan></text>
  <text
     xml:space="preserve"
     style="font-style:normal;font-variant:normal;font-weight:normal;font-stretch:normal;font-size:32.5px;line-height:125%;font-family:Century;-inkscape-font-specification:Century;letter-spacing:0px;word-spacing:0px;fill:#000000;fill-opacity:1;stroke:none;stroke-width:1px;stroke-linecap:butt;stroke-linejoin:miter;stroke-opacity:1"
     x="481.88605"
     y="-169.66446"
     id="text9977"
     sodipodi:linespacing="125%"
     transform="matrix(0.70710678,0.70710678,-0.70710678,0.70710678,0,0)"><tspan
       sodipodi:role="line"
       id="tspan9979"
       x="481.88605"
       y="-169.66446">E</tspan><tspan
       sodipodi:role="line"
       x="481.88605"
       y="-129.03946"
       id="tspan9981" /></text>
  <text
     xml:space="preserve"
     style="font-style:normal;font-variant:normal;font-weight:normal;font-stretch:normal;font-size:32.5px;line-height:125%;font-family:'Century Schoolbook';-inkscape-font-specification:'Century Schoolbook';letter-spacing:0px;word-spacing:0px;fill:#000000;fill-opacity:1;stroke:none;stroke-width:1px;stroke-linecap:butt;stroke-linejoin:miter;stroke-opacity:1"
     x="332.25"
     y="269.25"
     id="text9985"
     sodipodi:linespacing="125%"><tspan
       sodipodi:role="line"
       id="tspan9987"
       x="332.25"
       y="269.25" /></text>
  <path
     style="opacity:1;fill:none;fill-opacity:1;fill-rule:nonzero;stroke:none;stroke-width:1;stroke-linecap:butt;stroke-linejoin:miter;stroke-miterlimit:4;stroke-dasharray:none;stroke-opacity:1"
     d="m 278.92167,192.02665 0,-11.54193 11.46654,0 11.46653,0 -1.89691,1.90925 c -1.0433,1.05008 -3.39049,3.41411 -5.21598,5.25339 -1.82549,1.83927 -4.66436,4.69958 -6.30859,6.35624 -1.64423,1.65665 -4.45697,4.4865 -6.25055,6.28854 l -3.26104,3.27643 0,-11.54192 z"
     id="path5603"
     inkscape:connector-curvature="0" />
  <rect
     style="opacity:1;fill:none;fill-opacity:1;fill-rule:nonzero;stroke:#000000;stroke-width:2;stroke-linecap:butt;stroke-linejoin:miter;stroke-miterlimit:4;stroke-dasharray:none;stroke-opacity:1"
     id="rect5615"
     width="5.6927156"
     height="29.97666"
     x="163.45169"
     y="369.02332" />
  <rect
     style="opacity:1;fill:none;fill-opacity:1;fill-rule:nonzero;stroke:#000000;stroke-width:2;stroke-linecap:butt;stroke-linejoin:miter;stroke-miterlimit:4;stroke-dasharray:none;stroke-opacity:1"
     id="rect5615-4"
     width="3.66312"
     height="30.362041"
     x="324.59296"
     y="368.63794" />
  <path
     style="opacity:1;fill:#ffffff;fill-opacity:1;fill-rule:nonzero;stroke:none;stroke-width:1;stroke-linecap:butt;stroke-linejoin:miter;stroke-miterlimit:4;stroke-dasharray:none;stroke-opacity:1"
     d="m 373.48862,204.38575 0,-1.76096 0.73908,-0.19901 c 10.25063,-2.76021 31.71679,-3.28965 45.6648,-1.12627 3.47881,0.53957 6.26753,1.1914 6.47097,1.51251 0.17677,0.27901 0.2156,3.33468 0.0424,3.33468 -0.0637,0 -0.99836,-0.28532 -2.07708,-0.63405 -11.84549,-3.82939 -32.94647,-4.15021 -46.27801,-0.70362 -1.29384,0.33449 -2.8223,0.77231 -3.39657,0.97292 -0.57428,0.20061 -1.07147,0.36475 -1.10486,0.36475 -0.0334,0 -0.0607,-0.79243 -0.0607,-1.76095 z"
     id="path5798"
     inkscape:connector-curvature="0" />
  <rect
     style="opacity:1;fill:none;fill-opacity:1;fill-rule:nonzero;stroke:#000000;stroke-width:2;stroke-linecap:butt;stroke-linejoin:miter;stroke-miterlimit:4;stroke-dasharray:none;stroke-opacity:1"
     id="rect5934"
     width="127.85956"
     height="24.60956"
     x="182.82022"
     y="374.39044" />
</svg>
