<?xml version="1.0" encoding="UTF-8" standalone="no"?>
<!-- Created with Inkscape (http://www.inkscape.org/) -->

<svg
   xmlns:dc="http://purl.org/dc/elements/1.1/"
   xmlns:cc="http://creativecommons.org/ns#"
   xmlns:rdf="http://www.w3.org/1999/02/22-rdf-syntax-ns#"
   xmlns:svg="http://www.w3.org/2000/svg"
   xmlns="http://www.w3.org/2000/svg"
   xmlns:sodipodi="http://sodipodi.sourceforge.net/DTD/sodipodi-0.dtd"
   xmlns:inkscape="http://www.inkscape.org/namespaces/inkscape"
   id="svg3336"
   version="1.1"
   inkscape:version="0.91 r13725"
   width="800"
   height="322"
   viewBox="0 0 800 322"
   sodipodi:docname="logo-mark.svg">
  <metadata
     id="metadata3342">
    <rdf:RDF>
      <cc:Work
         rdf:about="">
        <dc:format>image/svg+xml</dc:format>
        <dc:type
           rdf:resource="http://purl.org/dc/dcmitype/StillImage" />
        <dc:title></dc:title>
      </cc:Work>
    </rdf:RDF>
  </metadata>
  <defs
     id="defs3340">
    <inkscape:path-effect
       effect="spiro"
       id="path-effect8765"
       is_visible="true" />
    <inkscape:path-effect
       effect="spiro"
       id="path-effect8212"
       is_visible="true" />
    <inkscape:path-effect
       effect="spiro"
       id="path-effect8208"
       is_visible="true" />
    <inkscape:path-effect
       effect="spiro"
       id="path-effect8203"
       is_visible="true" />
    <inkscape:path-effect
       effect="spiro"
       id="path-effect8212-4"
       is_visible="true" />
    <inkscape:path-effect
       effect="spiro"
       id="path-effect8212-4-9"
       is_visible="true" />
    <inkscape:path-effect
       effect="spiro"
       id="path-effect8212-4-9-0"
       is_visible="true" />
    <inkscape:path-effect
       effect="spiro"
       id="path-effect8212-4-9-1"
       is_visible="true" />
    <inkscape:path-effect
       effect="spiro"
       id="path-effect8212-4-9-17"
       is_visible="true" />
  </defs>
  <sodipodi:namedview
     pagecolor="#ffffff"
     bordercolor="#666666"
     borderopacity="1"
     objecttolerance="10"
     gridtolerance="10"
     guidetolerance="10"
     inkscape:pageopacity="0"
     inkscape:pageshadow="2"
     inkscape:window-width="1366"
     inkscape:window-height="745"
     id="namedview3338"
     showgrid="false"
     inkscape:zoom="1.08125"
     inkscape:cx="400"
     inkscape:cy="179.81473"
     inkscape:window-x="-8"
     inkscape:window-y="-8"
     inkscape:window-maximized="1"
     inkscape:current-layer="svg3336"
     inkscape:snap-grids="true"
     inkscape:snap-to-guides="true"
     showguides="true"
     inkscape:guide-bbox="true">
    <inkscape:grid
       type="xygrid"
       id="grid8093" />
  </sodipodi:namedview>
  <g
     id="g5519"
     transform="translate(-6.1084136,-13.272245)">
    <path
       sodipodi:nodetypes="ccccccc"
       inkscape:connector-curvature="0"
       id="path4381-9"
       d="M 166.10754,15.795457 C 78.034838,15.796489 6.6383827,87.080538 6.6385067,175.01338 c 0.0062,55.16165 -0.01032,112.19593 -0.0062,159.73564 l 318.9528733,0 c 0,-48.27653 -0.006,-108.58265 -0.006,-159.73564 C 325.57899,87.079718 254.18125,15.79534 166.10772,15.795457 Z"
       style="opacity:1;fill:#050b20;fill-opacity:1;fill-rule:evenodd;stroke:#050b20;stroke-width:1.04644907;stroke-linecap:butt;stroke-linejoin:miter;stroke-miterlimit:4;stroke-dasharray:none;stroke-opacity:1" />
    <path
       sodipodi:nodetypes="ccsccccc"
       inkscape:connector-curvature="0"
       id="path4381-9-3"
       d="M 166.10751,25.762768 C 83.539354,25.763736 16.605186,92.592508 16.605301,175.02954 c 0.0035,31.35524 -8.45e-4,63.35588 -0.0039,93.62654 -0.002,19.65461 -0.0034,38.57989 -0.0018,56.12563 l 299.018289,0 c 0,-45.25925 -0.006,-101.79625 -0.006,-149.75217 -4e-5,-82.437792 -66.93543,-149.26688 -149.50435,-149.266772 z"
       style="opacity:1;fill:#6f9ef6;fill-opacity:1;fill-rule:evenodd;stroke:#6f9ef6;stroke-width:0.9810459;stroke-linecap:butt;stroke-linejoin:miter;stroke-miterlimit:4;stroke-dasharray:none;stroke-opacity:1" />
    <path
       inkscape:connector-curvature="0"
       id="rect8103-5-1-0-3-8-6"
       d="m 35.8291,253.29378 0,13.33593 c 10.72763,2.77662 21.02033,7.1952 30.18165,12.27539 l 0,-25.61132 -30.18165,0 z"
       style="opacity:1;fill:#515970;fill-opacity:1;stroke:#515970;stroke-width:1;stroke-linejoin:miter;stroke-miterlimit:4;stroke-dasharray:none;stroke-opacity:1" />
    <rect
       y="249.08171"
       x="39.450413"
       height="4.1584754"
       width="26.560478"
       id="rect8103-5-1-0-3-3-1-0-8"
       style="opacity:0.98999999;fill:#515970;fill-opacity:1;stroke:#515970;stroke-width:1;stroke-linejoin:miter;stroke-miterlimit:4;stroke-dasharray:none;stroke-opacity:1" />
    <path
       inkscape:connector-curvature="0"
       id="rect8103-5-1-0-3-8-6-1"
       d="m 100.10059,260.01057 0,30.06641 27.5293,0 0,-30.06641 -27.5293,0 z"
       style="opacity:0.98000004;fill:#515970;fill-opacity:1;stroke:#515970;stroke-width:1;stroke-linejoin:miter;stroke-miterlimit:4;stroke-dasharray:none;stroke-opacity:1" />
    <path
       inkscape:connector-curvature="0"
       id="rect8103-5-1-0-3-8-6-1-1"
       d="m 112.22266,241.99294 0,18.01758 15.4082,0 0,64.71875 3.23828,0 0,-21.93164 7.98438,0 0,-60.80469 -26.63086,0 z"
       style="opacity:0.98000004;fill:#515970;fill-opacity:1;stroke:#515970;stroke-width:1;stroke-linejoin:miter;stroke-miterlimit:4;stroke-dasharray:none;stroke-opacity:1" />
    <path
       inkscape:connector-curvature="0"
       id="rect8103-5-1-0-3-8-6-1-3"
       d="m 94.455078,290.07693 0,34.65234 33.173832,0 0,-34.65234 -33.173832,0 z"
       style="opacity:0.98000004;fill:#515970;fill-opacity:1;stroke:#515970;stroke-width:1;stroke-linejoin:miter;stroke-miterlimit:4;stroke-dasharray:none;stroke-opacity:1" />
    <rect
       y="235.28001"
       x="118.03773"
       height="6.5645952"
       width="15.00124"
       id="rect8103-5-1-0-3-3-1-0-8-0"
       style="opacity:0.98000004;fill:#515970;fill-opacity:1;stroke:#515970;stroke-width:1;stroke-linejoin:miter;stroke-miterlimit:4;stroke-dasharray:none;stroke-opacity:1" />
    <rect
       y="283.45166"
       x="103.5421"
       height="6.5645952"
       width="15.00124"
       id="rect8103-5-1-0-3-3-1-0-8-0-0"
       style="opacity:0.98000004;fill:#515970;fill-opacity:1;stroke:#515970;stroke-width:1;stroke-linejoin:miter;stroke-miterlimit:4;stroke-dasharray:none;stroke-opacity:1" />
    <path
       inkscape:connector-curvature="0"
       id="rect8103-5-1-0-3-8-6-1-3-9"
       d="m 130.86914,302.79763 0,21.93164 33.35742,0 0,-21.93164 -33.35742,0 z"
       style="opacity:0.98000004;fill:#515970;fill-opacity:1;stroke:#515970;stroke-width:1;stroke-linejoin:miter;stroke-miterlimit:4;stroke-dasharray:none;stroke-opacity:1" />
    <path
       inkscape:connector-curvature="0"
       id="rect8103-5-1-0-3-8-6-1-3-9-4"
       d="m 164.36523,306.50466 0,18.14453 11.08789,0 0,-18.14453 -11.08789,0 z"
       style="opacity:1;fill:none;stroke:#000000;stroke-width:1;stroke-linejoin:miter;stroke-miterlimit:4;stroke-dasharray:none;stroke-opacity:1" />
    <path
       inkscape:connector-curvature="0"
       id="rect8103-5-1-0-3-8-6-1-3-9-4-9"
       d="m 175.53711,310.64138 0,13.67969 33.11523,0 0,-13.67969 -33.11523,0 z"
       style="opacity:1;fill:none;stroke:#000000;stroke-width:1;stroke-linejoin:miter;stroke-miterlimit:4;stroke-dasharray:none;stroke-opacity:1" />
    <path
       inkscape:connector-curvature="0"
       id="rect8103-5-1-0-3-8-6-1-3-9-4-9-7"
       d="m 209.22656,303.06521 0,21.74609 16.29492,0 0,-21.74609 -16.29492,0 z"
       style="opacity:0.98000004;fill:#515970;fill-opacity:1;stroke:#515970;stroke-width:1;stroke-linejoin:miter;stroke-miterlimit:4;stroke-dasharray:none;stroke-opacity:1" />
    <path
       inkscape:path-effect="#path-effect8212-4-9-17"
       sodipodi:nodetypes="ccccc"
       inkscape:connector-curvature="0"
       inkscape:original-d="m 192.65126,310.60206 11.81661,0 0,-20.20663 -14.06661,-8.35465 z"
       id="path8210-6-0"
       d="m 192.65126,310.60206 11.81661,0 0,-20.20663 -14.06661,-8.35465 2.25,28.56128 z"
       style="opacity:0.98000004;fill:#515970;fill-opacity:1;fill-rule:evenodd;stroke:#515970;stroke-width:1;stroke-linecap:butt;stroke-linejoin:miter;stroke-miterlimit:4;stroke-dasharray:none;stroke-opacity:1" />
    <path
       inkscape:connector-curvature="0"
       id="rect8103-5-1-0-3-8-6-1-1-2"
       d="m 204.87109,237.61208 0,73.0293 3.78125,0 0,14.03516 16.83008,0 0,-72.00977 15.70703,0 0,-15.05469 -36.31836,0 z"
       style="opacity:0.98000004;fill:#515970;fill-opacity:1;stroke:#515970;stroke-width:1;stroke-linejoin:miter;stroke-miterlimit:4;stroke-dasharray:none;stroke-opacity:1" />
    <path
       inkscape:connector-curvature="0"
       id="rect8103-5-1-0-3-8-6-1-1-2-0"
       d="m 225.48047,252.66677 0,71.98242 30.98633,0 0,-71.98242 -30.98633,0 z"
       style="opacity:0.98000004;fill:#515970;fill-opacity:1;stroke:#515970;stroke-width:1;stroke-linejoin:miter;stroke-miterlimit:4;stroke-dasharray:none;stroke-opacity:1" />
    <path
       sodipodi:nodetypes="cccccccccc"
       inkscape:connector-curvature="0"
       id="rect8103-5-1-0-3-8-6-1-1-2-0-8"
       d="m 267.65039,250.38162 0,74.34765 18.14649,-3e-5 0,-32.57419 c 9.7016,-0.001 19.9927,4.1e-4 29.89042,0.003 l -18.96074,-0.0925 0.0329,-9.36066 6.92091,-3e-5 0.0657,-32.32292 z"
       style="opacity:0.98000004;fill:#515970;fill-opacity:1;stroke:#515970;stroke-width:1;stroke-linejoin:miter;stroke-miterlimit:4;stroke-dasharray:none;stroke-opacity:1" />
    <path
       inkscape:connector-curvature="0"
       id="rect8103-5-1-0-3-8-6-1-1-2-0-8-5"
       d="m 256.70898,285.42263 0,39.30664 10.60157,0 0,-39.30664 -10.60157,0 z"
       style="opacity:0.98000004;fill:#515970;fill-opacity:1;stroke:#515970;stroke-width:1;stroke-linejoin:miter;stroke-miterlimit:4;stroke-dasharray:none;stroke-opacity:1" />
    <path
       sodipodi:nodetypes="ccccccc"
       inkscape:connector-curvature="0"
       id="rect8103-5-1-0-3-8-6-1-1-2-0-8-7"
       d="m 278.91941,236.67926 0,14.0293 24.89207,0 0,31.93096 11.81064,0.0654 c 0,-15.80154 -0.0679,-29.98348 -0.0679,-46.09139 z"
       style="opacity:0.98000004;fill:#515970;fill-opacity:1;stroke:#515970;stroke-width:1;stroke-linejoin:miter;stroke-miterlimit:4;stroke-dasharray:none;stroke-opacity:1" />
    <path
       inkscape:connector-curvature="0"
       id="rect8103-5-1-0-3-8-6-1-1-2-0-8-7-4"
       d="m 308.13477,231.6824 0,4.6582 7.42187,0 0,-4.6582 -7.42187,0 z"
       style="opacity:1;fill:#515970;fill-opacity:1;stroke:#515970;stroke-width:1;stroke-linejoin:miter;stroke-miterlimit:4;stroke-dasharray:none;stroke-opacity:1" />
    <path
       inkscape:connector-curvature="0"
       id="path8771-2"
       d="m 16.472656,263.63162 0,61.05078 72.78711,0 0,0.1289 1.480468,0 0,-16.42383 0,-12.01953 C 75.003652,282.02994 45.776911,264.94325 16.472656,263.63162 Z"
       style="opacity:1;fill:#ffffff;fill-opacity:1;stroke:#ffffff;stroke-width:1;stroke-linecap:butt;stroke-linejoin:miter;stroke-miterlimit:4;stroke-dasharray:none;stroke-opacity:1" />
    <path
       inkscape:connector-curvature="0"
       id="rect9028"
       d="m 159.80664,101.6824 0,20.91992 c 4.0798,-0.0863 8.30172,-0.13657 12.60547,-0.0801 l 0,-20.83984 -12.60547,0 z m 6.74609,24.16406 c -2.22098,0.008 -4.49265,0.0321 -6.74609,0.0488 l 0,0.10351 c 4.10142,-0.0708 8.30496,-0.1138 12.60547,-0.0742 l 0,-0.0723 c -1.93754,-0.006 -3.87234,-0.0128 -5.85938,-0.006 z m 0.0547,3.32422 c -2.23903,0.007 -4.53095,0.0269 -6.80078,0.041 l 0,0.44336 c 2.04631,-0.0802 4.12978,-0.13419 6.25781,-0.13476 2.15893,4e-5 4.27265,0.0547 6.34766,0.13672 l 0,-0.48047 c -1.92647,-0.004 -3.83615,-0.0118 -5.80469,-0.006 z m -6.80078,27.17578 0,0.24023 c 4.15054,0.0157 8.44882,0.0299 12.60547,0.0215 l 0,-0.25977 c -2.04694,0.0803 -4.13106,0.1342 -6.25977,0.13477 -2.15849,-7e-5 -4.27112,-0.0547 -6.3457,-0.13672 z m 0,6.23828 0,140.21289 4.41992,0 0,21.93164 0.14063,0 0,-18.22461 8.04492,0 0,-143.91992 c -4.113,10e-4 -8.41328,-0.003 -12.60547,0 z"
       style="opacity:1;fill:#a9a49f;fill-opacity:1;stroke:#a9a49f;stroke-width:1;stroke-linecap:butt;stroke-linejoin:miter;stroke-miterlimit:4;stroke-dasharray:none;stroke-opacity:1" />
    <path
       sodipodi:nodetypes="ccccccccccc"
       inkscape:connector-curvature="0"
       id="path9039"
       d="m 172.38477,162.53982 -0.30665,143.96484 3.375,0 0,17.89844 0.0859,0 0,-13.76172 17.20117,0 -3.42968,-41.55273 -11.92551,-106.54883 -5,0 z"
       style="fill:#a9a49f;fill-opacity:1;fill-rule:evenodd;stroke:#a9a49f;stroke-width:1;stroke-linecap:butt;stroke-linejoin:miter;stroke-miterlimit:4;stroke-dasharray:none;stroke-opacity:1" />
    <path
       sodipodi:nodetypes="ccccc"
       inkscape:connector-curvature="0"
       id="path9039-8"
       d="m 155.817,162.63285 -15.71055,140.16483 20.00781,0 -0.29726,-140.25781 z"
       style="fill:#6c696f;fill-opacity:1;fill-rule:evenodd;stroke:#6c6961;stroke-width:1;stroke-linecap:butt;stroke-linejoin:miter;stroke-miterlimit:4;stroke-dasharray:none;stroke-opacity:1" />
    <path
       sodipodi:nodetypes="ccccccc"
       inkscape:connector-curvature="0"
       id="path9073"
       d="m 146.57552,156.53106 c -1.67193,7e-5 -3.02728,1.35541 -3.02735,3.02734 7e-5,1.67193 1.35542,3.02728 3.02735,3.02735 13.84617,0.0105 25.98084,-0.0276 39.0664,0 1.67193,-7e-5 3.02728,-1.35542 3.02735,-3.02735 -8e-5,-1.67193 -1.35543,-3.02727 -3.02735,-3.02734 -14.03871,0.1464 -25.05326,0.0773 -39.0664,0 z"
       style="opacity:1;fill:#ffffff;fill-opacity:1;stroke:#ffffff;stroke-width:1;stroke-linecap:butt;stroke-linejoin:miter;stroke-miterlimit:4;stroke-dasharray:none;stroke-opacity:1" />
    <path
       sodipodi:nodetypes="ccccccc"
       inkscape:connector-curvature="0"
       id="path9073-3"
       d="m 147.80316,126.25959 c -1.56684,4e-5 -2.837,0.67727 -2.83708,1.5127 9e-5,0.83542 1.27025,1.51265 2.83708,1.51269 12.51249,-0.0766 25.42502,-0.22798 36.6111,0 1.56684,-3e-5 2.83701,-0.67726 2.83709,-1.51269 -7e-5,-0.83543 -1.27024,-1.51267 -2.83709,-1.5127 -12.61922,-0.64784 -25.81692,-0.27811 -36.6111,0 z"
       style="opacity:1;fill:#a3accb;fill-opacity:1;stroke:#a3accb;stroke-width:1;stroke-linecap:butt;stroke-linejoin:miter;stroke-miterlimit:4;stroke-dasharray:none;stroke-opacity:1" />
    <path
       sodipodi:nodetypes="cccccccccccccc"
       inkscape:connector-curvature="0"
       id="rect9094-4-6-7"
       d="m 166.06287,129.52102 c -11.12048,0.003 -21.46832,1.1305 -27.45763,2.99203 0.0103,6.78844 0.0911,14.18505 0.0867,20.2619 l 0.004,0 0,0.72784 c 6.00352,1.85673 16.34791,2.97941 27.45573,2.97976 11.12049,-0.003 21.46834,-1.1305 27.45764,-2.99204 l 0,-0.71556 0.004,0 0,-20.1585 -0.0924,0 0,-0.11574 c -6.00389,-1.85685 -16.34916,-2.97954 -27.45766,-2.97976 z"
       style="opacity:1;fill:#0a1125;fill-opacity:1;stroke:#0a1125;stroke-width:1;stroke-linecap:butt;stroke-linejoin:miter;stroke-miterlimit:4;stroke-dasharray:none;stroke-opacity:1" />
    <path
       inkscape:connector-curvature="0"
       d="m 166.10774,137.45864 a 32.232203,9.0360805 0 0 0 -27.37755,4.28858 l 0,3.35901 0,3.71053 0,0.0898 a 32.232203,9.0360805 0 0 1 27.37755,-4.28859 32.232203,9.0360805 0 0 1 27.3795,4.27882 l 0,-0.0898 0,-3.71053 0,-3.359 a 32.232203,9.0360805 0 0 0 -27.3795,-4.27882 z m 0,-3.47676 a 32.232203,9.0360805 0 0 0 -27.37755,4.28858 l 0,3.35901 0,3.71053 0,0.0898 a 32.232203,9.0360805 0 0 1 27.37755,-4.28859 32.232203,9.0360805 0 0 1 27.3795,4.27882 l 0,-0.0898 0,-3.71053 0,-3.359 a 32.232203,9.0360805 0 0 0 -27.3795,-4.27882 z"
       style="opacity:1;fill:#758199;fill-opacity:1;stroke:#758199;stroke-width:1;stroke-linecap:butt;stroke-linejoin:miter;stroke-miterlimit:4;stroke-dasharray:none;stroke-opacity:1"
       id="path9111-5-2-1-5-4-0-7" />
    <path
       sodipodi:nodetypes="ccccccc"
       inkscape:connector-curvature="0"
       d="m 166.10774,137.45864 c -11.15859,0.005 -21.5149,1.62689 -27.37755,4.28858 l 0,3.35901 c 5.86637,-2.18115 18.03913,-3.43014 27.57492,-3.25806 10.38778,0.18747 20.86515,0.94666 27.18213,3.24829 l 0,-3.359 c -5.87144,-2.65812 -16.22711,-4.27649 -27.3795,-4.27882 z"
       style="opacity:1;fill:#000000;fill-opacity:1;stroke:#000000;stroke-width:1;stroke-linecap:butt;stroke-linejoin:miter;stroke-miterlimit:4;stroke-dasharray:none;stroke-opacity:1"
       id="path9111-5-2-1-5-4-0" />
    <rect
       y="84.153152"
       x="161.47362"
       height="17.755434"
       width="9.270153"
       id="rect9576"
       style="opacity:1;fill:#ffffff;fill-opacity:1;stroke:#ffffff;stroke-width:1;stroke-linecap:butt;stroke-linejoin:miter;stroke-miterlimit:4;stroke-dasharray:none;stroke-opacity:1" />
    <rect
       y="101.68179"
       x="159.82198"
       height="5.8559337"
       width="12.573449"
       id="rect9576-4"
       style="opacity:1;fill:#a9a49f;fill-opacity:1;stroke:#a9a49f;stroke-width:1;stroke-linecap:butt;stroke-linejoin:miter;stroke-miterlimit:4;stroke-dasharray:none;stroke-opacity:1" />
    <rect
       y="72.26152"
       x="163.06123"
       height="12.282132"
       width="6.0949478"
       id="rect9576-6"
       style="opacity:1;fill:#ffffff;fill-opacity:1;stroke:#ffffff;stroke-width:1;stroke-linecap:butt;stroke-linejoin:miter;stroke-miterlimit:4;stroke-dasharray:none;stroke-opacity:1" />
    <rect
       y="59.423279"
       x="164.68486"
       height="12.923937"
       width="2.847667"
       id="rect9576-6-1"
       style="opacity:1;fill:#ffffff;fill-opacity:1;stroke:#ffffff;stroke-width:1;stroke-linecap:butt;stroke-linejoin:miter;stroke-miterlimit:4;stroke-dasharray:none;stroke-opacity:1" />
    <rect
       y="46.650009"
       x="164.68491"
       height="12.925056"
       width="2.8479135"
       id="rect9576-6-1-8"
       style="opacity:1;fill:#ffffff;fill-opacity:1;stroke:#ffffff;stroke-width:1.00008655;stroke-linecap:butt;stroke-linejoin:miter;stroke-miterlimit:4;stroke-dasharray:none;stroke-opacity:1" />
    <rect
       y="38.550243"
       x="165.53148"
       height="7.1648431"
       width="1.1544377"
       id="rect9576-6-1-8-0"
       style="opacity:1;fill:#000000;fill-opacity:1;stroke:#000000;stroke-width:1;stroke-linecap:butt;stroke-linejoin:miter;stroke-miterlimit:4;stroke-dasharray:none;stroke-opacity:1" />
    <path
       sodipodi:nodetypes="ccccccc"
       inkscape:connector-curvature="0"
       id="path9073-3-1"
       d="m 149.821,122.20862 c -1.39412,4e-5 -2.52427,0.69504 -2.52435,1.5524 9e-5,0.85734 1.13024,1.55235 2.52435,1.55239 11.13322,-0.0786 22.62239,-0.23397 32.57542,0 1.39412,-3e-5 2.52428,-0.69504 2.52436,-1.55239 -7e-5,-0.85736 -1.13023,-1.55237 -2.52436,-1.5524 -11.22819,-0.66484 -22.97109,-0.28541 -32.57542,0 z"
       style="opacity:1;fill:#6f82ae;fill-opacity:1;stroke:#6f82ae;stroke-width:1;stroke-linecap:butt;stroke-linejoin:miter;stroke-miterlimit:4;stroke-dasharray:none;stroke-opacity:1" />
    <path
       sodipodi:nodetypes="cccccc"
       inkscape:connector-curvature="0"
       id="rect9684"
       d="m 61.242525,117.60129 0,24.11524 -0.01,0.8125 24.751945,-24.93946 -0.625,0.0117 z"
       style="opacity:1;fill:#ff0000;stroke:#ff0000;stroke-width:1;stroke-linecap:butt;stroke-linejoin:miter;stroke-miterlimit:4;stroke-dasharray:none;stroke-opacity:1" />
    <text
       transform="matrix(-0.70710678,0.70710678,-0.70710678,-0.70710678,0,0)"
       sodipodi:linespacing="125%"
       id="text9973"
       y="-149.49318"
       x="20.113834"
       style="font-style:normal;font-variant:normal;font-weight:bold;font-stretch:normal;font-size:45px;line-height:125%;font-family:'Microsoft YaHei';-inkscape-font-specification:'Microsoft YaHei Bold';letter-spacing:0px;word-spacing:0px;fill:#000000;fill-opacity:1;stroke:none;stroke-width:1px;stroke-linecap:butt;stroke-linejoin:miter;stroke-opacity:1"
       xml:space="preserve"><tspan
         y="-149.49318"
         x="20.113834"
         id="tspan9975"
         sodipodi:role="line">N</tspan></text>
    <path
       inkscape:connector-curvature="0"
       id="path5603"
       d="m 45.07304,122.62905 0,-11.54193 11.46654,0 11.46653,0 -1.89691,1.90925 c -1.0433,1.05008 -3.39049,3.41411 -5.21598,5.25339 -1.82549,1.83927 -4.66436,4.69958 -6.30859,6.35624 -1.64423,1.65665 -4.45697,4.4865 -6.25055,6.28854 l -3.26104,3.27643 0,-11.54192 z"
       style="opacity:1;fill:none;fill-opacity:1;fill-rule:nonzero;stroke:none;stroke-width:1;stroke-linecap:butt;stroke-linejoin:miter;stroke-miterlimit:4;stroke-dasharray:none;stroke-opacity:1" />
    <path
       inkscape:connector-curvature="0"
       id="rect5615-4"
       d="m 91.562954,299.18672 0,25.6437 2.899518,0 0,-25.6437 -2.899518,0 z"
       style="opacity:0.98000004;fill:#515970;fill-opacity:1;fill-rule:nonzero;stroke:#515970;stroke-width:1;stroke-linecap:butt;stroke-linejoin:miter;stroke-miterlimit:4;stroke-dasharray:none;stroke-opacity:1" />
    <path
       sodipodi:nodetypes="cccccc"
       inkscape:connector-curvature="0"
       id="path8771-2-7"
       d="m 16.472656,275.08474 0,49.94336 c 20.922875,-0.4246 42.18998,-0.22387 60.251953,-0.2168 l 0,-12.65039 0,-9.97851 C 63.911907,290.50847 40.32572,276.64048 16.472656,275.08474 Z"
       style="opacity:1;fill:#ffffff;fill-opacity:1;stroke:#ffffff;stroke-width:1;stroke-linecap:butt;stroke-linejoin:miter;stroke-miterlimit:4;stroke-dasharray:none;stroke-opacity:1" />
    <text
       transform="matrix(0.70710678,0.70710678,0.70710678,-0.70710678,0,0)"
       sodipodi:linespacing="125%"
       id="text9973-7"
       y="83.355034"
       x="255.92201"
       style="font-style:normal;font-variant:normal;font-weight:bold;font-stretch:normal;font-size:45px;line-height:125%;font-family:'Microsoft YaHei';-inkscape-font-specification:'Microsoft YaHei Bold';letter-spacing:0px;word-spacing:0px;fill:#000000;fill-opacity:1;stroke:none;stroke-width:1px;stroke-linecap:butt;stroke-linejoin:miter;stroke-opacity:1"
       xml:space="preserve"><tspan
         y="83.355034"
         x="255.92201"
         id="tspan9975-4"
         sodipodi:role="line">E</tspan></text>
    <path
       sodipodi:nodetypes="ccccc"
       inkscape:connector-curvature="0"
       id="rect8103-5-1-0-3-8-6-1-1-2-0-8-7-4-1"
       d="m 296.86297,282.71358 -0.0329,9.40791 18.72545,0.1315 0.0986,-9.53941 z"
       style="opacity:0.98000004;fill:#515970;fill-opacity:1;stroke:#515970;stroke-width:1;stroke-linejoin:miter;stroke-miterlimit:4;stroke-dasharray:none;stroke-opacity:1" />
    <path
       sodipodi:nodetypes="ccccc"
       inkscape:connector-curvature="0"
       id="rect8103-5-1-0-3-8-6-1-1-2-0-8-7-4-1-2"
       d="m 285.85001,292.17075 0,32.55849 29.77099,0 0,-32.55854 z"
       style="opacity:0.98000004;fill:#515970;fill-opacity:1;stroke:#515970;stroke-width:1;stroke-linejoin:miter;stroke-miterlimit:4;stroke-dasharray:none;stroke-opacity:1" />
    <path
       inkscape:connector-curvature="0"
       id="rect8103-5-1-0-3-8-6-1-3-9-1"
       d="m 16.569869,302.81076 0,21.97345 74.197624,0 0,-21.97345 -74.197624,0 z"
       style="opacity:1;fill:#acaba9;fill-opacity:1;stroke:#acaba9;stroke-width:1;stroke-linejoin:miter;stroke-miterlimit:4;stroke-dasharray:none;stroke-opacity:1" />
    <path
       style="opacity:1;fill:#a9b0c5;fill-opacity:1;stroke:#a9b0c5;stroke-width:1;stroke-linecap:butt;stroke-linejoin:miter;stroke-miterlimit:4;stroke-dasharray:none;stroke-opacity:1"
       d="m 16.493113,266.38943 -0.05215,-2.70778 c 28.040752,0.68079 57.186984,17.26199 74.402365,32.45363 l -0.07817,1.8656 -3.687033,0.0546 C 72.032709,284.39077 44.388441,268.20881 16.493113,266.38943 Z"
       id="path5268"
       inkscape:connector-curvature="0"
       sodipodi:nodetypes="cccccc" />
    <path
       inkscape:connector-curvature="0"
       id="rect8103-5-1-0-3-8-6-1-3-9-6"
       d="m 175.41219,310.64203 0,14.04196 32.8201,0 0,-14.04196 -32.8201,0 z"
       style="opacity:0.98000004;fill:#515970;fill-opacity:1;stroke:#515970;stroke-width:1;stroke-linejoin:miter;stroke-miterlimit:4;stroke-dasharray:none;stroke-opacity:1" />
    <path
       inkscape:connector-curvature="0"
       id="rect8103-5-1-0-3-8-6-1-3-9-6-1"
       d="m 163.92794,306.39273 0,18.22145 11.44834,0 0,-18.22145 -11.44834,0 z"
       style="opacity:0.98000004;fill:#515970;fill-opacity:1;stroke:#515970;stroke-width:1;stroke-linejoin:miter;stroke-miterlimit:4;stroke-dasharray:none;stroke-opacity:1" />
    <rect
       transform="matrix(0,1,-1,0,0,0)"
       y="-167.5639"
       x="60.648193"
       height="2.8692136"
       width="0.7470696"
       id="rect9576-6-1-8-0-9"
       style="opacity:1;fill:#000000;fill-opacity:1;stroke:#000000;stroke-width:0.97878647;stroke-linecap:butt;stroke-linejoin:miter;stroke-miterlimit:4;stroke-dasharray:none;stroke-opacity:1" />
    <rect
       transform="matrix(0,1,-1,0,0,0)"
       y="-167.5434"
       x="70.530693"
       height="2.8692136"
       width="0.7470696"
       id="rect9576-6-1-8-0-9-3"
       style="opacity:1;fill:#000000;fill-opacity:1;stroke:#000000;stroke-width:0.97878647;stroke-linecap:butt;stroke-linejoin:miter;stroke-miterlimit:4;stroke-dasharray:none;stroke-opacity:1" />
    <rect
       transform="matrix(0,1,-1,0,0,0)"
       y="-169.08896"
       x="81.509132"
       height="5.9670725"
       width="1.5536726"
       id="rect9576-6-1-8-0-9-9"
       style="opacity:1;fill:#000000;fill-opacity:1;stroke:#000000;stroke-width:1.1279273;stroke-linecap:butt;stroke-linejoin:miter;stroke-miterlimit:4;stroke-dasharray:none;stroke-opacity:1" />
    <path
       sodipodi:nodetypes="ccccccc"
       inkscape:connector-curvature="0"
       id="path9073-3-1-0"
       d="m 157.1559,115.02486 c -0.7663,10e-5 -1.38749,1.53054 -1.38754,3.41849 6e-5,1.88796 0.62124,3.4184 1.38754,3.41847 6.11956,-0.17293 12.43475,-0.5152 17.90559,0 0.76632,-5e-5 1.3875,-1.53049 1.38755,-3.41847 -4e-5,-1.88795 -0.62123,-3.41842 -1.38755,-3.41849 -6.17175,-1.46403 -12.62641,-0.6285 -17.90559,0 z"
       style="opacity:1;fill:#6f82ae;fill-opacity:1;stroke:#6f82ae;stroke-width:1.12503386;stroke-linecap:butt;stroke-linejoin:miter;stroke-miterlimit:4;stroke-dasharray:none;stroke-opacity:1" />
  </g>
  <text
     xml:space="preserve"
     style="font-style:normal;font-weight:normal;font-size:75.3985672px;line-height:102.99999714%;font-family:sans-serif;letter-spacing:0px;word-spacing:0px;writing-mode:lr-tb;fill:#000000;fill-opacity:1;stroke:none;stroke-width:1px;stroke-linecap:butt;stroke-linejoin:miter;stroke-opacity:1"
     x="319.01245"
     y="150.59778"
     id="text5575"
     sodipodi:linespacing="103%"><tspan
       sodipodi:role="line"
       id="tspan5577"
       x="319.01245"
       y="150.59778"
       style="font-style:normal;font-variant:normal;font-weight:bold;font-stretch:normal;line-height:102.99999714%;font-family:'Microsoft YaHei';-inkscape-font-specification:'Microsoft YaHei Bold';writing-mode:lr-tb">NORTHEAST</tspan></text>
  <text
     xml:space="preserve"
     style="font-style:normal;font-variant:normal;font-weight:normal;font-stretch:normal;font-size:32.5px;line-height:125%;font-family:'Century Gothic';-inkscape-font-specification:'Century Gothic';letter-spacing:3.75px;word-spacing:0px;fill:#000000;fill-opacity:1;stroke:none;stroke-width:1px;stroke-linecap:butt;stroke-linejoin:miter;stroke-opacity:1"
     x="331.69223"
     y="194.68732"
     id="text5579"
     sodipodi:linespacing="125%"><tspan
       sodipodi:role="line"
       id="tspan5581"
       x="331.69223"
       y="194.68732">GENERAL CONTRACTING</tspan></text>
  <text
     xml:space="preserve"
     style="font-style:normal;font-variant:normal;font-weight:normal;font-stretch:normal;font-size:32.5px;line-height:125%;font-family:'Century Gothic';-inkscape-font-specification:'Century Gothic';letter-spacing:3.75px;word-spacing:0px;fill:#000000;fill-opacity:1;stroke:none;stroke-width:1px;stroke-linecap:butt;stroke-linejoin:miter;stroke-opacity:1"
     x="528.2785"
     y="243.34877"
     id="text5587"
     sodipodi:linespacing="125%"><tspan
       sodipodi:role="line"
       id="tspan5589"
       x="528.2785"
       y="243.34877">INC</tspan></text>
  <rect
     style="opacity:0.98000004;fill:#050b20;fill-opacity:1;fill-rule:evenodd;stroke:#050b20;stroke-width:0.56450635;stroke-linecap:butt;stroke-linejoin:miter;stroke-miterlimit:4;stroke-dasharray:none;stroke-opacity:1"
     id="rect5591"
     width="190.81174"
     height="4.4354935"
     x="328.10596"
     y="229.45927" />
  <rect
     style="opacity:0.98000004;fill:#050b20;fill-opacity:1;fill-rule:evenodd;stroke:#050b20;stroke-width:0.56450635;stroke-linecap:butt;stroke-linejoin:miter;stroke-miterlimit:4;stroke-dasharray:none;stroke-opacity:1"
     id="rect5591-9"
     width="190.81174"
     height="4.4354935"
     x="601.93512"
     y="229.45927" />
</svg>
