<?xml version="1.0" encoding="UTF-8" standalone="no"?>
<!-- Created with Inkscape (http://www.inkscape.org/) -->

<svg
   xmlns:dc="http://purl.org/dc/elements/1.1/"
   xmlns:cc="http://creativecommons.org/ns#"
   xmlns:rdf="http://www.w3.org/1999/02/22-rdf-syntax-ns#"
   xmlns:svg="http://www.w3.org/2000/svg"
   xmlns="http://www.w3.org/2000/svg"
   xmlns:sodipodi="http://sodipodi.sourceforge.net/DTD/sodipodi-0.dtd"
   xmlns:inkscape="http://www.inkscape.org/namespaces/inkscape"
   id="svg3336"
   version="1.1"
   inkscape:version="0.91 r13725"
   width="800"
   height="400"
   viewBox="0 0 800 400"
   sodipodi:docname="outline.svg">
  <metadata
     id="metadata3342">
    <rdf:RDF>
      <cc:Work
         rdf:about="">
        <dc:format>image/svg+xml</dc:format>
        <dc:type
           rdf:resource="http://purl.org/dc/dcmitype/StillImage" />
        <dc:title />
      </cc:Work>
    </rdf:RDF>
  </metadata>
  <defs
     id="defs3340">
    <inkscape:path-effect
       effect="spiro"
       id="path-effect8765"
       is_visible="true" />
    <inkscape:path-effect
       effect="spiro"
       id="path-effect8212"
       is_visible="true" />
    <inkscape:path-effect
       effect="spiro"
       id="path-effect8208"
       is_visible="true" />
    <inkscape:path-effect
       effect="spiro"
       id="path-effect8203"
       is_visible="true" />
    <inkscape:path-effect
       effect="spiro"
       id="path-effect8212-4"
       is_visible="true" />
    <inkscape:path-effect
       effect="spiro"
       id="path-effect8212-4-9"
       is_visible="true" />
    <inkscape:path-effect
       effect="spiro"
       id="path-effect8212-4-9-0"
       is_visible="true" />
  </defs>
  <sodipodi:namedview
     pagecolor="#ffffff"
     bordercolor="#666666"
     borderopacity="1"
     objecttolerance="10"
     gridtolerance="10"
     guidetolerance="10"
     inkscape:pageopacity="0"
     inkscape:pageshadow="2"
     inkscape:window-width="1366"
     inkscape:window-height="745"
     id="namedview3338"
     showgrid="false"
     inkscape:zoom="3.7267422"
     inkscape:cx="420.02359"
     inkscape:cy="260.52675"
     inkscape:window-x="-8"
     inkscape:window-y="-8"
     inkscape:window-maximized="1"
     inkscape:current-layer="svg3336"
     inkscape:snap-grids="true"
     inkscape:snap-to-guides="true"
     showguides="true">
    <inkscape:grid
       type="xygrid"
       id="grid8093" />
  </sodipodi:namedview>
  <rect
     style="opacity:1;fill:none;stroke:#000000;stroke-width:2;stroke-linejoin:miter;stroke-miterlimit:4;stroke-dasharray:none;stroke-opacity:1"
     id="rect8103"
     width="25.5"
     height="62.5"
     x="0"
     y="286.5" />
  <rect
     style="opacity:1;fill:none;stroke:#000000;stroke-width:2;stroke-linejoin:miter;stroke-miterlimit:4;stroke-dasharray:none;stroke-opacity:1"
     id="rect8103-5"
     width="37.41272"
     height="92.067055"
     x="25.966475"
     y="256.93295" />
  <rect
     style="opacity:1;fill:none;stroke:#000000;stroke-width:2;stroke-linejoin:miter;stroke-miterlimit:4;stroke-dasharray:none;stroke-opacity:1"
     id="rect8103-5-1"
     width="43.566372"
     height="67.220703"
     x="63.466816"
     y="281.7793" />
  <rect
     style="opacity:1;fill:none;stroke:#000000;stroke-width:2;stroke-linejoin:miter;stroke-miterlimit:4;stroke-dasharray:none;stroke-opacity:1"
     id="rect8103-5-1-0"
     width="31.314262"
     height="93.718605"
     x="107.71787"
     y="255.2814" />
  <rect
     style="opacity:1;fill:none;stroke:#000000;stroke-width:2;stroke-linejoin:miter;stroke-miterlimit:4;stroke-dasharray:none;stroke-opacity:1"
     id="rect8103-5-1-0-3"
     width="23.870962"
     height="64.025307"
     x="139.31453"
     y="284.9747" />
  <rect
     style="opacity:1;fill:none;stroke:#000000;stroke-width:2;stroke-linejoin:miter;stroke-miterlimit:4;stroke-dasharray:none;stroke-opacity:1"
     id="rect8103-5-1-0-3-3"
     width="14.676993"
     height="7.8313389"
     x="67.286484"
     y="273.77182" />
  <rect
     style="opacity:1;fill:none;stroke:#000000;stroke-width:2;stroke-linejoin:miter;stroke-miterlimit:4;stroke-dasharray:none;stroke-opacity:1"
     id="rect8103-5-1-0-3-3-1"
     width="14.676993"
     height="7.8313389"
     x="86.911507"
     y="273.77182" />
  <path
     style="fill:none;fill-rule:evenodd;stroke:#000000;stroke-width:2;stroke-linecap:butt;stroke-linejoin:miter;stroke-miterlimit:4;stroke-dasharray:none;stroke-opacity:1"
     d="m 31.819805,256.81088 0,-7.6014 18.384777,0 7.601397,7.6014 -25.986174,0 z"
     id="path8210"
     inkscape:path-effect="#path-effect8212"
     inkscape:original-d="m 31.819805,256.81088 0,-7.6014 18.384777,0 7.601397,7.6014 z"
     inkscape:connector-curvature="0" />
  <path
     style="fill:none;fill-rule:evenodd;stroke:#000000;stroke-width:2;stroke-linecap:butt;stroke-linejoin:miter;stroke-miterlimit:4;stroke-dasharray:none;stroke-opacity:1"
     d="m 110.02037,255.18621 0,-7.71082 16.75525,0 6.92765,7.71082 -23.6829,0 z"
     id="path8210-6"
     inkscape:path-effect="#path-effect8212-4"
     inkscape:original-d="m 110.02037,255.18621 0,-7.71082 16.75525,0 6.92765,7.71082 z"
     inkscape:connector-curvature="0" />
  <rect
     style="opacity:1;fill:none;stroke:#000000;stroke-width:2;stroke-linejoin:miter;stroke-miterlimit:4;stroke-dasharray:none;stroke-opacity:1"
     id="rect8103-5-1-0-3-3-1-0"
     width="14.676993"
     height="7.8313389"
     x="139.03261"
     y="277.11362" />
  <path
     style="opacity:1;fill:none;stroke:#000000;stroke-width:2;stroke-linejoin:miter;stroke-miterlimit:4;stroke-dasharray:none;stroke-opacity:1"
     d="M 177.74609 284.97461 L 177.74609 300.43164 C 184.5422 296.11783 192.68367 292.50658 201.61719 289.70312 L 201.61719 284.97461 L 177.74609 284.97461 z "
     id="rect8103-5-1-0-3-8" />
  <path
     style="opacity:1;fill:none;stroke:#000000;stroke-width:2;stroke-linejoin:miter;stroke-miterlimit:4;stroke-dasharray:none;stroke-opacity:1"
     d="M 269.67773 272.69141 L 269.67773 284.63086 C 280.40543 286.207 290.69801 288.85582 299.85938 292.42188 L 299.85938 272.69141 L 269.67773 272.69141 z "
     id="rect8103-5-1-0-3-8-6" />
  <rect
     style="opacity:1;fill:none;stroke:#000000;stroke-width:2;stroke-linejoin:miter;stroke-miterlimit:4;stroke-dasharray:none;stroke-opacity:1"
     id="rect8103-5-1-0-3-3-1-0-8"
     width="26.560478"
     height="4.1584754"
     x="273.29904"
     y="268.07828" />
  <path
     style="opacity:1;fill:none;stroke:#000000;stroke-width:2;stroke-linejoin:miter;stroke-miterlimit:4;stroke-dasharray:none;stroke-opacity:1"
     d="M 333.94922 279.4082 L 333.94922 309.47461 L 361.47852 309.47461 L 361.47852 279.4082 L 333.94922 279.4082 z "
     id="rect8103-5-1-0-3-8-6-1" />
  <path
     style="opacity:1;fill:none;stroke:#000000;stroke-width:2;stroke-linejoin:miter;stroke-miterlimit:4;stroke-dasharray:none;stroke-opacity:1"
     d="M 346.07031 261.39062 L 346.07031 279.4082 L 361.47852 279.4082 L 361.47852 349 L 364.7168 349 L 364.7168 322.19531 L 372.70312 322.19531 L 372.70312 261.39062 L 346.07031 261.39062 z "
     id="rect8103-5-1-0-3-8-6-1-1" />
  <rect
     style="opacity:1;fill:none;stroke:#000000;stroke-width:2;stroke-linejoin:miter;stroke-miterlimit:4;stroke-dasharray:none;stroke-opacity:1"
     id="rect8103-5-1-0-3-8-6-1-3"
     width="33.173496"
     height="39.526009"
     x="328.30463"
     y="309.474" />
  <rect
     style="opacity:1;fill:none;stroke:#000000;stroke-width:2;stroke-linejoin:miter;stroke-miterlimit:4;stroke-dasharray:none;stroke-opacity:1"
     id="rect8103-5-1-0-3-3-1-0-8-0"
     width="15.00124"
     height="6.5645952"
     x="351.88638"
     y="254.67764" />
  <rect
     style="opacity:1;fill:none;stroke:#000000;stroke-width:2;stroke-linejoin:miter;stroke-miterlimit:4;stroke-dasharray:none;stroke-opacity:1"
     id="rect8103-5-1-0-3-3-1-0-8-0-0"
     width="15.00124"
     height="6.5645952"
     x="337.39075"
     y="302.84927" />
  <rect
     style="opacity:1;fill:none;stroke:#000000;stroke-width:2;stroke-linejoin:miter;stroke-miterlimit:4;stroke-dasharray:none;stroke-opacity:1"
     id="rect8103-5-1-0-3-8-6-1-3-9"
     width="33.357166"
     height="26.804979"
     x="364.71713"
     y="322.19501" />
  <rect
     style="opacity:1;fill:none;stroke:#000000;stroke-width:2;stroke-linejoin:miter;stroke-miterlimit:4;stroke-dasharray:none;stroke-opacity:1"
     id="rect8103-5-1-0-3-8-6-1-3-9-4"
     width="11.088033"
     height="23.097401"
     x="398.21396"
     y="325.90259" />
  <rect
     style="opacity:1;fill:none;stroke:#000000;stroke-width:2;stroke-linejoin:miter;stroke-miterlimit:4;stroke-dasharray:none;stroke-opacity:1"
     id="rect8103-5-1-0-3-8-6-1-3-9-4-9"
     width="33.114258"
     height="18.960674"
     x="409.38635"
     y="330.03934" />
  <rect
     style="opacity:1;fill:none;stroke:#000000;stroke-width:2;stroke-linejoin:miter;stroke-miterlimit:4;stroke-dasharray:none;stroke-opacity:1"
     id="rect8103-5-1-0-3-8-6-1-3-9-4-9-7"
     width="16.295086"
     height="26.536686"
     x="443.07498"
     y="322.46332" />
  <path
     style="fill:none;fill-rule:evenodd;stroke:#000000;stroke-width:2;stroke-linecap:butt;stroke-linejoin:miter;stroke-miterlimit:4;stroke-dasharray:none;stroke-opacity:1"
     d="m 426.49989,329.99969 11.81661,0 0,-20.20663 -14.06661,-8.35465 2.25,28.56128 z"
     id="path8210-6-0"
     inkscape:path-effect="#path-effect8212-4-9"
     inkscape:original-d="m 426.49989,329.99969 11.81661,0 0,-20.20663 -14.06661,-8.35465 z"
     inkscape:connector-curvature="0"
     sodipodi:nodetypes="ccccc" />
  <path
     style="opacity:1;fill:none;stroke:#000000;stroke-width:2;stroke-linejoin:miter;stroke-miterlimit:4;stroke-dasharray:none;stroke-opacity:1"
     d="M 438.7207 257.00977 L 438.7207 330.03906 L 442.5 330.03906 L 442.5 349 L 459.33008 349 L 459.33008 272.06445 L 475.03711 272.06445 L 475.03711 257.00977 L 438.7207 257.00977 z "
     id="rect8103-5-1-0-3-8-6-1-1-2" />
  <rect
     style="opacity:1;fill:none;stroke:#000000;stroke-width:2;stroke-linejoin:miter;stroke-miterlimit:4;stroke-dasharray:none;stroke-opacity:1"
     id="rect8103-5-1-0-3-8-6-1-1-2-0"
     width="30.985136"
     height="76.935623"
     x="459.32968"
     y="272.06439" />
  <path
     style="opacity:1;fill:none;stroke:#000000;stroke-width:2;stroke-linejoin:miter;stroke-miterlimit:4;stroke-dasharray:none;stroke-opacity:1"
     d="M 501.49805 269.7793 L 501.49805 349 L 519.64453 349 L 519.64453 311.55273 L 537.5957 311.55273 L 537.5957 311.46289 L 530.57422 311.46289 L 530.57422 302.16797 L 537.5957 302.16797 L 537.5957 269.7793 L 501.49805 269.7793 z "
     id="rect8103-5-1-0-3-8-6-1-1-2-0-8" />
  <rect
     style="opacity:1;fill:none;stroke:#000000;stroke-width:2;stroke-linejoin:miter;stroke-miterlimit:4;stroke-dasharray:none;stroke-opacity:1"
     id="rect8103-5-1-0-3-8-6-1-1-2-0-8-5"
     width="10.602809"
     height="44.178925"
     x="490.55719"
     y="304.82108" />
  <path
     style="opacity:1;fill:none;stroke:#000000;stroke-width:2;stroke-linejoin:miter;stroke-miterlimit:4;stroke-dasharray:none;stroke-opacity:1"
     d="M 513.48633 255.75 L 513.48633 269.7793 L 537.5957 269.7793 L 537.5957 302.16797 L 553.71289 302.16797 L 553.71289 255.75 L 513.48633 255.75 z M 537.5957 311.46289 L 537.5957 311.55273 L 553.71289 311.55273 L 553.71289 311.46289 L 537.5957 311.46289 z "
     id="rect8103-5-1-0-3-8-6-1-1-2-0-8-7" />
  <rect
     style="opacity:1;fill:none;stroke:#000000;stroke-width:2;stroke-linejoin:miter;stroke-miterlimit:4;stroke-dasharray:none;stroke-opacity:1"
     id="rect8103-5-1-0-3-8-6-1-1-2-0-8-7-4"
     width="11.730572"
     height="4.6587152"
     x="541.98328"
     y="250.54463" />
  <rect
     style="opacity:1;fill:none;stroke:#000000;stroke-width:2;stroke-linejoin:miter;stroke-miterlimit:4;stroke-dasharray:none;stroke-opacity:1"
     id="rect8103-5-1-0-3-8-6-1-1-2-0-8-7-0"
     width="49.831684"
     height="37.447845"
     x="519.64478"
     y="311.55215" />
  <rect
     style="opacity:1;fill:none;stroke:#000000;stroke-width:2;stroke-linejoin:miter;stroke-miterlimit:4;stroke-dasharray:none;stroke-opacity:1"
     id="rect8103-5-1-0-3-8-6-1-1-2-0-8-7-4-1"
     width="27.974207"
     height="9.2940645"
     x="530.57349"
     y="302.16895" />
  <rect
     style="opacity:1;fill:none;stroke:#000000;stroke-width:2;stroke-linejoin:miter;stroke-miterlimit:4;stroke-dasharray:none;stroke-opacity:1"
     id="rect8103-5-1-0-3-8-6-1-1-2-0-8-7-0-7"
     width="12.573601"
     height="31.30246"
     x="569.56329"
     y="317.69754" />
  <rect
     style="opacity:1;fill:none;stroke:#000000;stroke-width:2;stroke-linejoin:miter;stroke-miterlimit:4;stroke-dasharray:none;stroke-opacity:1"
     id="rect8103-5-1-0-3-8-6-1-1-2-0-8-7-0-7-2"
     width="24.466187"
     height="40.89695"
     x="582.44373"
     y="308.10306" />
  <path
     style="opacity:1;fill:none;stroke:#000000;stroke-width:2;stroke-linejoin:miter;stroke-miterlimit:4;stroke-dasharray:none;stroke-opacity:1"
     d="M 595.39062 297.22656 L 595.39062 308.10352 L 606.91016 308.10352 L 606.91016 349 L 624.10938 349 L 624.10938 297.22656 L 595.39062 297.22656 z "
     id="rect8103-5-1-0-3-8-6-1-1-2-0-8-7-0-7-2-3" />
  <path
     style="opacity:1;fill:none;stroke:#000000;stroke-width:2;stroke-linejoin:miter;stroke-miterlimit:4;stroke-dasharray:none;stroke-opacity:1"
     d="M 624.36719 304.54102 L 624.36719 349 L 629.63867 349 L 629.63867 304.54102 L 624.36719 304.54102 z M 658.35742 304.54102 L 658.35742 349 L 689.08203 349 L 689.08203 304.54102 L 658.35742 304.54102 z "
     id="rect8103-5-1-0-3-8-6-1-1-2-0-8-7-0-7-2-3-1" />
  <rect
     style="opacity:1;fill:none;stroke:#000000;stroke-width:2;stroke-linejoin:miter;stroke-miterlimit:4;stroke-dasharray:none;stroke-opacity:1"
     id="rect8103-5-1-0-3-8-6-1-1-2-0-8-7-0-7-2-3-4"
     width="28.718056"
     height="51.772682"
     x="629.63849"
     y="297.22733" />
  <path
     style="opacity:1;fill:none;stroke:#000000;stroke-width:2;stroke-linejoin:miter;stroke-miterlimit:4;stroke-dasharray:none;stroke-opacity:1"
     d="M 671.87109 295.07031 L 671.87109 304.54102 L 689.08203 304.54102 L 689.08203 349 L 708.93164 349 L 708.93164 295.07031 L 671.87109 295.07031 z "
     id="rect8103-5-1-0-3-8-6-1-1-2-0-8-7-0-7-2-3-2" />
  <path
     style="opacity:1;fill:none;stroke:#000000;stroke-width:2;stroke-linejoin:miter;stroke-miterlimit:4;stroke-dasharray:none;stroke-opacity:1"
     d="M 689.12109 283.46289 L 689.12109 295.07031 L 708.93164 295.07031 L 708.93164 349 L 732.69336 349 L 732.69336 283.46289 L 689.12109 283.46289 z "
     id="rect8103-5-1-0-3-8-6-1-1-2-0-8-7-0-7-2-3-2-0" />
  <rect
     style="opacity:1;fill:none;stroke:#000000;stroke-width:2;stroke-linejoin:miter;stroke-miterlimit:4;stroke-dasharray:none;stroke-opacity:1"
     id="rect8103-5-1-0-3-8-6-1-1-2-0-8-7-0-7-2-3-2-0-8"
     width="41.207729"
     height="86.508102"
     x="732.88763"
     y="262.49188" />
  <path
     style="opacity:1;fill:none;stroke:#000000;stroke-width:2;stroke-linejoin:miter;stroke-miterlimit:4;stroke-dasharray:none;stroke-opacity:1"
     d="M 712.24219 239.76172 L 712.24219 283.46289 L 732.69336 283.46289 L 732.69336 349 L 732.88672 349 L 732.88672 262.49219 L 747.36523 262.49219 L 747.36523 239.76172 L 712.24219 239.76172 z "
     id="rect8103-5-1-0-3-8-6-1-1-2-0-8-7-0-7-2-3-2-0-8-6" />
  <rect
     style="opacity:1;fill:none;stroke:#000000;stroke-width:2;stroke-linejoin:miter;stroke-miterlimit:4;stroke-dasharray:none;stroke-opacity:1"
     id="rect8103-5-1-0-3-8-6-1-1-2-0-8-7-0-7-2-3-2-0-8-66"
     width="16.111971"
     height="89.873383"
     x="784.18066"
     y="259.12662" />
  <rect
     style="opacity:1;fill:none;stroke:#000000;stroke-width:2;stroke-linejoin:miter;stroke-miterlimit:4;stroke-dasharray:none;stroke-opacity:1"
     id="rect8103-5-1-0-3-8-6-1-1-2-0-8-7-0-7-2-3-2-0-8-66-6"
     width="10.463161"
     height="51.697659"
     x="773.8233"
     y="297.30234" />
  <path
     id="path8771-2"
     style="opacity:1;fill:none;stroke:#000000;stroke-width:2;stroke-linecap:butt;stroke-linejoin:miter;stroke-miterlimit:4;stroke-dasharray:none;stroke-opacity:1"
     d="m 246.86116,282.94156 c -30.4578,0.0333 -61.34767,9.07433 -77.71196,23.98421 l 0,0 -5.3e-4,42.07423 155.43924,0 2e-4,-42.07423 0,0 c -16.35609,-14.90245 -47.28438,-23.94235 -77.72695,-23.98421 z m 0.001,14.74985 c -25.00539,0.0259 -50.36551,7.04817 -63.80034,18.6289 l 0,0 -4.4e-4,32.67969 127.61328,0 1.6e-4,-32.67969 0,0 c -13.4281,-11.57496 -38.81977,-18.59639 -63.81266,-18.6289 z" />
  <path
     style="opacity:1;fill:none;stroke:#000000;stroke-width:2;stroke-linecap:butt;stroke-linejoin:miter;stroke-miterlimit:4;stroke-dasharray:none;stroke-opacity:1"
     d="M 393.6543 121.08008 L 393.6543 142 C 397.7341 141.91374 401.95602 141.86341 406.25977 141.91992 L 406.25977 121.08008 L 393.6543 121.08008 z M 400.40039 145.24414 C 398.17941 145.25197 395.90774 145.27625 393.6543 145.29297 L 393.6543 145.39648 C 397.75572 145.32573 401.95926 145.2827 406.25977 145.32227 L 406.25977 145.25 C 404.32223 145.2441 402.38743 145.23713 400.40039 145.24414 z M 400.45508 148.56836 C 398.21605 148.5752 395.92413 148.59526 393.6543 148.60938 L 393.6543 149.05273 C 395.70061 148.97254 397.78408 148.91854 399.91211 148.91797 C 402.07104 148.91801 404.18476 148.9727 406.25977 149.05469 L 406.25977 148.57422 C 404.3333 148.57071 402.42362 148.56234 400.45508 148.56836 z M 393.6543 175.74414 L 393.6543 175.98438 C 397.80484 176.00008 402.10312 176.01427 406.25977 176.00586 L 406.25977 175.74609 C 404.21283 175.82634 402.12871 175.88029 400 175.88086 C 397.84151 175.88079 395.72888 175.82612 393.6543 175.74414 z M 393.6543 181.98242 L 393.6543 322.19531 L 398.07422 322.19531 L 398.07422 349 L 398.21484 349 L 398.21484 325.90234 L 406.25977 325.90234 L 406.25977 181.98242 C 402.14677 181.98365 397.84649 181.97942 393.6543 181.98242 z "
     id="rect9028" />
  <path
     style="fill:none;fill-rule:evenodd;stroke:#000000;stroke-width:2;stroke-linecap:butt;stroke-linejoin:miter;stroke-miterlimit:4;stroke-dasharray:none;stroke-opacity:1"
     d="m 406.23242,181.9375 -0.30469,143.96484 3.375,0 0,22.93946 0.084,0 0,-18.80274 17.20117,0 -3.42925,-41.55215 -8.79341,-106.54941 z"
     id="path9039"
     inkscape:connector-curvature="0"
     sodipodi:nodetypes="cccccccccc" />
  <path
     style="fill:none;fill-rule:evenodd;stroke:#000000;stroke-width:2;stroke-linecap:butt;stroke-linejoin:miter;stroke-miterlimit:4;stroke-dasharray:none;stroke-opacity:1"
     d="M 385.5332 181.9375 L 373.95508 322.19531 L 393.96289 322.19531 L 393.66602 181.9375 L 385.5332 181.9375 z "
     id="path9039-8" />
  <path
     style="opacity:1;fill:none;stroke:#000000;stroke-width:2;stroke-linecap:butt;stroke-linejoin:miter;stroke-miterlimit:4;stroke-dasharray:none;stroke-opacity:1"
     d="m 380.42415,175.92869 c -1.67193,7e-5 -3.02728,1.35541 -3.02735,3.02734 7e-5,1.67193 1.35542,3.02728 3.02735,3.02735 13.84617,0.0105 25.98084,-0.0276 39.0664,0 1.67193,-7e-5 3.02728,-1.35542 3.02735,-3.02735 -8e-5,-1.67193 -1.35543,-3.02727 -3.02735,-3.02734 -14.03871,0.1464 -25.05326,0.0773 -39.0664,0 z"
     id="path9073"
     inkscape:connector-curvature="0"
     sodipodi:nodetypes="ccccccc" />
  <path
     style="opacity:1;fill:none;stroke:#000000;stroke-width:2;stroke-linecap:butt;stroke-linejoin:miter;stroke-miterlimit:4;stroke-dasharray:none;stroke-opacity:1"
     d="m 381.65179,145.65721 c -1.56684,4e-5 -2.837,0.67727 -2.83708,1.5127 9e-5,0.83542 1.27025,1.51265 2.83708,1.51269 12.51249,-0.0766 25.42502,-0.22798 36.6111,0 1.56684,-3e-5 2.83701,-0.67726 2.83709,-1.51269 -7e-5,-0.83543 -1.27024,-1.51267 -2.83709,-1.5127 -12.61922,-0.64784 -25.81692,-0.27811 -36.6111,0 z"
     id="path9073-3"
     inkscape:connector-curvature="0"
     sodipodi:nodetypes="ccccccc" />
  <path
     style="opacity:1;fill:none;stroke:#000000;stroke-width:2;stroke-linecap:butt;stroke-linejoin:miter;stroke-miterlimit:4;stroke-dasharray:none;stroke-opacity:1"
     d="m 399.9115,148.91864 c -11.12048,0.003 -21.46832,1.1305 -27.45763,2.99203 0.0103,6.78845 0.0911,14.18506 0.0867,20.26191 l 0.004,0 0,0.72784 c 6.00352,1.85673 16.34791,2.97941 27.45573,2.97976 11.12049,-0.003 21.46834,-1.1305 27.45764,-2.99204 l 0,-0.71556 0.004,0 0,-20.15851 -0.0924,0 0,-0.11574 c -6.00389,-1.85685 -16.34916,-2.97954 -27.45766,-2.97976 z"
     id="rect9094-4-6-7"
     inkscape:connector-curvature="0"
     sodipodi:nodetypes="cccccccccccccc" />
  <path
     id="path9111-5-2-1-5-4-0"
     style="opacity:1;fill:none;stroke:#000000;stroke-width:2;stroke-linecap:butt;stroke-linejoin:miter;stroke-miterlimit:4;stroke-dasharray:none;stroke-opacity:1"
     d="m 399.95637,157.64877 a 32.232203,9.0360805 0 0 0 -27.37755,4.28859 l 0,3.35901 0,3.71053 0,0.0898 a 32.232203,9.0360805 0 0 1 27.37755,-4.28859 32.232203,9.0360805 0 0 1 27.3795,4.27882 l 0,-0.0898 0,-3.71053 0,-3.359 a 32.232203,9.0360805 0 0 0 -27.3795,-4.27883 z m 0,-3.47676 a 32.232203,9.0360805 0 0 0 -27.37755,4.28859 l 0,3.35901 0,3.71053 0,0.0898 a 32.232203,9.0360805 0 0 1 27.37755,-4.28859 32.232203,9.0360805 0 0 1 27.3795,4.27882 l 0,-0.0898 0,-3.71053 0,-3.359 a 32.232203,9.0360805 0 0 0 -27.3795,-4.27883 z"
     inkscape:connector-curvature="0" />
  <rect
     style="opacity:1;fill:none;stroke:#000000;stroke-width:2;stroke-linecap:butt;stroke-linejoin:miter;stroke-miterlimit:4;stroke-dasharray:none;stroke-opacity:1"
     id="rect9576"
     width="9.270153"
     height="17.755434"
     x="395.32227"
     y="103.55078" />
  <rect
     style="opacity:1;fill:none;stroke:#000000;stroke-width:2;stroke-linecap:butt;stroke-linejoin:miter;stroke-miterlimit:4;stroke-dasharray:none;stroke-opacity:1"
     id="rect9576-4"
     width="12.573449"
     height="5.8559337"
     x="393.67062"
     y="121.07941" />
  <rect
     style="opacity:1;fill:none;stroke:#000000;stroke-width:2;stroke-linecap:butt;stroke-linejoin:miter;stroke-miterlimit:4;stroke-dasharray:none;stroke-opacity:1"
     id="rect9576-6"
     width="6.0949478"
     height="12.282132"
     x="396.90988"
     y="91.659172" />
  <rect
     style="opacity:1;fill:none;stroke:#000000;stroke-width:2;stroke-linecap:butt;stroke-linejoin:miter;stroke-miterlimit:4;stroke-dasharray:none;stroke-opacity:1"
     id="rect9576-6-1"
     width="2.847667"
     height="12.923937"
     x="398.53351"
     y="78.820915" />
  <rect
     style="opacity:1;fill:none;stroke:#000000;stroke-width:2;stroke-linecap:butt;stroke-linejoin:miter;stroke-miterlimit:4;stroke-dasharray:none;stroke-opacity:1"
     id="rect9576-6-1-8"
     width="2.847667"
     height="12.923937"
     x="398.53351"
     y="66.048798" />
  <rect
     style="opacity:1;fill:none;stroke:#000000;stroke-width:2;stroke-linecap:butt;stroke-linejoin:miter;stroke-miterlimit:4;stroke-dasharray:none;stroke-opacity:1"
     id="rect9576-6-1-8-0"
     width="1.1544377"
     height="7.1648431"
     x="399.38013"
     y="58.641506" />
  <path
     style="opacity:1;fill:none;stroke:#000000;stroke-width:1;stroke-linecap:butt;stroke-linejoin:miter;stroke-miterlimit:4;stroke-dasharray:none;stroke-opacity:1"
     d="m 278.38477,129.95703 0,24.11524 -0.01,0.8125 24.75195,-24.93946 -0.625,0.0117 z"
     id="rect9684"
     inkscape:connector-curvature="0"
     sodipodi:nodetypes="cccccc" />
  <path
     style="opacity:1;fill:none;stroke:#000000;stroke-width:1.91114759;stroke-linecap:butt;stroke-linejoin:miter;stroke-miterlimit:4;stroke-dasharray:none;stroke-opacity:1"
     d="m 383.66963,142.25752 c -1.39412,4e-5 -2.52427,0.69504 -2.52435,1.5524 9e-5,0.85734 1.13024,1.55235 2.52435,1.55239 11.13322,-0.0786 22.62239,-0.23397 32.57542,0 1.39412,-3e-5 2.52428,-0.69504 2.52436,-1.55239 -7e-5,-0.85736 -1.13023,-1.55237 -2.52436,-1.5524 -11.22819,-0.66484 -22.97109,-0.28541 -32.57542,0 z"
     id="path9073-3-1"
     inkscape:connector-curvature="0"
     sodipodi:nodetypes="ccccccc" />
  <path
     style="opacity:1;fill:none;stroke:#000000;stroke-width:1;stroke-linecap:butt;stroke-linejoin:miter;stroke-miterlimit:4;stroke-dasharray:none;stroke-opacity:1"
     d="M 245.87695 96.03125 L 244.47656 97.429688 L 278.38477 131.34766 L 278.38477 129.95703 L 279.79297 129.95703 L 245.87695 96.03125 z M 549.65039 96.03125 L 499.46289 146.23242 C 481.91601 124.79398 457.50464 109.05611 429.20703 102.44531 L 429.20703 104.44531 C 456.47804 111.02947 480.42661 126.77407 497.74609 147.94922 L 449.62695 196.08203 L 451.02734 197.48242 L 498.98828 149.50586 C 507.60592 160.37541 514.50815 172.61059 519.24219 185.74219 C 522.62559 195.1273 524.90627 204.96681 525.92773 215.08203 L 527.92773 215.08203 C 525.45002 189.88233 515.70619 166.70619 500.70508 147.78906 L 551.04883 97.429688 L 549.65039 96.03125 z M 370.70703 102.44531 C 341.35755 109.32805 316.20733 126.03652 298.56055 148.73047 L 291.49609 141.66406 L 290.10156 143.06836 L 297.33594 150.30469 C 283.44845 168.74631 274.45351 190.99437 272.08984 215.08203 L 274.08984 215.08203 C 276.43278 191.87466 285.36503 170.13277 299.01562 151.98438 L 344.5 197.48242 L 345.90039 196.08203 L 300.24219 150.41211 C 317.6554 127.98381 342.34724 111.26158 370.70703 104.44531 L 370.70703 102.44531 z "
     id="path9902-1" />
  <text
     xml:space="preserve"
     style="font-style:normal;font-weight:normal;font-size:32.5px;line-height:125%;font-family:'Century Gothic';letter-spacing:0px;word-spacing:0px;fill:#000000;fill-opacity:1;stroke:none;stroke-width:1px;stroke-linecap:butt;stroke-linejoin:miter;stroke-opacity:1;-inkscape-font-specification:'Century Gothic';font-stretch:normal;font-variant:normal;"
     x="319.5"
     y="149.75"
     id="text9965"
     sodipodi:linespacing="125%"><tspan
       sodipodi:role="line"
       id="tspan9967"
       x="319.5"
       y="149.75" /></text>
  <text
     xml:space="preserve"
     style="font-style:normal;font-weight:normal;font-size:32.5px;line-height:125%;font-family:'Century Gothic';letter-spacing:0px;word-spacing:0px;fill:#000000;fill-opacity:1;stroke:none;stroke-width:1px;stroke-linecap:butt;stroke-linejoin:miter;stroke-opacity:1;-inkscape-font-specification:'Century Gothic';font-stretch:normal;font-variant:normal;"
     x="326.5"
     y="144.5"
     id="text9969"
     sodipodi:linespacing="125%"><tspan
       sodipodi:role="line"
       id="tspan9971"
       x="326.5"
       y="144.5" /></text>
  <text
     xml:space="preserve"
     style="font-style:normal;font-variant:normal;font-weight:normal;font-stretch:normal;font-size:32.5px;line-height:125%;font-family:Century;-inkscape-font-specification:Century;letter-spacing:0px;word-spacing:0px;fill:#000000;fill-opacity:1;stroke:none;stroke-width:1px;stroke-linecap:butt;stroke-linejoin:miter;stroke-opacity:1"
     x="-117.60471"
     y="-331.64618"
     id="text9973"
     sodipodi:linespacing="125%"
     transform="matrix(-0.70710678,0.70710678,-0.70710678,-0.70710678,0,0)"><tspan
       sodipodi:role="line"
       id="tspan9975"
       x="-117.60471"
       y="-331.64618">N</tspan></text>
  <text
     xml:space="preserve"
     style="font-style:normal;font-variant:normal;font-weight:normal;font-stretch:normal;font-size:32.5px;line-height:125%;font-family:Century;-inkscape-font-specification:Century;letter-spacing:0px;word-spacing:0px;fill:#000000;fill-opacity:1;stroke:none;stroke-width:1px;stroke-linecap:butt;stroke-linejoin:miter;stroke-opacity:1"
     x="446.53073"
     y="-205.01979"
     id="text9977"
     sodipodi:linespacing="125%"
     transform="matrix(0.70710678,0.70710678,-0.70710678,0.70710678,0,0)"><tspan
       sodipodi:role="line"
       id="tspan9979"
       x="446.53073"
       y="-205.01979">E</tspan><tspan
       sodipodi:role="line"
       x="446.53073"
       y="-164.39479"
       id="tspan9981" /></text>
  <text
     xml:space="preserve"
     style="font-style:normal;font-variant:normal;font-weight:normal;font-stretch:normal;font-size:32.5px;line-height:125%;font-family:'Century Schoolbook';-inkscape-font-specification:'Century Schoolbook';letter-spacing:0px;word-spacing:0px;fill:#000000;fill-opacity:1;stroke:none;stroke-width:1px;stroke-linecap:butt;stroke-linejoin:miter;stroke-opacity:1"
     x="332.25"
     y="219.25"
     id="text9985"
     sodipodi:linespacing="125%"><tspan
       sodipodi:role="line"
       id="tspan9987"
       x="332.25"
       y="219.25" /></text>
  <path
     id="path9111-5-2-1-5-4-0-8"
     style="opacity:1;fill:none;stroke:#000000;stroke-width:2;stroke-linecap:butt;stroke-linejoin:miter;stroke-miterlimit:4;stroke-dasharray:none;stroke-opacity:1"
     d="m 399.95637,157.64877 a 32.232203,9.0360805 0 0 0 -27.37755,4.28859 l 0,3.35901 0,3.71053 0,0.0898 a 32.232203,9.0360805 0 0 1 27.37755,-4.28859 32.232203,9.0360805 0 0 1 27.3795,4.27882 l 0,-0.0898 0,-3.71053 0,-3.359 a 32.232203,9.0360805 0 0 0 -27.3795,-4.27883 z m 0,-3.47676 a 32.232203,9.0360805 0 0 0 -27.37755,4.28859 l 0,3.35901 0,3.71053 0,0.0898 a 32.232203,9.0360805 0 0 1 27.37755,-4.28859 32.232203,9.0360805 0 0 1 27.3795,4.27882 l 0,-0.0898 0,-3.71053 0,-3.359 a 32.232203,9.0360805 0 0 0 -27.3795,-4.27883 z"
     inkscape:connector-curvature="0" />
</svg>
